  0
SECTION
  2
BLOCKS
  0
ENDSEC
  0
SECTION
  2
ENTITIES
  0
LINE
  8
0
 10
288.544
 20
-98.8369
 11
290.492
 21
-98.5118
  0
LINE
  8
0
 10
290.492
 20
-98.5118
 11
292.229
 21
-97.5718
  0
LINE
  8
0
 10
292.229
 20
-97.5718
 11
293.567
 21
-96.1186
  0
LINE
  8
0
 10
293.567
 20
-96.1186
 11
294.459
 21
-93.8424
  0
LINE
  8
0
 10
294.459
 20
-93.8424
 11
297.697
 21
-74.7926
  0
LINE
  8
0
 10
297.697
 20
-74.7926
 11
297.782
 21
-73.7871
  0
LINE
  8
0
 10
297.782
 20
-73.7871
 11
297.782
 21
-54.7373
  0
LINE
  8
0
 10
297.782
 20
-54.7373
 11
297.693
 21
-53.7041
  0
LINE
  8
0
 10
297.693
 20
-53.7041
 11
290.899
 21
-14.8418
  0
LINE
  8
0
 10
290.899
 20
-14.8418
 11
290.243
 21
-12.9786
  0
LINE
  8
0
 10
290.243
 20
-12.9786
 11
289.018
 21
-11.4294
  0
LINE
  8
0
 10
289.018
 20
-11.4294
 11
287.356
 21
-10.3619
  0
LINE
  8
0
 10
287.356
 20
-10.3619
 11
284.988
 21
-9.875
  0
LINE
  8
0
 10
284.988
 20
-9.875
 11
280
 21
-9.875
  0
LINE
  8
0
 10
280
 20
-9.875
 11
280
 21
-15.375
  0
LINE
  8
0
 10
280
 20
-15.375
 11
284.988
 21
-15.375
  0
LINE
  8
0
 10
284.988
 20
-15.375
 11
285.481
 21
-15.7889
  0
LINE
  8
0
 10
285.481
 20
-15.7889
 11
292.275
 21
-54.6512
  0
LINE
  8
0
 10
292.275
 20
-54.6512
 11
292.282
 21
-54.7373
  0
LINE
  8
0
 10
292.282
 20
-54.7373
 11
292.282
 21
-73.7871
  0
LINE
  8
0
 10
292.282
 20
-73.7871
 11
292.275
 21
-73.8709
  0
LINE
  8
0
 10
292.275
 20
-73.8709
 11
289.037
 21
-92.9207
  0
LINE
  8
0
 10
289.037
 20
-92.9207
 11
288.544
 21
-93.3369
  0
LINE
  8
0
 10
288.544
 20
-93.3369
 11
280
 21
-93.3369
  0
LINE
  8
0
 10
280
 20
-93.3369
 11
280
 21
-98.8369
  0
LINE
  8
0
 10
280
 20
-98.8369
 11
288.544
 21
-98.8369
  0
LINE
  8
0
 10
285.88
 20
-14.1437
 11
285.645
 21
-14.0937
  0
LINE
  8
0
 10
285.645
 20
-14.0937
 11
285.425
 21
-13.9959
  0
LINE
  8
0
 10
285.425
 20
-13.9959
 11
285.23
 21
-13.8546
  0
LINE
  8
0
 10
285.23
 20
-13.8546
 11
285.07
 21
-13.6759
  0
LINE
  8
0
 10
285.07
 20
-13.6759
 11
284.949
 21
-13.4677
  0
LINE
  8
0
 10
284.949
 20
-13.4677
 11
284.875
 21
-13.2391
  0
LINE
  8
0
 10
284.875
 20
-13.2391
 11
284.85
 21
-13
  0
LINE
  8
0
 10
284.85
 20
-13
 11
284.875
 21
-12.7609
  0
LINE
  8
0
 10
284.875
 20
-12.7609
 11
284.949
 21
-12.5322
  0
LINE
  8
0
 10
284.949
 20
-12.5322
 11
285.07
 21
-12.324
  0
LINE
  8
0
 10
285.07
 20
-12.324
 11
285.23
 21
-12.1454
  0
LINE
  8
0
 10
285.23
 20
-12.1454
 11
285.425
 21
-12.0041
  0
LINE
  8
0
 10
285.425
 20
-12.0041
 11
285.645
 21
-11.9063
  0
LINE
  8
0
 10
285.645
 20
-11.9063
 11
285.88
 21
-11.8563
  0
LINE
  8
0
 10
285.88
 20
-11.8563
 11
286.12
 21
-11.8563
  0
LINE
  8
0
 10
286.12
 20
-11.8563
 11
286.355
 21
-11.9063
  0
LINE
  8
0
 10
286.355
 20
-11.9063
 11
286.575
 21
-12.0041
  0
LINE
  8
0
 10
286.575
 20
-12.0041
 11
286.769
 21
-12.1454
  0
LINE
  8
0
 10
286.769
 20
-12.1454
 11
286.93
 21
-12.324
  0
LINE
  8
0
 10
286.93
 20
-12.324
 11
287.051
 21
-12.5322
  0
LINE
  8
0
 10
287.051
 20
-12.5322
 11
287.125
 21
-12.7609
  0
LINE
  8
0
 10
287.125
 20
-12.7609
 11
287.15
 21
-13
  0
LINE
  8
0
 10
287.15
 20
-13
 11
287.125
 21
-13.2391
  0
LINE
  8
0
 10
287.125
 20
-13.2391
 11
287.051
 21
-13.4677
  0
LINE
  8
0
 10
287.051
 20
-13.4677
 11
286.93
 21
-13.6759
  0
LINE
  8
0
 10
286.93
 20
-13.6759
 11
286.769
 21
-13.8546
  0
LINE
  8
0
 10
286.769
 20
-13.8546
 11
286.575
 21
-13.9959
  0
LINE
  8
0
 10
286.575
 20
-13.9959
 11
286.355
 21
-14.0937
  0
LINE
  8
0
 10
286.355
 20
-14.0937
 11
286.12
 21
-14.1437
  0
LINE
  8
0
 10
286.12
 20
-14.1437
 11
285.88
 21
-14.1437
  0
LINE
  8
0
 10
288.88
 20
-97.1437
 11
288.645
 21
-97.0937
  0
LINE
  8
0
 10
288.645
 20
-97.0937
 11
288.425
 21
-96.9959
  0
LINE
  8
0
 10
288.425
 20
-96.9959
 11
288.23
 21
-96.8546
  0
LINE
  8
0
 10
288.23
 20
-96.8546
 11
288.07
 21
-96.6759
  0
LINE
  8
0
 10
288.07
 20
-96.6759
 11
287.949
 21
-96.4677
  0
LINE
  8
0
 10
287.949
 20
-96.4677
 11
287.875
 21
-96.2391
  0
LINE
  8
0
 10
287.875
 20
-96.2391
 11
287.85
 21
-96
  0
LINE
  8
0
 10
287.85
 20
-96
 11
287.875
 21
-95.7609
  0
LINE
  8
0
 10
287.875
 20
-95.7609
 11
287.949
 21
-95.5322
  0
LINE
  8
0
 10
287.949
 20
-95.5322
 11
288.07
 21
-95.324
  0
LINE
  8
0
 10
288.07
 20
-95.324
 11
288.23
 21
-95.1454
  0
LINE
  8
0
 10
288.23
 20
-95.1454
 11
288.425
 21
-95.0041
  0
LINE
  8
0
 10
288.425
 20
-95.0041
 11
288.645
 21
-94.9063
  0
LINE
  8
0
 10
288.645
 20
-94.9063
 11
288.88
 21
-94.8563
  0
LINE
  8
0
 10
288.88
 20
-94.8563
 11
289.12
 21
-94.8563
  0
LINE
  8
0
 10
289.12
 20
-94.8563
 11
289.355
 21
-94.9063
  0
LINE
  8
0
 10
289.355
 20
-94.9063
 11
289.575
 21
-95.0041
  0
LINE
  8
0
 10
289.575
 20
-95.0041
 11
289.769
 21
-95.1454
  0
LINE
  8
0
 10
289.769
 20
-95.1454
 11
289.93
 21
-95.324
  0
LINE
  8
0
 10
289.93
 20
-95.324
 11
290.051
 21
-95.5322
  0
LINE
  8
0
 10
290.051
 20
-95.5322
 11
290.125
 21
-95.7609
  0
LINE
  8
0
 10
290.125
 20
-95.7609
 11
290.15
 21
-96
  0
LINE
  8
0
 10
290.15
 20
-96
 11
290.125
 21
-96.2391
  0
LINE
  8
0
 10
290.125
 20
-96.2391
 11
290.051
 21
-96.4677
  0
LINE
  8
0
 10
290.051
 20
-96.4677
 11
289.93
 21
-96.6759
  0
LINE
  8
0
 10
289.93
 20
-96.6759
 11
289.769
 21
-96.8546
  0
LINE
  8
0
 10
289.769
 20
-96.8546
 11
289.575
 21
-96.9959
  0
LINE
  8
0
 10
289.575
 20
-96.9959
 11
289.355
 21
-97.0937
  0
LINE
  8
0
 10
289.355
 20
-97.0937
 11
289.12
 21
-97.1437
  0
LINE
  8
0
 10
289.12
 20
-97.1437
 11
288.88
 21
-97.1437
  0
ENDSEC
  0
SECTION
  2
OBJECTS
  0
DICTIONARY
  0
ENDSEC
  0
EOF
