  0
SECTION
  2
HEADER
  9
$ANGBASE
  50
0.0
  9
$ANGDIR
  70
1
  9
$MEASUREMENT
  70
0
  0
ENDSEC
  0
SECTION
  2
TABLES
  0
TABLE
  2
LTYPE
  70
4
  0
LTYPE
  5
40F
  2
CONTINUOUS
  70
0
  3
Solid line
  72
65
  73
0
  40
0.0
  0
LTYPE
  5
410
  2
DASHDOT
 70
0
  3
Dash Dot ____ _ ____ _
 72
65
 73
4
 40
2.0
 49
1.25
 49
-0.25
 49
0.25
 49
-0.25
  0
LTYPE
  5
411
  2
DASHED
 70
0
  3
Dashed __ __ __ __ __
 72
65
 73
2
 40
0.75
 49
0.5
 49
-0.25
  0
LTYPE
  5
43B
  2
DOTTED
 70
0
  3
Dotted .  .  .  .
 72
65
 73
2
 40
0.2
 49
0.0
 49
-0.2
  0
ENDTAB
  0
TABLE
  2
STYLE
  70
4
  0
STYLE
  2
KICAD
  70
0
  40
0
  41
1
  42
1
  50
0
  71
0
  3
isocp.shx
  0
STYLE
  2
KICADB
  70
0
  40
0
  41
1
  42
1
  50
0
  71
0
  3
isocp.shx
  0
STYLE
  2
KICADI
  70
0
  40
0
  41
1
  42
1
  50
15
  71
0
  3
isocp.shx
  0
STYLE
  2
KICADBI
  70
0
  40
0
  41
1
  42
1
  50
15
  71
0
  3
isocp.shx
  0
ENDTAB
  0
TABLE
  2
LAYER
  70
1
  0
LAYER
  2
BLACK
  70
0
  62
7
  6
CONTINUOUS
  0
ENDTAB
  0
ENDSEC
  0
SECTION
  2
ENTITIES
0
LINE
8
BLACK
6
CONTINUOUS
10
5.04
20
-4.17
11
5.04
21
-3.36
0
LINE
8
BLACK
6
CONTINUOUS
10
5.42
20
-4.17
11
5.04
21
-4.17
0
LINE
8
BLACK
6
CONTINUOUS
10
5.42
20
-3.36
11
5.42
21
-4.17
0
LINE
8
BLACK
6
CONTINUOUS
10
5.04
20
-3.36
11
5.42
21
-3.36
0
LINE
8
BLACK
6
CONTINUOUS
10
5.05906
20
-1.1925
11
5.05906
21
-2.59843
0
LINE
8
BLACK
6
CONTINUOUS
10
5.3937
20
-3.26772
11
5.59055
21
-3.46457
0
LINE
8
BLACK
6
CONTINUOUS
10
5.3937
20
-2.93307
11
5.3937
21
-3.26772
0
LINE
8
BLACK
6
CONTINUOUS
10
5.05906
20
-2.59843
11
5.3937
21
-2.93307
0
LINE
8
BLACK
6
CONTINUOUS
10
5.59055
20
-4.24
11
5.59055
21
-3.46457
0
LINE
8
BLACK
6
CONTINUOUS
10
4.865
20
-1.1925
11
5.05906
21
-1.1925
0
LINE
8
BLACK
6
CONTINUOUS
10
-0.0025
20
-2.23
11
-0.0025
21
-2.98
0
LINE
8
BLACK
6
CONTINUOUS
10
1.8975
20
-0.67
11
0.28
21
-0.67
0
LINE
8
BLACK
6
CONTINUOUS
10
4.865
20
-1.1925
11
1.8975
21
-0.67
0
LINE
8
BLACK
6
CONTINUOUS
10
4.89
20
-4.24
11
5.59055
21
-4.24
0
LINE
8
BLACK
6
CONTINUOUS
10
1.975
20
-3.73
11
0.09
21
-3.73
0
LINE
8
BLACK
6
CONTINUOUS
10
4.89
20
-4.24
11
1.975
21
-3.73
0
LINE
8
BLACK
6
CONTINUOUS
10
-0.0025
20
-2.98
11
0.09
21
-3.73
0
LINE
8
BLACK
6
CONTINUOUS
10
0.28
20
-0.67
11
-0.0025
21
-2.23
0
LINE
8
BLACK
6
CONTINUOUS
10
0.376909
20
-2.32941
11
0.928091
21
-2.32941
0
LINE
8
BLACK
6
CONTINUOUS
10
0.928091
20
-2.32941
11
0.928091
21
-2.88059
0
LINE
8
BLACK
6
CONTINUOUS
10
0.928091
20
-2.88059
11
0.376909
21
-2.88059
0
LINE
8
BLACK
6
CONTINUOUS
10
0.376909
20
-2.88059
11
0.376909
21
-2.32941
0
LINE
8
BLACK
6
CONTINUOUS
10
2.79069
20
-3.21054
11
3.3335
21
-3.30625
0
LINE
8
BLACK
6
CONTINUOUS
10
3.3335
20
-3.30625
11
3.23779
21
-3.84906
0
LINE
8
BLACK
6
CONTINUOUS
10
3.23779
20
-3.84906
11
2.69498
21
-3.75335
0
LINE
8
BLACK
6
CONTINUOUS
10
2.69498
20
-3.75335
11
2.79069
21
-3.21054
0
LINE
8
BLACK
6
CONTINUOUS
10
1.22066
20
-3.07941
11
1.77184
21
-3.07941
0
LINE
8
BLACK
6
CONTINUOUS
10
1.77184
20
-3.07941
11
1.77184
21
-3.63059
0
LINE
8
BLACK
6
CONTINUOUS
10
1.77184
20
-3.63059
11
1.22066
21
-3.63059
0
LINE
8
BLACK
6
CONTINUOUS
10
1.22066
20
-3.63059
11
1.22066
21
-3.07941
0
LINE
8
BLACK
6
CONTINUOUS
10
0.283159
20
-3.07941
11
0.834341
21
-3.07941
0
LINE
8
BLACK
6
CONTINUOUS
10
0.834341
20
-3.07941
11
0.834341
21
-3.63059
0
LINE
8
BLACK
6
CONTINUOUS
10
0.834341
20
-3.63059
11
0.283159
21
-3.63059
0
LINE
8
BLACK
6
CONTINUOUS
10
0.283159
20
-3.63059
11
0.283159
21
-3.07941
0
LINE
8
BLACK
6
CONTINUOUS
10
0.324409
20
-1.57941
11
0.875591
21
-1.57941
0
LINE
8
BLACK
6
CONTINUOUS
10
0.875591
20
-1.57941
11
0.875591
21
-2.13059
0
LINE
8
BLACK
6
CONTINUOUS
10
0.875591
20
-2.13059
11
0.324409
21
-2.13059
0
LINE
8
BLACK
6
CONTINUOUS
10
0.324409
20
-2.13059
11
0.324409
21
-1.57941
0
LINE
8
BLACK
6
CONTINUOUS
10
1.16941
20
-1.57941
11
1.72059
21
-1.57941
0
LINE
8
BLACK
6
CONTINUOUS
10
1.72059
20
-1.57941
11
1.72059
21
-2.13059
0
LINE
8
BLACK
6
CONTINUOUS
10
1.72059
20
-2.13059
11
1.16941
21
-2.13059
0
LINE
8
BLACK
6
CONTINUOUS
10
1.16941
20
-2.13059
11
1.16941
21
-1.57941
0
LINE
8
BLACK
6
CONTINUOUS
10
4.80733
20
-4.12582
11
4.26452
21
-4.03011
0
LINE
8
BLACK
6
CONTINUOUS
10
4.26452
20
-4.03011
11
4.36023
21
-3.4873
0
LINE
8
BLACK
6
CONTINUOUS
10
4.36023
20
-3.4873
11
4.90304
21
-3.58301
0
LINE
8
BLACK
6
CONTINUOUS
10
4.90304
20
-3.58301
11
4.80733
21
-4.12582
0
LINE
8
BLACK
6
CONTINUOUS
10
4.49047
20
-2.74869
11
5.03328
21
-2.8444
0
LINE
8
BLACK
6
CONTINUOUS
10
5.03328
20
-2.8444
11
4.93757
21
-3.38721
0
LINE
8
BLACK
6
CONTINUOUS
10
4.93757
20
-3.38721
11
4.39476
21
-3.2915
0
LINE
8
BLACK
6
CONTINUOUS
10
4.39476
20
-3.2915
11
4.49047
21
-2.74869
0
LINE
8
BLACK
6
CONTINUOUS
10
4.25141
20
-1.94497
11
4.79421
21
-2.04068
0
LINE
8
BLACK
6
CONTINUOUS
10
4.79421
20
-2.04068
11
4.6985
21
-2.58349
0
LINE
8
BLACK
6
CONTINUOUS
10
4.6985
20
-2.58349
11
4.1557
21
-2.48778
0
LINE
8
BLACK
6
CONTINUOUS
10
4.1557
20
-2.48778
11
4.25141
21
-1.94497
0
LINE
8
BLACK
6
CONTINUOUS
10
4.19699
20
-1.17381
11
4.7398
21
-1.26952
0
LINE
8
BLACK
6
CONTINUOUS
10
4.7398
20
-1.26952
11
4.64409
21
-1.81233
0
LINE
8
BLACK
6
CONTINUOUS
10
4.64409
20
-1.81233
11
4.10128
21
-1.71662
0
LINE
8
BLACK
6
CONTINUOUS
10
4.10128
20
-1.71662
11
4.19699
21
-1.17381
0
LINE
8
BLACK
6
CONTINUOUS
10
3.62163
20
-3.35706
11
4.16444
21
-3.45277
0
LINE
8
BLACK
6
CONTINUOUS
10
4.16444
20
-3.45277
11
4.06872
21
-3.99558
0
LINE
8
BLACK
6
CONTINUOUS
10
4.06872
20
-3.99558
11
3.52592
21
-3.89987
0
LINE
8
BLACK
6
CONTINUOUS
10
3.52592
20
-3.89987
11
3.62163
21
-3.35706
0
LINE
8
BLACK
6
CONTINUOUS
10
3.75186
20
-2.61846
11
4.29467
21
-2.71417
0
LINE
8
BLACK
6
CONTINUOUS
10
4.29467
20
-2.71417
11
4.19896
21
-3.25698
0
LINE
8
BLACK
6
CONTINUOUS
10
4.19896
20
-3.25698
11
3.65615
21
-3.16126
0
LINE
8
BLACK
6
CONTINUOUS
10
3.65615
20
-3.16126
11
3.75186
21
-2.61846
0
LINE
8
BLACK
6
CONTINUOUS
10
3.5128
20
-1.81474
11
4.05561
21
-1.91045
0
LINE
8
BLACK
6
CONTINUOUS
10
4.05561
20
-1.91045
11
3.9599
21
-2.45326
0
LINE
8
BLACK
6
CONTINUOUS
10
3.9599
20
-2.45326
11
3.41709
21
-2.35754
0
LINE
8
BLACK
6
CONTINUOUS
10
3.41709
20
-2.35754
11
3.5128
21
-1.81474
0
LINE
8
BLACK
6
CONTINUOUS
10
3.45839
20
-1.04357
11
4.0012
21
-1.13929
0
LINE
8
BLACK
6
CONTINUOUS
10
4.0012
20
-1.13929
11
3.90548
21
-1.68209
0
LINE
8
BLACK
6
CONTINUOUS
10
3.90548
20
-1.68209
11
3.36268
21
-1.58638
0
LINE
8
BLACK
6
CONTINUOUS
10
3.36268
20
-1.58638
11
3.45839
21
-1.04357
0
LINE
8
BLACK
6
CONTINUOUS
10
3.01326
20
-2.48822
11
3.55607
21
-2.58393
0
LINE
8
BLACK
6
CONTINUOUS
10
3.55607
20
-2.58393
11
3.46035
21
-3.12674
0
LINE
8
BLACK
6
CONTINUOUS
10
3.46035
20
-3.12674
11
2.91755
21
-3.03103
0
LINE
8
BLACK
6
CONTINUOUS
10
2.91755
20
-3.03103
11
3.01326
21
-2.48822
0
LINE
8
BLACK
6
CONTINUOUS
10
2.7742
20
-1.6845
11
3.317
21
-1.78021
0
LINE
8
BLACK
6
CONTINUOUS
10
3.317
20
-1.78021
11
3.22129
21
-2.32302
0
LINE
8
BLACK
6
CONTINUOUS
10
3.22129
20
-2.32302
11
2.67848
21
-2.22731
0
LINE
8
BLACK
6
CONTINUOUS
10
2.67848
20
-2.22731
11
2.7742
21
-1.6845
0
LINE
8
BLACK
6
CONTINUOUS
10
2.71978
20
-0.913339
11
3.26259
21
-1.00905
0
LINE
8
BLACK
6
CONTINUOUS
10
3.26259
20
-1.00905
11
3.16688
21
-1.55186
0
LINE
8
BLACK
6
CONTINUOUS
10
3.16688
20
-1.55186
11
2.62407
21
-1.45615
0
LINE
8
BLACK
6
CONTINUOUS
10
2.62407
20
-1.45615
11
2.71978
21
-0.913339
0
LINE
8
BLACK
6
CONTINUOUS
10
2.27465
20
-2.35798
11
2.81746
21
-2.4537
0
LINE
8
BLACK
6
CONTINUOUS
10
2.81746
20
-2.4537
11
2.72175
21
-2.9965
0
LINE
8
BLACK
6
CONTINUOUS
10
2.72175
20
-2.9965
11
2.17894
21
-2.90079
0
LINE
8
BLACK
6
CONTINUOUS
10
2.17894
20
-2.90079
11
2.27465
21
-2.35798
0
LINE
8
BLACK
6
CONTINUOUS
10
2.03559
20
-1.55426
11
2.5784
21
-1.64998
0
LINE
8
BLACK
6
CONTINUOUS
10
2.5784
20
-1.64998
11
2.48269
21
-2.19278
0
LINE
8
BLACK
6
CONTINUOUS
10
2.48269
20
-2.19278
11
1.93988
21
-2.09707
0
LINE
8
BLACK
6
CONTINUOUS
10
1.93988
20
-2.09707
11
2.03559
21
-1.55426
0
LINE
8
BLACK
6
CONTINUOUS
10
1.98118
20
-0.783103
11
2.52398
21
-0.878814
0
LINE
8
BLACK
6
CONTINUOUS
10
2.52398
20
-0.878814
11
2.42827
21
-1.42162
0
LINE
8
BLACK
6
CONTINUOUS
10
2.42827
20
-1.42162
11
1.88546
21
-1.32591
0
LINE
8
BLACK
6
CONTINUOUS
10
1.88546
20
-1.32591
11
1.98118
21
-0.783103
0
LINE
8
BLACK
6
CONTINUOUS
10
1.40941
20
-2.32941
11
1.96059
21
-2.32941
0
LINE
8
BLACK
6
CONTINUOUS
10
1.96059
20
-2.32941
11
1.96059
21
-2.88059
0
LINE
8
BLACK
6
CONTINUOUS
10
1.96059
20
-2.88059
11
1.40941
21
-2.88059
0
LINE
8
BLACK
6
CONTINUOUS
10
1.40941
20
-2.88059
11
1.40941
21
-2.32941
0
LINE
8
BLACK
6
CONTINUOUS
10
1.11941
20
-0.829409
11
1.67059
21
-0.829409
0
LINE
8
BLACK
6
CONTINUOUS
10
1.67059
20
-0.829409
11
1.67059
21
-1.38059
0
LINE
8
BLACK
6
CONTINUOUS
10
1.67059
20
-1.38059
11
1.11941
21
-1.38059
0
LINE
8
BLACK
6
CONTINUOUS
10
1.11941
20
-1.38059
11
1.11941
21
-0.829409
0
LINE
8
BLACK
6
CONTINUOUS
10
0.369409
20
-0.829409
11
0.920591
21
-0.829409
0
LINE
8
BLACK
6
CONTINUOUS
10
0.920591
20
-0.829409
11
0.920591
21
-1.38059
0
LINE
8
BLACK
6
CONTINUOUS
10
0.920591
20
-1.38059
11
0.369409
21
-1.38059
0
LINE
8
BLACK
6
CONTINUOUS
10
0.369409
20
-1.38059
11
0.369409
21
-0.829409
  0
ENDSEC
  0
EOF
