  0
SECTION
  2
BLOCKS
  0
ENDSEC
  0
SECTION
  2
ENTITIES
  0
LINE
  8
0
 10
290.899
 20
-14.8418
 11
290.243
 21
-12.9786
  0
LINE
  8
0
 10
290.243
 20
-12.9786
 11
289.018
 21
-11.4294
  0
LINE
  8
0
 10
289.018
 20
-11.4294
 11
287.356
 21
-10.3619
  0
LINE
  8
0
 10
287.356
 20
-10.3619
 11
284.988
 21
-9.875
  0
LINE
  8
0
 10
284.988
 20
-9.875
 11
231.076
 21
-9.875
  0
LINE
  8
0
 10
231.076
 20
-9.875
 11
230.032
 21
-9.96648
  0
LINE
  8
0
 10
230.032
 20
-9.96648
 11
149
 21
-24.2807
  0
LINE
  8
0
 10
149
 20
-24.2807
 11
149
 21
-29.7891
  0
LINE
  8
0
 10
149
 20
-29.7891
 11
149.435
 21
-29.7891
  0
LINE
  8
0
 10
149.435
 20
-29.7891
 11
230.989
 21
-15.3826
  0
LINE
  8
0
 10
230.989
 20
-15.3826
 11
231.076
 21
-15.375
  0
LINE
  8
0
 10
231.076
 20
-15.375
 11
284.988
 21
-15.375
  0
LINE
  8
0
 10
284.988
 20
-15.375
 11
285.481
 21
-15.7889
  0
LINE
  8
0
 10
285.481
 20
-15.7889
 11
287.965
 21
-30
  0
LINE
  8
0
 10
287.965
 20
-30
 11
293.549
 21
-30
  0
LINE
  8
0
 10
293.549
 20
-30
 11
290.899
 21
-14.8418
  0
LINE
  8
0
 10
285.88
 20
-14.1437
 11
285.645
 21
-14.0937
  0
LINE
  8
0
 10
285.645
 20
-14.0937
 11
285.425
 21
-13.9959
  0
LINE
  8
0
 10
285.425
 20
-13.9959
 11
285.23
 21
-13.8546
  0
LINE
  8
0
 10
285.23
 20
-13.8546
 11
285.07
 21
-13.6759
  0
LINE
  8
0
 10
285.07
 20
-13.6759
 11
284.949
 21
-13.4677
  0
LINE
  8
0
 10
284.949
 20
-13.4677
 11
284.875
 21
-13.2391
  0
LINE
  8
0
 10
284.875
 20
-13.2391
 11
284.85
 21
-13
  0
LINE
  8
0
 10
284.85
 20
-13
 11
284.875
 21
-12.7609
  0
LINE
  8
0
 10
284.875
 20
-12.7609
 11
284.949
 21
-12.5322
  0
LINE
  8
0
 10
284.949
 20
-12.5322
 11
285.07
 21
-12.324
  0
LINE
  8
0
 10
285.07
 20
-12.324
 11
285.23
 21
-12.1454
  0
LINE
  8
0
 10
285.23
 20
-12.1454
 11
285.425
 21
-12.0041
  0
LINE
  8
0
 10
285.425
 20
-12.0041
 11
285.645
 21
-11.9063
  0
LINE
  8
0
 10
285.645
 20
-11.9063
 11
285.88
 21
-11.8563
  0
LINE
  8
0
 10
285.88
 20
-11.8563
 11
286.12
 21
-11.8563
  0
LINE
  8
0
 10
286.12
 20
-11.8563
 11
286.355
 21
-11.9063
  0
LINE
  8
0
 10
286.355
 20
-11.9063
 11
286.575
 21
-12.0041
  0
LINE
  8
0
 10
286.575
 20
-12.0041
 11
286.769
 21
-12.1454
  0
LINE
  8
0
 10
286.769
 20
-12.1454
 11
286.93
 21
-12.324
  0
LINE
  8
0
 10
286.93
 20
-12.324
 11
287.051
 21
-12.5322
  0
LINE
  8
0
 10
287.051
 20
-12.5322
 11
287.125
 21
-12.7609
  0
LINE
  8
0
 10
287.125
 20
-12.7609
 11
287.15
 21
-13
  0
LINE
  8
0
 10
287.15
 20
-13
 11
287.125
 21
-13.2391
  0
LINE
  8
0
 10
287.125
 20
-13.2391
 11
287.051
 21
-13.4677
  0
LINE
  8
0
 10
287.051
 20
-13.4677
 11
286.93
 21
-13.6759
  0
LINE
  8
0
 10
286.93
 20
-13.6759
 11
286.769
 21
-13.8546
  0
LINE
  8
0
 10
286.769
 20
-13.8546
 11
286.575
 21
-13.9959
  0
LINE
  8
0
 10
286.575
 20
-13.9959
 11
286.355
 21
-14.0937
  0
LINE
  8
0
 10
286.355
 20
-14.0937
 11
286.12
 21
-14.1437
  0
LINE
  8
0
 10
286.12
 20
-14.1437
 11
285.88
 21
-14.1437
  0
LINE
  8
0
 10
229.88
 20
-14.1437
 11
229.645
 21
-14.0937
  0
LINE
  8
0
 10
229.645
 20
-14.0937
 11
229.425
 21
-13.9959
  0
LINE
  8
0
 10
229.425
 20
-13.9959
 11
229.23
 21
-13.8546
  0
LINE
  8
0
 10
229.23
 20
-13.8546
 11
229.07
 21
-13.6759
  0
LINE
  8
0
 10
229.07
 20
-13.6759
 11
228.949
 21
-13.4677
  0
LINE
  8
0
 10
228.949
 20
-13.4677
 11
228.875
 21
-13.2391
  0
LINE
  8
0
 10
228.875
 20
-13.2391
 11
228.85
 21
-13
  0
LINE
  8
0
 10
228.85
 20
-13
 11
228.875
 21
-12.7609
  0
LINE
  8
0
 10
228.875
 20
-12.7609
 11
228.949
 21
-12.5322
  0
LINE
  8
0
 10
228.949
 20
-12.5322
 11
229.07
 21
-12.324
  0
LINE
  8
0
 10
229.07
 20
-12.324
 11
229.23
 21
-12.1454
  0
LINE
  8
0
 10
229.23
 20
-12.1454
 11
229.425
 21
-12.0041
  0
LINE
  8
0
 10
229.425
 20
-12.0041
 11
229.645
 21
-11.9063
  0
LINE
  8
0
 10
229.645
 20
-11.9063
 11
229.88
 21
-11.8563
  0
LINE
  8
0
 10
229.88
 20
-11.8563
 11
230.12
 21
-11.8563
  0
LINE
  8
0
 10
230.12
 20
-11.8563
 11
230.355
 21
-11.9063
  0
LINE
  8
0
 10
230.355
 20
-11.9063
 11
230.575
 21
-12.0041
  0
LINE
  8
0
 10
230.575
 20
-12.0041
 11
230.769
 21
-12.1454
  0
LINE
  8
0
 10
230.769
 20
-12.1454
 11
230.93
 21
-12.324
  0
LINE
  8
0
 10
230.93
 20
-12.324
 11
231.051
 21
-12.5322
  0
LINE
  8
0
 10
231.051
 20
-12.5322
 11
231.125
 21
-12.7609
  0
LINE
  8
0
 10
231.125
 20
-12.7609
 11
231.15
 21
-13
  0
LINE
  8
0
 10
231.15
 20
-13
 11
231.125
 21
-13.2391
  0
LINE
  8
0
 10
231.125
 20
-13.2391
 11
231.051
 21
-13.4677
  0
LINE
  8
0
 10
231.051
 20
-13.4677
 11
230.93
 21
-13.6759
  0
LINE
  8
0
 10
230.93
 20
-13.6759
 11
230.769
 21
-13.8546
  0
LINE
  8
0
 10
230.769
 20
-13.8546
 11
230.575
 21
-13.9959
  0
LINE
  8
0
 10
230.575
 20
-13.9959
 11
230.355
 21
-14.0937
  0
LINE
  8
0
 10
230.355
 20
-14.0937
 11
230.12
 21
-14.1437
  0
LINE
  8
0
 10
230.12
 20
-14.1437
 11
229.88
 21
-14.1437
  0
LINE
  8
0
 10
152.88
 20
-28.1437
 11
152.645
 21
-28.0937
  0
LINE
  8
0
 10
152.645
 20
-28.0937
 11
152.425
 21
-27.9959
  0
LINE
  8
0
 10
152.425
 20
-27.9959
 11
152.23
 21
-27.8546
  0
LINE
  8
0
 10
152.23
 20
-27.8546
 11
152.07
 21
-27.6759
  0
LINE
  8
0
 10
152.07
 20
-27.6759
 11
151.949
 21
-27.4677
  0
LINE
  8
0
 10
151.949
 20
-27.4677
 11
151.875
 21
-27.2391
  0
LINE
  8
0
 10
151.875
 20
-27.2391
 11
151.85
 21
-27
  0
LINE
  8
0
 10
151.85
 20
-27
 11
151.875
 21
-26.7609
  0
LINE
  8
0
 10
151.875
 20
-26.7609
 11
151.949
 21
-26.5322
  0
LINE
  8
0
 10
151.949
 20
-26.5322
 11
152.07
 21
-26.324
  0
LINE
  8
0
 10
152.07
 20
-26.324
 11
152.23
 21
-26.1454
  0
LINE
  8
0
 10
152.23
 20
-26.1454
 11
152.425
 21
-26.0041
  0
LINE
  8
0
 10
152.425
 20
-26.0041
 11
152.645
 21
-25.9063
  0
LINE
  8
0
 10
152.645
 20
-25.9063
 11
152.88
 21
-25.8563
  0
LINE
  8
0
 10
152.88
 20
-25.8563
 11
153.12
 21
-25.8563
  0
LINE
  8
0
 10
153.12
 20
-25.8563
 11
153.355
 21
-25.9063
  0
LINE
  8
0
 10
153.355
 20
-25.9063
 11
153.575
 21
-26.0041
  0
LINE
  8
0
 10
153.575
 20
-26.0041
 11
153.769
 21
-26.1454
  0
LINE
  8
0
 10
153.769
 20
-26.1454
 11
153.93
 21
-26.324
  0
LINE
  8
0
 10
153.93
 20
-26.324
 11
154.051
 21
-26.5322
  0
LINE
  8
0
 10
154.051
 20
-26.5322
 11
154.125
 21
-26.7609
  0
LINE
  8
0
 10
154.125
 20
-26.7609
 11
154.15
 21
-27
  0
LINE
  8
0
 10
154.15
 20
-27
 11
154.125
 21
-27.2391
  0
LINE
  8
0
 10
154.125
 20
-27.2391
 11
154.051
 21
-27.4677
  0
LINE
  8
0
 10
154.051
 20
-27.4677
 11
153.93
 21
-27.6759
  0
LINE
  8
0
 10
153.93
 20
-27.6759
 11
153.769
 21
-27.8546
  0
LINE
  8
0
 10
153.769
 20
-27.8546
 11
153.575
 21
-27.9959
  0
LINE
  8
0
 10
153.575
 20
-27.9959
 11
153.355
 21
-28.0937
  0
LINE
  8
0
 10
153.355
 20
-28.0937
 11
153.12
 21
-28.1437
  0
LINE
  8
0
 10
153.12
 20
-28.1437
 11
152.88
 21
-28.1437
  0
LINE
  8
0
 10
6.6203
 20
-16.9285
 11
7.1123
 21
-16.5176
  0
LINE
  8
0
 10
7.1123
 20
-16.5176
 11
48.1963
 21
-16.5176
  0
LINE
  8
0
 10
48.1963
 20
-16.5176
 11
48.283
 21
-16.5251
  0
LINE
  8
0
 10
48.283
 20
-16.5251
 11
123.615
 21
-29.7891
  0
LINE
  8
0
 10
123.615
 20
-29.7891
 11
129
 21
-29.7891
  0
LINE
  8
0
 10
129
 20
-29.7891
 11
129
 21
-24.2891
  0
LINE
  8
0
 10
129
 20
-24.2891
 11
124.095
 21
-24.2891
  0
LINE
  8
0
 10
124.095
 20
-24.2891
 11
49.2367
 21
-11.1085
  0
LINE
  8
0
 10
49.2367
 20
-11.1085
 11
48.1963
 21
-11.0176
  0
LINE
  8
0
 10
48.1963
 20
-11.0176
 11
7.1123
 21
-11.0176
  0
LINE
  8
0
 10
7.1123
 20
-11.0176
 11
5.16411
 21
-11.3427
  0
LINE
  8
0
 10
5.16411
 20
-11.3427
 11
3.42703
 21
-12.2827
  0
LINE
  8
0
 10
3.42703
 20
-12.2827
 11
2.08931
 21
-13.7359
  0
LINE
  8
0
 10
2.08931
 20
-13.7359
 11
1.20834
 21
-15.9484
  0
LINE
  8
0
 10
1.20834
 20
-15.9484
 11
-1.33635
 21
-30
  0
LINE
  8
0
 10
-1.33635
 20
-30
 11
4.2531
 21
-30
  0
LINE
  8
0
 10
4.2531
 20
-30
 11
6.6203
 21
-16.9285
  0
LINE
  8
0
 10
5.87979
 20
-16.1437
 11
5.64462
 21
-16.0937
  0
LINE
  8
0
 10
5.64462
 20
-16.0937
 11
5.42499
 21
-15.9959
  0
LINE
  8
0
 10
5.42499
 20
-15.9959
 11
5.2305
 21
-15.8546
  0
LINE
  8
0
 10
5.2305
 20
-15.8546
 11
5.06963
 21
-15.6759
  0
LINE
  8
0
 10
5.06963
 20
-15.6759
 11
4.94942
 21
-15.4677
  0
LINE
  8
0
 10
4.94942
 20
-15.4677
 11
4.87512
 21
-15.2391
  0
LINE
  8
0
 10
4.87512
 20
-15.2391
 11
4.84999
 21
-15
  0
LINE
  8
0
 10
4.84999
 20
-15
 11
4.87512
 21
-14.7609
  0
LINE
  8
0
 10
4.87512
 20
-14.7609
 11
4.94942
 21
-14.5322
  0
LINE
  8
0
 10
4.94942
 20
-14.5322
 11
5.06963
 21
-14.324
  0
LINE
  8
0
 10
5.06963
 20
-14.324
 11
5.2305
 21
-14.1454
  0
LINE
  8
0
 10
5.2305
 20
-14.1454
 11
5.42499
 21
-14.0041
  0
LINE
  8
0
 10
5.42499
 20
-14.0041
 11
5.64462
 21
-13.9063
  0
LINE
  8
0
 10
5.64462
 20
-13.9063
 11
5.87979
 21
-13.8563
  0
LINE
  8
0
 10
5.87979
 20
-13.8563
 11
6.12019
 21
-13.8563
  0
LINE
  8
0
 10
6.12019
 20
-13.8563
 11
6.35536
 21
-13.9063
  0
LINE
  8
0
 10
6.35536
 20
-13.9063
 11
6.575
 21
-14.0041
  0
LINE
  8
0
 10
6.575
 20
-14.0041
 11
6.76949
 21
-14.1454
  0
LINE
  8
0
 10
6.76949
 20
-14.1454
 11
6.93036
 21
-14.324
  0
LINE
  8
0
 10
6.93036
 20
-14.324
 11
7.05057
 21
-14.5322
  0
LINE
  8
0
 10
7.05057
 20
-14.5322
 11
7.12486
 21
-14.7609
  0
LINE
  8
0
 10
7.12486
 20
-14.7609
 11
7.14999
 21
-15
  0
LINE
  8
0
 10
7.14999
 20
-15
 11
7.12486
 21
-15.2391
  0
LINE
  8
0
 10
7.12486
 20
-15.2391
 11
7.05057
 21
-15.4677
  0
LINE
  8
0
 10
7.05057
 20
-15.4677
 11
6.93036
 21
-15.6759
  0
LINE
  8
0
 10
6.93036
 20
-15.6759
 11
6.76949
 21
-15.8546
  0
LINE
  8
0
 10
6.76949
 20
-15.8546
 11
6.575
 21
-15.9959
  0
LINE
  8
0
 10
6.575
 20
-15.9959
 11
6.35536
 21
-16.0937
  0
LINE
  8
0
 10
6.35536
 20
-16.0937
 11
6.12019
 21
-16.1437
  0
LINE
  8
0
 10
6.12019
 20
-16.1437
 11
5.87979
 21
-16.1437
  0
LINE
  8
0
 10
51.8798
 20
-16.1437
 11
51.6446
 21
-16.0937
  0
LINE
  8
0
 10
51.6446
 20
-16.0937
 11
51.425
 21
-15.9959
  0
LINE
  8
0
 10
51.425
 20
-15.9959
 11
51.2305
 21
-15.8546
  0
LINE
  8
0
 10
51.2305
 20
-15.8546
 11
51.0696
 21
-15.6759
  0
LINE
  8
0
 10
51.0696
 20
-15.6759
 11
50.9494
 21
-15.4677
  0
LINE
  8
0
 10
50.9494
 20
-15.4677
 11
50.8751
 21
-15.2391
  0
LINE
  8
0
 10
50.8751
 20
-15.2391
 11
50.85
 21
-15
  0
LINE
  8
0
 10
50.85
 20
-15
 11
50.8751
 21
-14.7609
  0
LINE
  8
0
 10
50.8751
 20
-14.7609
 11
50.9494
 21
-14.5322
  0
LINE
  8
0
 10
50.9494
 20
-14.5322
 11
51.0696
 21
-14.324
  0
LINE
  8
0
 10
51.0696
 20
-14.324
 11
51.2305
 21
-14.1454
  0
LINE
  8
0
 10
51.2305
 20
-14.1454
 11
51.425
 21
-14.0041
  0
LINE
  8
0
 10
51.425
 20
-14.0041
 11
51.6446
 21
-13.9063
  0
LINE
  8
0
 10
51.6446
 20
-13.9063
 11
51.8798
 21
-13.8563
  0
LINE
  8
0
 10
51.8798
 20
-13.8563
 11
52.1202
 21
-13.8563
  0
LINE
  8
0
 10
52.1202
 20
-13.8563
 11
52.3554
 21
-13.9063
  0
LINE
  8
0
 10
52.3554
 20
-13.9063
 11
52.575
 21
-14.0041
  0
LINE
  8
0
 10
52.575
 20
-14.0041
 11
52.7695
 21
-14.1454
  0
LINE
  8
0
 10
52.7695
 20
-14.1454
 11
52.9304
 21
-14.324
  0
LINE
  8
0
 10
52.9304
 20
-14.324
 11
53.0506
 21
-14.5322
  0
LINE
  8
0
 10
53.0506
 20
-14.5322
 11
53.1249
 21
-14.7609
  0
LINE
  8
0
 10
53.1249
 20
-14.7609
 11
53.15
 21
-15
  0
LINE
  8
0
 10
53.15
 20
-15
 11
53.1249
 21
-15.2391
  0
LINE
  8
0
 10
53.1249
 20
-15.2391
 11
53.0506
 21
-15.4677
  0
LINE
  8
0
 10
53.0506
 20
-15.4677
 11
52.9304
 21
-15.6759
  0
LINE
  8
0
 10
52.9304
 20
-15.6759
 11
52.7695
 21
-15.8546
  0
LINE
  8
0
 10
52.7695
 20
-15.8546
 11
52.575
 21
-15.9959
  0
LINE
  8
0
 10
52.575
 20
-15.9959
 11
52.3554
 21
-16.0937
  0
LINE
  8
0
 10
52.3554
 20
-16.0937
 11
52.1202
 21
-16.1437
  0
LINE
  8
0
 10
52.1202
 20
-16.1437
 11
51.8798
 21
-16.1437
  0
LINE
  8
0
 10
122.88
 20
-28.1437
 11
122.645
 21
-28.0937
  0
LINE
  8
0
 10
122.645
 20
-28.0937
 11
122.425
 21
-27.9959
  0
LINE
  8
0
 10
122.425
 20
-27.9959
 11
122.23
 21
-27.8546
  0
LINE
  8
0
 10
122.23
 20
-27.8546
 11
122.07
 21
-27.6759
  0
LINE
  8
0
 10
122.07
 20
-27.6759
 11
121.949
 21
-27.4677
  0
LINE
  8
0
 10
121.949
 20
-27.4677
 11
121.875
 21
-27.2391
  0
LINE
  8
0
 10
121.875
 20
-27.2391
 11
121.85
 21
-27
  0
LINE
  8
0
 10
121.85
 20
-27
 11
121.875
 21
-26.7609
  0
LINE
  8
0
 10
121.875
 20
-26.7609
 11
121.949
 21
-26.5322
  0
LINE
  8
0
 10
121.949
 20
-26.5322
 11
122.07
 21
-26.324
  0
LINE
  8
0
 10
122.07
 20
-26.324
 11
122.23
 21
-26.1454
  0
LINE
  8
0
 10
122.23
 20
-26.1454
 11
122.425
 21
-26.0041
  0
LINE
  8
0
 10
122.425
 20
-26.0041
 11
122.645
 21
-25.9063
  0
LINE
  8
0
 10
122.645
 20
-25.9063
 11
122.88
 21
-25.8563
  0
LINE
  8
0
 10
122.88
 20
-25.8563
 11
123.12
 21
-25.8563
  0
LINE
  8
0
 10
123.12
 20
-25.8563
 11
123.355
 21
-25.9063
  0
LINE
  8
0
 10
123.355
 20
-25.9063
 11
123.575
 21
-26.0041
  0
LINE
  8
0
 10
123.575
 20
-26.0041
 11
123.769
 21
-26.1454
  0
LINE
  8
0
 10
123.769
 20
-26.1454
 11
123.93
 21
-26.324
  0
LINE
  8
0
 10
123.93
 20
-26.324
 11
124.051
 21
-26.5322
  0
LINE
  8
0
 10
124.051
 20
-26.5322
 11
124.125
 21
-26.7609
  0
LINE
  8
0
 10
124.125
 20
-26.7609
 11
124.15
 21
-27
  0
LINE
  8
0
 10
124.15
 20
-27
 11
124.125
 21
-27.2391
  0
LINE
  8
0
 10
124.125
 20
-27.2391
 11
124.051
 21
-27.4677
  0
LINE
  8
0
 10
124.051
 20
-27.4677
 11
123.93
 21
-27.6759
  0
LINE
  8
0
 10
123.93
 20
-27.6759
 11
123.769
 21
-27.8546
  0
LINE
  8
0
 10
123.769
 20
-27.8546
 11
123.575
 21
-27.9959
  0
LINE
  8
0
 10
123.575
 20
-27.9959
 11
123.355
 21
-28.0937
  0
LINE
  8
0
 10
123.355
 20
-28.0937
 11
123.12
 21
-28.1437
  0
LINE
  8
0
 10
123.12
 20
-28.1437
 11
122.88
 21
-28.1437
  0
ENDSEC
  0
SECTION
  2
OBJECTS
  0
DICTIONARY
  0
ENDSEC
  0
EOF
