  0
SECTION
  2
HEADER
  9
$ANGBASE
  50
0.0
  9
$ANGDIR
  70
1
  9
$MEASUREMENT
  70
0
  0
ENDSEC
  0
SECTION
  2
TABLES
  0
TABLE
  2
LTYPE
  70
4
  0
LTYPE
  5
40F
  2
CONTINUOUS
  70
0
  3
Solid line
  72
65
  73
0
  40
0.0
  0
LTYPE
  5
410
  2
DASHDOT
 70
0
  3
Dash Dot ____ _ ____ _
 72
65
 73
4
 40
2.0
 49
1.25
 49
-0.25
 49
0.25
 49
-0.25
  0
LTYPE
  5
411
  2
DASHED
 70
0
  3
Dashed __ __ __ __ __
 72
65
 73
2
 40
0.75
 49
0.5
 49
-0.25
  0
LTYPE
  5
43B
  2
DOTTED
 70
0
  3
Dotted .  .  .  .
 72
65
 73
2
 40
0.2
 49
0.0
 49
-0.2
  0
ENDTAB
  0
TABLE
  2
STYLE
  70
4
  0
STYLE
  2
KICAD
  70
0
  40
0
  41
1
  42
1
  50
0
  71
0
  3
isocp.shx
  0
STYLE
  2
KICADB
  70
0
  40
0
  41
1
  42
1
  50
0
  71
0
  3
isocp.shx
  0
STYLE
  2
KICADI
  70
0
  40
0
  41
1
  42
1
  50
15
  71
0
  3
isocp.shx
  0
STYLE
  2
KICADBI
  70
0
  40
0
  41
1
  42
1
  50
15
  71
0
  3
isocp.shx
  0
ENDTAB
  0
TABLE
  2
LAYER
  70
1
  0
LAYER
  2
BLACK
  70
0
  62
7
  6
CONTINUOUS
  0
ENDTAB
  0
ENDSEC
  0
SECTION
  2
ENTITIES
0
LINE
8
BLACK
6
CONTINUOUS
10
5.05906
20
-2.5
11
5.82677
21
-2.5
0
LINE
8
BLACK
6
CONTINUOUS
10
5.82677
20
-2.5
11
5.82677
21
-1.1925
0
LINE
8
BLACK
6
CONTINUOUS
10
5.69
20
-4.18
11
5.69
21
-3.35
0
LINE
8
BLACK
6
CONTINUOUS
10
6.08
20
-4.18
11
5.69
21
-4.18
0
LINE
8
BLACK
6
CONTINUOUS
10
6.08
20
-3.35
11
6.08
21
-4.18
0
LINE
8
BLACK
6
CONTINUOUS
10
5.69
20
-3.35
11
6.08
21
-3.35
0
LINE
8
BLACK
6
CONTINUOUS
10
5.3937
20
-3.09055
11
5.3937
21
-2.93307
0
LINE
8
BLACK
6
CONTINUOUS
10
5.3937
20
-3.26772
11
5.59055
21
-3.46457
0
LINE
8
BLACK
6
CONTINUOUS
10
5.3937
20
-3.09055
11
5.3937
21
-3.26772
0
LINE
8
BLACK
6
CONTINUOUS
10
5.05906
20
-2.59843
11
5.3937
21
-2.93307
0
LINE
8
BLACK
6
CONTINUOUS
10
5.59055
20
-3.46457
11
5.59055
21
-3.66142
0
LINE
8
BLACK
6
CONTINUOUS
10
5.59055
20
-3.66142
11
5.59055
21
-4.24
0
LINE
8
BLACK
6
CONTINUOUS
10
5.05906
20
-2.59843
11
5.05906
21
-2.5
0
LINE
8
BLACK
6
CONTINUOUS
10
11.4875
20
-2.905
11
11.4875
21
-2.155
0
LINE
8
BLACK
6
CONTINUOUS
10
5.885
20
-1.1925
11
5.82677
21
-1.1925
0
LINE
8
BLACK
6
CONTINUOUS
10
5.885
20
-1.1925
11
9.0975
21
-0.625
0
LINE
8
BLACK
6
CONTINUOUS
10
5.59055
20
-4.24
11
5.865
21
-4.24
0
LINE
8
BLACK
6
CONTINUOUS
10
11.22
20
-0.625
11
9.0975
21
-0.625
0
LINE
8
BLACK
6
CONTINUOUS
10
11.4875
20
-2.155
11
11.22
21
-0.625
0
LINE
8
BLACK
6
CONTINUOUS
10
11.36
20
-3.655
11
11.4875
21
-2.905
0
LINE
8
BLACK
6
CONTINUOUS
10
9.17
20
-3.655
11
11.36
21
-3.655
0
LINE
8
BLACK
6
CONTINUOUS
10
5.865
20
-4.24
11
9.17
21
-3.655
0
LINE
8
BLACK
6
CONTINUOUS
10
10.6154
20
-3.55594
11
10.6154
21
-3.00476
0
LINE
8
BLACK
6
CONTINUOUS
10
11.1665
20
-3.55594
11
10.6154
21
-3.55594
0
LINE
8
BLACK
6
CONTINUOUS
10
11.1665
20
-3.00476
11
11.1665
21
-3.55594
0
LINE
8
BLACK
6
CONTINUOUS
10
10.6154
20
-3.00476
11
11.1665
21
-3.00476
0
LINE
8
BLACK
6
CONTINUOUS
10
9.67656
20
-3.55594
11
9.67656
21
-3.00476
0
LINE
8
BLACK
6
CONTINUOUS
10
10.2277
20
-3.55594
11
9.67656
21
-3.55594
0
LINE
8
BLACK
6
CONTINUOUS
10
10.2277
20
-3.00476
11
10.2277
21
-3.55594
0
LINE
8
BLACK
6
CONTINUOUS
10
9.67656
20
-3.00476
11
10.2277
21
-3.00476
0
LINE
8
BLACK
6
CONTINUOUS
10
6.39373
20
-4.04442
11
6.29802
21
-3.50161
0
LINE
8
BLACK
6
CONTINUOUS
10
6.93654
20
-3.94871
11
6.39373
21
-4.04442
0
LINE
8
BLACK
6
CONTINUOUS
10
6.84082
20
-3.4059
11
6.93654
21
-3.94871
0
LINE
8
BLACK
6
CONTINUOUS
10
6.29802
20
-3.50161
11
6.84082
21
-3.4059
0
LINE
8
BLACK
6
CONTINUOUS
10
10.7434
20
-2.80509
11
10.7434
21
-2.25391
0
LINE
8
BLACK
6
CONTINUOUS
10
11.2946
20
-2.80509
11
10.7434
21
-2.80509
0
LINE
8
BLACK
6
CONTINUOUS
10
11.2946
20
-2.25391
11
11.2946
21
-2.80509
0
LINE
8
BLACK
6
CONTINUOUS
10
10.7434
20
-2.25391
11
11.2946
21
-2.25391
0
LINE
8
BLACK
6
CONTINUOUS
10
10.4202
20
-2.04208
11
10.4202
21
-1.4909
0
LINE
8
BLACK
6
CONTINUOUS
10
10.9713
20
-2.04208
11
10.4202
21
-2.04208
0
LINE
8
BLACK
6
CONTINUOUS
10
10.9713
20
-1.4909
11
10.9713
21
-2.04208
0
LINE
8
BLACK
6
CONTINUOUS
10
10.4202
20
-1.4909
11
10.9713
21
-1.4909
0
LINE
8
BLACK
6
CONTINUOUS
10
7.96327
20
-3.76767
11
7.86755
21
-3.22486
0
LINE
8
BLACK
6
CONTINUOUS
10
8.50607
20
-3.67195
11
7.96327
21
-3.76767
0
LINE
8
BLACK
6
CONTINUOUS
10
8.41036
20
-3.12915
11
8.50607
21
-3.67195
0
LINE
8
BLACK
6
CONTINUOUS
10
7.86755
20
-3.22486
11
8.41036
21
-3.12915
0
LINE
8
BLACK
6
CONTINUOUS
10
7.22466
20
-3.8979
11
7.12895
21
-3.35509
0
LINE
8
BLACK
6
CONTINUOUS
10
7.76747
20
-3.80219
11
7.22466
21
-3.8979
0
LINE
8
BLACK
6
CONTINUOUS
10
7.67176
20
-3.25938
11
7.76747
21
-3.80219
0
LINE
8
BLACK
6
CONTINUOUS
10
7.12895
20
-3.35509
11
7.67176
21
-3.25938
0
LINE
8
BLACK
6
CONTINUOUS
10
10.5684
20
-1.27609
11
10.5684
21
-0.724909
0
LINE
8
BLACK
6
CONTINUOUS
10
11.1196
20
-1.27609
11
10.5684
21
-1.27609
0
LINE
8
BLACK
6
CONTINUOUS
10
11.1196
20
-0.724909
11
11.1196
21
-1.27609
0
LINE
8
BLACK
6
CONTINUOUS
10
10.5684
20
-0.724909
11
11.1196
21
-0.724909
0
LINE
8
BLACK
6
CONTINUOUS
10
9.89991
20
-2.80509
11
9.89991
21
-2.25391
0
LINE
8
BLACK
6
CONTINUOUS
10
10.4511
20
-2.80509
11
9.89991
21
-2.80509
0
LINE
8
BLACK
6
CONTINUOUS
10
10.4511
20
-2.25391
11
10.4511
21
-2.80509
0
LINE
8
BLACK
6
CONTINUOUS
10
9.89991
20
-2.25391
11
10.4511
21
-2.25391
0
LINE
8
BLACK
6
CONTINUOUS
10
9.81641
20
-1.27509
11
9.81641
21
-0.723909
0
LINE
8
BLACK
6
CONTINUOUS
10
10.3676
20
-1.27509
11
9.81641
21
-1.27509
0
LINE
8
BLACK
6
CONTINUOUS
10
10.3676
20
-0.723909
11
10.3676
21
-1.27509
0
LINE
8
BLACK
6
CONTINUOUS
10
9.81641
20
-0.723909
11
10.3676
21
-0.723909
0
LINE
8
BLACK
6
CONTINUOUS
10
9.14941
20
-2.80509
11
9.14941
21
-2.25391
0
LINE
8
BLACK
6
CONTINUOUS
10
9.70059
20
-2.80509
11
9.14941
21
-2.80509
0
LINE
8
BLACK
6
CONTINUOUS
10
9.70059
20
-2.25391
11
9.70059
21
-2.80509
0
LINE
8
BLACK
6
CONTINUOUS
10
9.14941
20
-2.25391
11
9.70059
21
-2.25391
0
LINE
8
BLACK
6
CONTINUOUS
10
9.3896
20
-2.04268
11
9.3896
21
-1.4915
0
LINE
8
BLACK
6
CONTINUOUS
10
9.94078
20
-2.04268
11
9.3896
21
-2.04268
0
LINE
8
BLACK
6
CONTINUOUS
10
9.94078
20
-1.4915
11
9.94078
21
-2.04268
0
LINE
8
BLACK
6
CONTINUOUS
10
9.3896
20
-1.4915
11
9.94078
21
-1.4915
0
LINE
8
BLACK
6
CONTINUOUS
10
9.06641
20
-1.27539
11
9.06641
21
-0.724209
0
LINE
8
BLACK
6
CONTINUOUS
10
9.61759
20
-1.27539
11
9.06641
21
-1.27539
0
LINE
8
BLACK
6
CONTINUOUS
10
9.61759
20
-0.724209
11
9.61759
21
-1.27539
0
LINE
8
BLACK
6
CONTINUOUS
10
9.06641
20
-0.724209
11
9.61759
21
-0.724209
0
LINE
8
BLACK
6
CONTINUOUS
10
8.38699
20
-2.93139
11
8.29127
21
-2.38858
0
LINE
8
BLACK
6
CONTINUOUS
10
8.92979
20
-2.83567
11
8.38699
21
-2.93139
0
LINE
8
BLACK
6
CONTINUOUS
10
8.83408
20
-2.29287
11
8.92979
21
-2.83567
0
LINE
8
BLACK
6
CONTINUOUS
10
8.29127
20
-2.38858
11
8.83408
21
-2.29287
0
LINE
8
BLACK
6
CONTINUOUS
10
8.62605
20
-2.12767
11
8.53034
21
-1.58486
0
LINE
8
BLACK
6
CONTINUOUS
10
9.16886
20
-2.03195
11
8.62605
21
-2.12767
0
LINE
8
BLACK
6
CONTINUOUS
10
9.07315
20
-1.48915
11
9.16886
21
-2.03195
0
LINE
8
BLACK
6
CONTINUOUS
10
8.53034
20
-1.58486
11
9.07315
21
-1.48915
0
LINE
8
BLACK
6
CONTINUOUS
10
8.31117
20
-1.42162
11
8.21546
21
-0.878814
0
LINE
8
BLACK
6
CONTINUOUS
10
8.85397
20
-1.32591
11
8.31117
21
-1.42162
0
LINE
8
BLACK
6
CONTINUOUS
10
8.75826
20
-0.783103
11
8.85397
21
-1.32591
0
LINE
8
BLACK
6
CONTINUOUS
10
8.21546
20
-0.878814
11
8.75826
21
-0.783103
0
LINE
8
BLACK
6
CONTINUOUS
10
7.64838
20
-3.06162
11
7.55267
21
-2.51881
0
LINE
8
BLACK
6
CONTINUOUS
10
8.19119
20
-2.96591
11
7.64838
21
-3.06162
0
LINE
8
BLACK
6
CONTINUOUS
10
8.09548
20
-2.4231
11
8.19119
21
-2.96591
0
LINE
8
BLACK
6
CONTINUOUS
10
7.55267
20
-2.51881
11
8.09548
21
-2.4231
0
LINE
8
BLACK
6
CONTINUOUS
10
7.88745
20
-2.2579
11
7.79174
21
-1.71509
0
LINE
8
BLACK
6
CONTINUOUS
10
8.43025
20
-2.16219
11
7.88745
21
-2.2579
0
LINE
8
BLACK
6
CONTINUOUS
10
8.33454
20
-1.61938
11
8.43025
21
-2.16219
0
LINE
8
BLACK
6
CONTINUOUS
10
7.79174
20
-1.71509
11
8.33454
21
-1.61938
0
LINE
8
BLACK
6
CONTINUOUS
10
7.57256
20
-1.55186
11
7.47685
21
-1.00905
0
LINE
8
BLACK
6
CONTINUOUS
10
8.11537
20
-1.45615
11
7.57256
21
-1.55186
0
LINE
8
BLACK
6
CONTINUOUS
10
8.01966
20
-0.913339
11
8.11537
21
-1.45615
0
LINE
8
BLACK
6
CONTINUOUS
10
7.47685
20
-1.00905
11
8.01966
21
-0.913339
0
LINE
8
BLACK
6
CONTINUOUS
10
6.90977
20
-3.19186
11
6.81406
21
-2.64905
0
LINE
8
BLACK
6
CONTINUOUS
10
7.45258
20
-3.09615
11
6.90977
21
-3.19186
0
LINE
8
BLACK
6
CONTINUOUS
10
7.35687
20
-2.55334
11
7.45258
21
-3.09615
0
LINE
8
BLACK
6
CONTINUOUS
10
6.81406
20
-2.64905
11
7.35687
21
-2.55334
0
LINE
8
BLACK
6
CONTINUOUS
10
7.14884
20
-2.38814
11
7.05313
21
-1.84533
0
LINE
8
BLACK
6
CONTINUOUS
10
7.69165
20
-2.29243
11
7.14884
21
-2.38814
0
LINE
8
BLACK
6
CONTINUOUS
10
7.59594
20
-1.74962
11
7.69165
21
-2.29243
0
LINE
8
BLACK
6
CONTINUOUS
10
7.05313
20
-1.84533
11
7.59594
21
-1.74962
0
LINE
8
BLACK
6
CONTINUOUS
10
6.83396
20
-1.68209
11
6.73824
21
-1.13929
0
LINE
8
BLACK
6
CONTINUOUS
10
7.37676
20
-1.58638
11
6.83396
21
-1.68209
0
LINE
8
BLACK
6
CONTINUOUS
10
7.28105
20
-1.04357
11
7.37676
21
-1.58638
0
LINE
8
BLACK
6
CONTINUOUS
10
6.73824
20
-1.13929
11
7.28105
21
-1.04357
0
LINE
8
BLACK
6
CONTINUOUS
10
6.17117
20
-3.32209
11
6.07546
21
-2.77929
0
LINE
8
BLACK
6
CONTINUOUS
10
6.71398
20
-3.22638
11
6.17117
21
-3.32209
0
LINE
8
BLACK
6
CONTINUOUS
10
6.61826
20
-2.68358
11
6.71398
21
-3.22638
0
LINE
8
BLACK
6
CONTINUOUS
10
6.07546
20
-2.77929
11
6.61826
21
-2.68358
0
LINE
8
BLACK
6
CONTINUOUS
10
6.41024
20
-2.51837
11
6.31452
21
-1.97557
0
LINE
8
BLACK
6
CONTINUOUS
10
6.95304
20
-2.42266
11
6.41024
21
-2.51837
0
LINE
8
BLACK
6
CONTINUOUS
10
6.85733
20
-1.87985
11
6.95304
21
-2.42266
0
LINE
8
BLACK
6
CONTINUOUS
10
6.31452
20
-1.97557
11
6.85733
21
-1.87985
0
LINE
8
BLACK
6
CONTINUOUS
10
6.09535
20
-1.81233
11
5.99964
21
-1.26952
0
LINE
8
BLACK
6
CONTINUOUS
10
6.63816
20
-1.71662
11
6.09535
21
-1.81233
0
LINE
8
BLACK
6
CONTINUOUS
10
6.54245
20
-1.17381
11
6.63816
21
-1.71662
0
LINE
8
BLACK
6
CONTINUOUS
10
5.99964
20
-1.26952
11
6.54245
21
-1.17381
  0
ENDSEC
  0
EOF
