  0
SECTION
  2
BLOCKS
  0
ENDSEC
  0
SECTION
  2
ENTITIES
  0
LINE
  8
0
 10
150.016
 20
-113.604
 11
233.445
 21
-98.8369
  0
LINE
  8
0
 10
233.445
 20
-98.8369
 11
288.544
 21
-98.8369
  0
LINE
  8
0
 10
288.544
 20
-98.8369
 11
290.492
 21
-98.5118
  0
LINE
  8
0
 10
290.492
 20
-98.5118
 11
292.229
 21
-97.5718
  0
LINE
  8
0
 10
292.229
 20
-97.5718
 11
293.567
 21
-96.1186
  0
LINE
  8
0
 10
293.567
 20
-96.1186
 11
294.459
 21
-93.8424
  0
LINE
  8
0
 10
294.459
 20
-93.8424
 11
297.697
 21
-74.7926
  0
LINE
  8
0
 10
297.697
 20
-74.7926
 11
297.782
 21
-73.7871
  0
LINE
  8
0
 10
297.782
 20
-73.7871
 11
297.782
 21
-54.7373
  0
LINE
  8
0
 10
297.782
 20
-54.7373
 11
297.693
 21
-53.7041
  0
LINE
  8
0
 10
297.693
 20
-53.7041
 11
290.899
 21
-14.8418
  0
LINE
  8
0
 10
290.899
 20
-14.8418
 11
290.243
 21
-12.9786
  0
LINE
  8
0
 10
290.243
 20
-12.9786
 11
289.018
 21
-11.4294
  0
LINE
  8
0
 10
289.018
 20
-11.4294
 11
287.356
 21
-10.3619
  0
LINE
  8
0
 10
287.356
 20
-10.3619
 11
284.988
 21
-9.875
  0
LINE
  8
0
 10
284.988
 20
-9.875
 11
231.076
 21
-9.875
  0
LINE
  8
0
 10
231.076
 20
-9.875
 11
230.032
 21
-9.96648
  0
LINE
  8
0
 10
230.032
 20
-9.96648
 11
148.953
 21
-24.2891
  0
LINE
  8
0
 10
148.953
 20
-24.2891
 11
124.095
 21
-24.2891
  0
LINE
  8
0
 10
124.095
 20
-24.2891
 11
49.2367
 21
-11.1085
  0
LINE
  8
0
 10
49.2367
 20
-11.1085
 11
48.1963
 21
-11.0176
  0
LINE
  8
0
 10
48.1963
 20
-11.0176
 11
7.1123
 21
-11.0176
  0
LINE
  8
0
 10
7.1123
 20
-11.0176
 11
5.16411
 21
-11.3427
  0
LINE
  8
0
 10
5.16411
 20
-11.3427
 11
3.42703
 21
-12.2827
  0
LINE
  8
0
 10
3.42703
 20
-12.2827
 11
2.08931
 21
-13.7359
  0
LINE
  8
0
 10
2.08931
 20
-13.7359
 11
1.20834
 21
-15.9484
  0
LINE
  8
0
 10
1.20834
 20
-15.9484
 11
-5.96744
 21
-55.5724
  0
LINE
  8
0
 10
-5.96744
 20
-55.5724
 11
-6.06348
 21
-56.6416
  0
LINE
  8
0
 10
-6.06348
 20
-56.6416
 11
-6.06348
 21
-75.6924
  0
LINE
  8
0
 10
-6.06348
 20
-75.6924
 11
-6.01836
 21
-76.4269
  0
LINE
  8
0
 10
-6.01836
 20
-76.4269
 11
-3.66875
 21
-95.4767
  0
LINE
  8
0
 10
-3.66875
 20
-95.4767
 11
-3.1076
 21
-97.3704
  0
LINE
  8
0
 10
-3.1076
 20
-97.3704
 11
-1.96198
 21
-98.9794
  0
LINE
  8
0
 10
-1.96198
 20
-98.9794
 11
-0.356003
 21
-100.129
  0
LINE
  8
0
 10
-0.356003
 20
-100.129
 11
2.28613
 21
-100.742
  0
LINE
  8
0
 10
2.28613
 20
-100.742
 11
49.6442
 21
-100.742
  0
LINE
  8
0
 10
49.6442
 20
-100.742
 11
123.172
 21
-113.607
  0
LINE
  8
0
 10
123.172
 20
-113.607
 11
124.206
 21
-113.696
  0
LINE
  8
0
 10
124.206
 20
-113.696
 11
148.971
 21
-113.696
  0
LINE
  8
0
 10
148.971
 20
-113.696
 11
150.016
 21
-113.604
  0
LINE
  8
0
 10
229.88
 20
-14.1437
 11
229.645
 21
-14.0937
  0
LINE
  8
0
 10
229.645
 20
-14.0937
 11
229.425
 21
-13.9959
  0
LINE
  8
0
 10
229.425
 20
-13.9959
 11
229.23
 21
-13.8546
  0
LINE
  8
0
 10
229.23
 20
-13.8546
 11
229.07
 21
-13.6759
  0
LINE
  8
0
 10
229.07
 20
-13.6759
 11
228.949
 21
-13.4677
  0
LINE
  8
0
 10
228.949
 20
-13.4677
 11
228.875
 21
-13.2391
  0
LINE
  8
0
 10
228.875
 20
-13.2391
 11
228.85
 21
-13
  0
LINE
  8
0
 10
228.85
 20
-13
 11
228.875
 21
-12.7609
  0
LINE
  8
0
 10
228.875
 20
-12.7609
 11
228.949
 21
-12.5322
  0
LINE
  8
0
 10
228.949
 20
-12.5322
 11
229.07
 21
-12.324
  0
LINE
  8
0
 10
229.07
 20
-12.324
 11
229.23
 21
-12.1454
  0
LINE
  8
0
 10
229.23
 20
-12.1454
 11
229.425
 21
-12.0041
  0
LINE
  8
0
 10
229.425
 20
-12.0041
 11
229.645
 21
-11.9063
  0
LINE
  8
0
 10
229.645
 20
-11.9063
 11
229.88
 21
-11.8563
  0
LINE
  8
0
 10
229.88
 20
-11.8563
 11
230.12
 21
-11.8563
  0
LINE
  8
0
 10
230.12
 20
-11.8563
 11
230.355
 21
-11.9063
  0
LINE
  8
0
 10
230.355
 20
-11.9063
 11
230.575
 21
-12.0041
  0
LINE
  8
0
 10
230.575
 20
-12.0041
 11
230.769
 21
-12.1454
  0
LINE
  8
0
 10
230.769
 20
-12.1454
 11
230.93
 21
-12.324
  0
LINE
  8
0
 10
230.93
 20
-12.324
 11
231.051
 21
-12.5322
  0
LINE
  8
0
 10
231.051
 20
-12.5322
 11
231.125
 21
-12.7609
  0
LINE
  8
0
 10
231.125
 20
-12.7609
 11
231.15
 21
-13
  0
LINE
  8
0
 10
231.15
 20
-13
 11
231.125
 21
-13.2391
  0
LINE
  8
0
 10
231.125
 20
-13.2391
 11
231.051
 21
-13.4677
  0
LINE
  8
0
 10
231.051
 20
-13.4677
 11
230.93
 21
-13.6759
  0
LINE
  8
0
 10
230.93
 20
-13.6759
 11
230.769
 21
-13.8546
  0
LINE
  8
0
 10
230.769
 20
-13.8546
 11
230.575
 21
-13.9959
  0
LINE
  8
0
 10
230.575
 20
-13.9959
 11
230.355
 21
-14.0937
  0
LINE
  8
0
 10
230.355
 20
-14.0937
 11
230.12
 21
-14.1437
  0
LINE
  8
0
 10
230.12
 20
-14.1437
 11
229.88
 21
-14.1437
  0
LINE
  8
0
 10
285.88
 20
-14.1437
 11
285.645
 21
-14.0937
  0
LINE
  8
0
 10
285.645
 20
-14.0937
 11
285.425
 21
-13.9959
  0
LINE
  8
0
 10
285.425
 20
-13.9959
 11
285.23
 21
-13.8546
  0
LINE
  8
0
 10
285.23
 20
-13.8546
 11
285.07
 21
-13.6759
  0
LINE
  8
0
 10
285.07
 20
-13.6759
 11
284.949
 21
-13.4677
  0
LINE
  8
0
 10
284.949
 20
-13.4677
 11
284.875
 21
-13.2391
  0
LINE
  8
0
 10
284.875
 20
-13.2391
 11
284.85
 21
-13
  0
LINE
  8
0
 10
284.85
 20
-13
 11
284.875
 21
-12.7609
  0
LINE
  8
0
 10
284.875
 20
-12.7609
 11
284.949
 21
-12.5322
  0
LINE
  8
0
 10
284.949
 20
-12.5322
 11
285.07
 21
-12.324
  0
LINE
  8
0
 10
285.07
 20
-12.324
 11
285.23
 21
-12.1454
  0
LINE
  8
0
 10
285.23
 20
-12.1454
 11
285.425
 21
-12.0041
  0
LINE
  8
0
 10
285.425
 20
-12.0041
 11
285.645
 21
-11.9063
  0
LINE
  8
0
 10
285.645
 20
-11.9063
 11
285.88
 21
-11.8563
  0
LINE
  8
0
 10
285.88
 20
-11.8563
 11
286.12
 21
-11.8563
  0
LINE
  8
0
 10
286.12
 20
-11.8563
 11
286.355
 21
-11.9063
  0
LINE
  8
0
 10
286.355
 20
-11.9063
 11
286.575
 21
-12.0041
  0
LINE
  8
0
 10
286.575
 20
-12.0041
 11
286.769
 21
-12.1454
  0
LINE
  8
0
 10
286.769
 20
-12.1454
 11
286.93
 21
-12.324
  0
LINE
  8
0
 10
286.93
 20
-12.324
 11
287.051
 21
-12.5322
  0
LINE
  8
0
 10
287.051
 20
-12.5322
 11
287.125
 21
-12.7609
  0
LINE
  8
0
 10
287.125
 20
-12.7609
 11
287.15
 21
-13
  0
LINE
  8
0
 10
287.15
 20
-13
 11
287.125
 21
-13.2391
  0
LINE
  8
0
 10
287.125
 20
-13.2391
 11
287.051
 21
-13.4677
  0
LINE
  8
0
 10
287.051
 20
-13.4677
 11
286.93
 21
-13.6759
  0
LINE
  8
0
 10
286.93
 20
-13.6759
 11
286.769
 21
-13.8546
  0
LINE
  8
0
 10
286.769
 20
-13.8546
 11
286.575
 21
-13.9959
  0
LINE
  8
0
 10
286.575
 20
-13.9959
 11
286.355
 21
-14.0937
  0
LINE
  8
0
 10
286.355
 20
-14.0937
 11
286.12
 21
-14.1437
  0
LINE
  8
0
 10
286.12
 20
-14.1437
 11
285.88
 21
-14.1437
  0
LINE
  8
0
 10
5.87979
 20
-16.1437
 11
5.64462
 21
-16.0937
  0
LINE
  8
0
 10
5.64462
 20
-16.0937
 11
5.42499
 21
-15.9959
  0
LINE
  8
0
 10
5.42499
 20
-15.9959
 11
5.2305
 21
-15.8546
  0
LINE
  8
0
 10
5.2305
 20
-15.8546
 11
5.06963
 21
-15.6759
  0
LINE
  8
0
 10
5.06963
 20
-15.6759
 11
4.94942
 21
-15.4677
  0
LINE
  8
0
 10
4.94942
 20
-15.4677
 11
4.87512
 21
-15.2391
  0
LINE
  8
0
 10
4.87512
 20
-15.2391
 11
4.84999
 21
-15
  0
LINE
  8
0
 10
4.84999
 20
-15
 11
4.87512
 21
-14.7609
  0
LINE
  8
0
 10
4.87512
 20
-14.7609
 11
4.94942
 21
-14.5322
  0
LINE
  8
0
 10
4.94942
 20
-14.5322
 11
5.06963
 21
-14.324
  0
LINE
  8
0
 10
5.06963
 20
-14.324
 11
5.2305
 21
-14.1454
  0
LINE
  8
0
 10
5.2305
 20
-14.1454
 11
5.42499
 21
-14.0041
  0
LINE
  8
0
 10
5.42499
 20
-14.0041
 11
5.64462
 21
-13.9063
  0
LINE
  8
0
 10
5.64462
 20
-13.9063
 11
5.87979
 21
-13.8563
  0
LINE
  8
0
 10
5.87979
 20
-13.8563
 11
6.12019
 21
-13.8563
  0
LINE
  8
0
 10
6.12019
 20
-13.8563
 11
6.35536
 21
-13.9063
  0
LINE
  8
0
 10
6.35536
 20
-13.9063
 11
6.575
 21
-14.0041
  0
LINE
  8
0
 10
6.575
 20
-14.0041
 11
6.76949
 21
-14.1454
  0
LINE
  8
0
 10
6.76949
 20
-14.1454
 11
6.93036
 21
-14.324
  0
LINE
  8
0
 10
6.93036
 20
-14.324
 11
7.05057
 21
-14.5322
  0
LINE
  8
0
 10
7.05057
 20
-14.5322
 11
7.12486
 21
-14.7609
  0
LINE
  8
0
 10
7.12486
 20
-14.7609
 11
7.14999
 21
-15
  0
LINE
  8
0
 10
7.14999
 20
-15
 11
7.12486
 21
-15.2391
  0
LINE
  8
0
 10
7.12486
 20
-15.2391
 11
7.05057
 21
-15.4677
  0
LINE
  8
0
 10
7.05057
 20
-15.4677
 11
6.93036
 21
-15.6759
  0
LINE
  8
0
 10
6.93036
 20
-15.6759
 11
6.76949
 21
-15.8546
  0
LINE
  8
0
 10
6.76949
 20
-15.8546
 11
6.575
 21
-15.9959
  0
LINE
  8
0
 10
6.575
 20
-15.9959
 11
6.35536
 21
-16.0937
  0
LINE
  8
0
 10
6.35536
 20
-16.0937
 11
6.12019
 21
-16.1437
  0
LINE
  8
0
 10
6.12019
 20
-16.1437
 11
5.87979
 21
-16.1437
  0
LINE
  8
0
 10
51.8798
 20
-16.1437
 11
51.6446
 21
-16.0937
  0
LINE
  8
0
 10
51.6446
 20
-16.0937
 11
51.425
 21
-15.9959
  0
LINE
  8
0
 10
51.425
 20
-15.9959
 11
51.2305
 21
-15.8546
  0
LINE
  8
0
 10
51.2305
 20
-15.8546
 11
51.0696
 21
-15.6759
  0
LINE
  8
0
 10
51.0696
 20
-15.6759
 11
50.9494
 21
-15.4677
  0
LINE
  8
0
 10
50.9494
 20
-15.4677
 11
50.8751
 21
-15.2391
  0
LINE
  8
0
 10
50.8751
 20
-15.2391
 11
50.85
 21
-15
  0
LINE
  8
0
 10
50.85
 20
-15
 11
50.8751
 21
-14.7609
  0
LINE
  8
0
 10
50.8751
 20
-14.7609
 11
50.9494
 21
-14.5322
  0
LINE
  8
0
 10
50.9494
 20
-14.5322
 11
51.0696
 21
-14.324
  0
LINE
  8
0
 10
51.0696
 20
-14.324
 11
51.2305
 21
-14.1454
  0
LINE
  8
0
 10
51.2305
 20
-14.1454
 11
51.425
 21
-14.0041
  0
LINE
  8
0
 10
51.425
 20
-14.0041
 11
51.6446
 21
-13.9063
  0
LINE
  8
0
 10
51.6446
 20
-13.9063
 11
51.8798
 21
-13.8563
  0
LINE
  8
0
 10
51.8798
 20
-13.8563
 11
52.1202
 21
-13.8563
  0
LINE
  8
0
 10
52.1202
 20
-13.8563
 11
52.3554
 21
-13.9063
  0
LINE
  8
0
 10
52.3554
 20
-13.9063
 11
52.575
 21
-14.0041
  0
LINE
  8
0
 10
52.575
 20
-14.0041
 11
52.7695
 21
-14.1454
  0
LINE
  8
0
 10
52.7695
 20
-14.1454
 11
52.9304
 21
-14.324
  0
LINE
  8
0
 10
52.9304
 20
-14.324
 11
53.0506
 21
-14.5322
  0
LINE
  8
0
 10
53.0506
 20
-14.5322
 11
53.1249
 21
-14.7609
  0
LINE
  8
0
 10
53.1249
 20
-14.7609
 11
53.15
 21
-15
  0
LINE
  8
0
 10
53.15
 20
-15
 11
53.1249
 21
-15.2391
  0
LINE
  8
0
 10
53.1249
 20
-15.2391
 11
53.0506
 21
-15.4677
  0
LINE
  8
0
 10
53.0506
 20
-15.4677
 11
52.9304
 21
-15.6759
  0
LINE
  8
0
 10
52.9304
 20
-15.6759
 11
52.7695
 21
-15.8546
  0
LINE
  8
0
 10
52.7695
 20
-15.8546
 11
52.575
 21
-15.9959
  0
LINE
  8
0
 10
52.575
 20
-15.9959
 11
52.3554
 21
-16.0937
  0
LINE
  8
0
 10
52.3554
 20
-16.0937
 11
52.1202
 21
-16.1437
  0
LINE
  8
0
 10
52.1202
 20
-16.1437
 11
51.8798
 21
-16.1437
  0
LINE
  8
0
 10
122.88
 20
-28.1437
 11
122.645
 21
-28.0937
  0
LINE
  8
0
 10
122.645
 20
-28.0937
 11
122.425
 21
-27.9959
  0
LINE
  8
0
 10
122.425
 20
-27.9959
 11
122.23
 21
-27.8546
  0
LINE
  8
0
 10
122.23
 20
-27.8546
 11
122.07
 21
-27.6759
  0
LINE
  8
0
 10
122.07
 20
-27.6759
 11
121.949
 21
-27.4677
  0
LINE
  8
0
 10
121.949
 20
-27.4677
 11
121.875
 21
-27.2391
  0
LINE
  8
0
 10
121.875
 20
-27.2391
 11
121.85
 21
-27
  0
LINE
  8
0
 10
121.85
 20
-27
 11
121.875
 21
-26.7609
  0
LINE
  8
0
 10
121.875
 20
-26.7609
 11
121.949
 21
-26.5322
  0
LINE
  8
0
 10
121.949
 20
-26.5322
 11
122.07
 21
-26.324
  0
LINE
  8
0
 10
122.07
 20
-26.324
 11
122.23
 21
-26.1454
  0
LINE
  8
0
 10
122.23
 20
-26.1454
 11
122.425
 21
-26.0041
  0
LINE
  8
0
 10
122.425
 20
-26.0041
 11
122.645
 21
-25.9063
  0
LINE
  8
0
 10
122.645
 20
-25.9063
 11
122.88
 21
-25.8563
  0
LINE
  8
0
 10
122.88
 20
-25.8563
 11
123.12
 21
-25.8563
  0
LINE
  8
0
 10
123.12
 20
-25.8563
 11
123.355
 21
-25.9063
  0
LINE
  8
0
 10
123.355
 20
-25.9063
 11
123.575
 21
-26.0041
  0
LINE
  8
0
 10
123.575
 20
-26.0041
 11
123.769
 21
-26.1454
  0
LINE
  8
0
 10
123.769
 20
-26.1454
 11
123.93
 21
-26.324
  0
LINE
  8
0
 10
123.93
 20
-26.324
 11
124.051
 21
-26.5322
  0
LINE
  8
0
 10
124.051
 20
-26.5322
 11
124.125
 21
-26.7609
  0
LINE
  8
0
 10
124.125
 20
-26.7609
 11
124.15
 21
-27
  0
LINE
  8
0
 10
124.15
 20
-27
 11
124.125
 21
-27.2391
  0
LINE
  8
0
 10
124.125
 20
-27.2391
 11
124.051
 21
-27.4677
  0
LINE
  8
0
 10
124.051
 20
-27.4677
 11
123.93
 21
-27.6759
  0
LINE
  8
0
 10
123.93
 20
-27.6759
 11
123.769
 21
-27.8546
  0
LINE
  8
0
 10
123.769
 20
-27.8546
 11
123.575
 21
-27.9959
  0
LINE
  8
0
 10
123.575
 20
-27.9959
 11
123.355
 21
-28.0937
  0
LINE
  8
0
 10
123.355
 20
-28.0937
 11
123.12
 21
-28.1437
  0
LINE
  8
0
 10
123.12
 20
-28.1437
 11
122.88
 21
-28.1437
  0
LINE
  8
0
 10
152.88
 20
-28.1437
 11
152.645
 21
-28.0937
  0
LINE
  8
0
 10
152.645
 20
-28.0937
 11
152.425
 21
-27.9959
  0
LINE
  8
0
 10
152.425
 20
-27.9959
 11
152.23
 21
-27.8546
  0
LINE
  8
0
 10
152.23
 20
-27.8546
 11
152.07
 21
-27.6759
  0
LINE
  8
0
 10
152.07
 20
-27.6759
 11
151.949
 21
-27.4677
  0
LINE
  8
0
 10
151.949
 20
-27.4677
 11
151.875
 21
-27.2391
  0
LINE
  8
0
 10
151.875
 20
-27.2391
 11
151.85
 21
-27
  0
LINE
  8
0
 10
151.85
 20
-27
 11
151.875
 21
-26.7609
  0
LINE
  8
0
 10
151.875
 20
-26.7609
 11
151.949
 21
-26.5322
  0
LINE
  8
0
 10
151.949
 20
-26.5322
 11
152.07
 21
-26.324
  0
LINE
  8
0
 10
152.07
 20
-26.324
 11
152.23
 21
-26.1454
  0
LINE
  8
0
 10
152.23
 20
-26.1454
 11
152.425
 21
-26.0041
  0
LINE
  8
0
 10
152.425
 20
-26.0041
 11
152.645
 21
-25.9063
  0
LINE
  8
0
 10
152.645
 20
-25.9063
 11
152.88
 21
-25.8563
  0
LINE
  8
0
 10
152.88
 20
-25.8563
 11
153.12
 21
-25.8563
  0
LINE
  8
0
 10
153.12
 20
-25.8563
 11
153.355
 21
-25.9063
  0
LINE
  8
0
 10
153.355
 20
-25.9063
 11
153.575
 21
-26.0041
  0
LINE
  8
0
 10
153.575
 20
-26.0041
 11
153.769
 21
-26.1454
  0
LINE
  8
0
 10
153.769
 20
-26.1454
 11
153.93
 21
-26.324
  0
LINE
  8
0
 10
153.93
 20
-26.324
 11
154.051
 21
-26.5322
  0
LINE
  8
0
 10
154.051
 20
-26.5322
 11
154.125
 21
-26.7609
  0
LINE
  8
0
 10
154.125
 20
-26.7609
 11
154.15
 21
-27
  0
LINE
  8
0
 10
154.15
 20
-27
 11
154.125
 21
-27.2391
  0
LINE
  8
0
 10
154.125
 20
-27.2391
 11
154.051
 21
-27.4677
  0
LINE
  8
0
 10
154.051
 20
-27.4677
 11
153.93
 21
-27.6759
  0
LINE
  8
0
 10
153.93
 20
-27.6759
 11
153.769
 21
-27.8546
  0
LINE
  8
0
 10
153.769
 20
-27.8546
 11
153.575
 21
-27.9959
  0
LINE
  8
0
 10
153.575
 20
-27.9959
 11
153.355
 21
-28.0937
  0
LINE
  8
0
 10
153.355
 20
-28.0937
 11
153.12
 21
-28.1437
  0
LINE
  8
0
 10
153.12
 20
-28.1437
 11
152.88
 21
-28.1437
  0
LINE
  8
0
 10
288.88
 20
-97.1437
 11
288.645
 21
-97.0937
  0
LINE
  8
0
 10
288.645
 20
-97.0937
 11
288.425
 21
-96.9959
  0
LINE
  8
0
 10
288.425
 20
-96.9959
 11
288.23
 21
-96.8546
  0
LINE
  8
0
 10
288.23
 20
-96.8546
 11
288.07
 21
-96.6759
  0
LINE
  8
0
 10
288.07
 20
-96.6759
 11
287.949
 21
-96.4677
  0
LINE
  8
0
 10
287.949
 20
-96.4677
 11
287.875
 21
-96.2391
  0
LINE
  8
0
 10
287.875
 20
-96.2391
 11
287.85
 21
-96
  0
LINE
  8
0
 10
287.85
 20
-96
 11
287.875
 21
-95.7609
  0
LINE
  8
0
 10
287.875
 20
-95.7609
 11
287.949
 21
-95.5322
  0
LINE
  8
0
 10
287.949
 20
-95.5322
 11
288.07
 21
-95.324
  0
LINE
  8
0
 10
288.07
 20
-95.324
 11
288.23
 21
-95.1454
  0
LINE
  8
0
 10
288.23
 20
-95.1454
 11
288.425
 21
-95.0041
  0
LINE
  8
0
 10
288.425
 20
-95.0041
 11
288.645
 21
-94.9063
  0
LINE
  8
0
 10
288.645
 20
-94.9063
 11
288.88
 21
-94.8563
  0
LINE
  8
0
 10
288.88
 20
-94.8563
 11
289.12
 21
-94.8563
  0
LINE
  8
0
 10
289.12
 20
-94.8563
 11
289.355
 21
-94.9063
  0
LINE
  8
0
 10
289.355
 20
-94.9063
 11
289.575
 21
-95.0041
  0
LINE
  8
0
 10
289.575
 20
-95.0041
 11
289.769
 21
-95.1454
  0
LINE
  8
0
 10
289.769
 20
-95.1454
 11
289.93
 21
-95.324
  0
LINE
  8
0
 10
289.93
 20
-95.324
 11
290.051
 21
-95.5322
  0
LINE
  8
0
 10
290.051
 20
-95.5322
 11
290.125
 21
-95.7609
  0
LINE
  8
0
 10
290.125
 20
-95.7609
 11
290.15
 21
-96
  0
LINE
  8
0
 10
290.15
 20
-96
 11
290.125
 21
-96.2391
  0
LINE
  8
0
 10
290.125
 20
-96.2391
 11
290.051
 21
-96.4677
  0
LINE
  8
0
 10
290.051
 20
-96.4677
 11
289.93
 21
-96.6759
  0
LINE
  8
0
 10
289.93
 20
-96.6759
 11
289.769
 21
-96.8546
  0
LINE
  8
0
 10
289.769
 20
-96.8546
 11
289.575
 21
-96.9959
  0
LINE
  8
0
 10
289.575
 20
-96.9959
 11
289.355
 21
-97.0937
  0
LINE
  8
0
 10
289.355
 20
-97.0937
 11
289.12
 21
-97.1437
  0
LINE
  8
0
 10
289.12
 20
-97.1437
 11
288.88
 21
-97.1437
  0
LINE
  8
0
 10
232.88
 20
-97.1437
 11
232.645
 21
-97.0937
  0
LINE
  8
0
 10
232.645
 20
-97.0937
 11
232.425
 21
-96.9959
  0
LINE
  8
0
 10
232.425
 20
-96.9959
 11
232.23
 21
-96.8546
  0
LINE
  8
0
 10
232.23
 20
-96.8546
 11
232.07
 21
-96.6759
  0
LINE
  8
0
 10
232.07
 20
-96.6759
 11
231.949
 21
-96.4677
  0
LINE
  8
0
 10
231.949
 20
-96.4677
 11
231.875
 21
-96.2391
  0
LINE
  8
0
 10
231.875
 20
-96.2391
 11
231.85
 21
-96
  0
LINE
  8
0
 10
231.85
 20
-96
 11
231.875
 21
-95.7609
  0
LINE
  8
0
 10
231.875
 20
-95.7609
 11
231.949
 21
-95.5322
  0
LINE
  8
0
 10
231.949
 20
-95.5322
 11
232.07
 21
-95.324
  0
LINE
  8
0
 10
232.07
 20
-95.324
 11
232.23
 21
-95.1454
  0
LINE
  8
0
 10
232.23
 20
-95.1454
 11
232.425
 21
-95.0041
  0
LINE
  8
0
 10
232.425
 20
-95.0041
 11
232.645
 21
-94.9063
  0
LINE
  8
0
 10
232.645
 20
-94.9063
 11
232.88
 21
-94.8563
  0
LINE
  8
0
 10
232.88
 20
-94.8563
 11
233.12
 21
-94.8563
  0
LINE
  8
0
 10
233.12
 20
-94.8563
 11
233.355
 21
-94.9063
  0
LINE
  8
0
 10
233.355
 20
-94.9063
 11
233.575
 21
-95.0041
  0
LINE
  8
0
 10
233.575
 20
-95.0041
 11
233.769
 21
-95.1454
  0
LINE
  8
0
 10
233.769
 20
-95.1454
 11
233.93
 21
-95.324
  0
LINE
  8
0
 10
233.93
 20
-95.324
 11
234.051
 21
-95.5322
  0
LINE
  8
0
 10
234.051
 20
-95.5322
 11
234.125
 21
-95.7609
  0
LINE
  8
0
 10
234.125
 20
-95.7609
 11
234.15
 21
-96
  0
LINE
  8
0
 10
234.15
 20
-96
 11
234.125
 21
-96.2391
  0
LINE
  8
0
 10
234.125
 20
-96.2391
 11
234.051
 21
-96.4677
  0
LINE
  8
0
 10
234.051
 20
-96.4677
 11
233.93
 21
-96.6759
  0
LINE
  8
0
 10
233.93
 20
-96.6759
 11
233.769
 21
-96.8546
  0
LINE
  8
0
 10
233.769
 20
-96.8546
 11
233.575
 21
-96.9959
  0
LINE
  8
0
 10
233.575
 20
-96.9959
 11
233.355
 21
-97.0937
  0
LINE
  8
0
 10
233.355
 20
-97.0937
 11
233.12
 21
-97.1437
  0
LINE
  8
0
 10
233.12
 20
-97.1437
 11
232.88
 21
-97.1437
  0
LINE
  8
0
 10
48.8798
 20
-99.1437
 11
48.6446
 21
-99.0937
  0
LINE
  8
0
 10
48.6446
 20
-99.0937
 11
48.425
 21
-98.9959
  0
LINE
  8
0
 10
48.425
 20
-98.9959
 11
48.2305
 21
-98.8546
  0
LINE
  8
0
 10
48.2305
 20
-98.8546
 11
48.0696
 21
-98.6759
  0
LINE
  8
0
 10
48.0696
 20
-98.6759
 11
47.9494
 21
-98.4677
  0
LINE
  8
0
 10
47.9494
 20
-98.4677
 11
47.8751
 21
-98.2391
  0
LINE
  8
0
 10
47.8751
 20
-98.2391
 11
47.85
 21
-98
  0
LINE
  8
0
 10
47.85
 20
-98
 11
47.8751
 21
-97.7609
  0
LINE
  8
0
 10
47.8751
 20
-97.7609
 11
47.9494
 21
-97.5322
  0
LINE
  8
0
 10
47.9494
 20
-97.5322
 11
48.0696
 21
-97.324
  0
LINE
  8
0
 10
48.0696
 20
-97.324
 11
48.2305
 21
-97.1454
  0
LINE
  8
0
 10
48.2305
 20
-97.1454
 11
48.425
 21
-97.0041
  0
LINE
  8
0
 10
48.425
 20
-97.0041
 11
48.6446
 21
-96.9063
  0
LINE
  8
0
 10
48.6446
 20
-96.9063
 11
48.8798
 21
-96.8563
  0
LINE
  8
0
 10
48.8798
 20
-96.8563
 11
49.1202
 21
-96.8563
  0
LINE
  8
0
 10
49.1202
 20
-96.8563
 11
49.3554
 21
-96.9063
  0
LINE
  8
0
 10
49.3554
 20
-96.9063
 11
49.575
 21
-97.0041
  0
LINE
  8
0
 10
49.575
 20
-97.0041
 11
49.7695
 21
-97.1454
  0
LINE
  8
0
 10
49.7695
 20
-97.1454
 11
49.9304
 21
-97.324
  0
LINE
  8
0
 10
49.9304
 20
-97.324
 11
50.0506
 21
-97.5322
  0
LINE
  8
0
 10
50.0506
 20
-97.5322
 11
50.1249
 21
-97.7609
  0
LINE
  8
0
 10
50.1249
 20
-97.7609
 11
50.15
 21
-98
  0
LINE
  8
0
 10
50.15
 20
-98
 11
50.1249
 21
-98.2391
  0
LINE
  8
0
 10
50.1249
 20
-98.2391
 11
50.0506
 21
-98.4677
  0
LINE
  8
0
 10
50.0506
 20
-98.4677
 11
49.9304
 21
-98.6759
  0
LINE
  8
0
 10
49.9304
 20
-98.6759
 11
49.7695
 21
-98.8546
  0
LINE
  8
0
 10
49.7695
 20
-98.8546
 11
49.575
 21
-98.9959
  0
LINE
  8
0
 10
49.575
 20
-98.9959
 11
49.3554
 21
-99.0937
  0
LINE
  8
0
 10
49.3554
 20
-99.0937
 11
49.1202
 21
-99.1437
  0
LINE
  8
0
 10
49.1202
 20
-99.1437
 11
48.8798
 21
-99.1437
  0
LINE
  8
0
 10
1.87979
 20
-99.1437
 11
1.64462
 21
-99.0937
  0
LINE
  8
0
 10
1.64462
 20
-99.0937
 11
1.42499
 21
-98.9959
  0
LINE
  8
0
 10
1.42499
 20
-98.9959
 11
1.2305
 21
-98.8546
  0
LINE
  8
0
 10
1.2305
 20
-98.8546
 11
1.06963
 21
-98.6759
  0
LINE
  8
0
 10
1.06963
 20
-98.6759
 11
0.949417
 21
-98.4677
  0
LINE
  8
0
 10
0.949417
 20
-98.4677
 11
0.875122
 21
-98.2391
  0
LINE
  8
0
 10
0.875122
 20
-98.2391
 11
0.849991
 21
-98
  0
LINE
  8
0
 10
0.849991
 20
-98
 11
0.875122
 21
-97.7609
  0
LINE
  8
0
 10
0.875122
 20
-97.7609
 11
0.949417
 21
-97.5322
  0
LINE
  8
0
 10
0.949417
 20
-97.5322
 11
1.06963
 21
-97.324
  0
LINE
  8
0
 10
1.06963
 20
-97.324
 11
1.2305
 21
-97.1454
  0
LINE
  8
0
 10
1.2305
 20
-97.1454
 11
1.42499
 21
-97.0041
  0
LINE
  8
0
 10
1.42499
 20
-97.0041
 11
1.64462
 21
-96.9063
  0
LINE
  8
0
 10
1.64462
 20
-96.9063
 11
1.87979
 21
-96.8563
  0
LINE
  8
0
 10
1.87979
 20
-96.8563
 11
2.12019
 21
-96.8563
  0
LINE
  8
0
 10
2.12019
 20
-96.8563
 11
2.35536
 21
-96.9063
  0
LINE
  8
0
 10
2.35536
 20
-96.9063
 11
2.575
 21
-97.0041
  0
LINE
  8
0
 10
2.575
 20
-97.0041
 11
2.76949
 21
-97.1454
  0
LINE
  8
0
 10
2.76949
 20
-97.1454
 11
2.93036
 21
-97.324
  0
LINE
  8
0
 10
2.93036
 20
-97.324
 11
3.05057
 21
-97.5322
  0
LINE
  8
0
 10
3.05057
 20
-97.5322
 11
3.12486
 21
-97.7609
  0
LINE
  8
0
 10
3.12486
 20
-97.7609
 11
3.14999
 21
-98
  0
LINE
  8
0
 10
3.14999
 20
-98
 11
3.12486
 21
-98.2391
  0
LINE
  8
0
 10
3.12486
 20
-98.2391
 11
3.05057
 21
-98.4677
  0
LINE
  8
0
 10
3.05057
 20
-98.4677
 11
2.93036
 21
-98.6759
  0
LINE
  8
0
 10
2.93036
 20
-98.6759
 11
2.76949
 21
-98.8546
  0
LINE
  8
0
 10
2.76949
 20
-98.8546
 11
2.575
 21
-98.9959
  0
LINE
  8
0
 10
2.575
 20
-98.9959
 11
2.35536
 21
-99.0937
  0
LINE
  8
0
 10
2.35536
 20
-99.0937
 11
2.12019
 21
-99.1437
  0
LINE
  8
0
 10
2.12019
 20
-99.1437
 11
1.87979
 21
-99.1437
  0
LINE
  8
0
 10
148.88
 20
-112.144
 11
148.645
 21
-112.094
  0
LINE
  8
0
 10
148.645
 20
-112.094
 11
148.425
 21
-111.996
  0
LINE
  8
0
 10
148.425
 20
-111.996
 11
148.23
 21
-111.855
  0
LINE
  8
0
 10
148.23
 20
-111.855
 11
148.07
 21
-111.676
  0
LINE
  8
0
 10
148.07
 20
-111.676
 11
147.949
 21
-111.468
  0
LINE
  8
0
 10
147.949
 20
-111.468
 11
147.875
 21
-111.239
  0
LINE
  8
0
 10
147.875
 20
-111.239
 11
147.85
 21
-111
  0
LINE
  8
0
 10
147.85
 20
-111
 11
147.875
 21
-110.761
  0
LINE
  8
0
 10
147.875
 20
-110.761
 11
147.949
 21
-110.532
  0
LINE
  8
0
 10
147.949
 20
-110.532
 11
148.07
 21
-110.324
  0
LINE
  8
0
 10
148.07
 20
-110.324
 11
148.23
 21
-110.145
  0
LINE
  8
0
 10
148.23
 20
-110.145
 11
148.425
 21
-110.004
  0
LINE
  8
0
 10
148.425
 20
-110.004
 11
148.645
 21
-109.906
  0
LINE
  8
0
 10
148.645
 20
-109.906
 11
148.88
 21
-109.856
  0
LINE
  8
0
 10
148.88
 20
-109.856
 11
149.12
 21
-109.856
  0
LINE
  8
0
 10
149.12
 20
-109.856
 11
149.355
 21
-109.906
  0
LINE
  8
0
 10
149.355
 20
-109.906
 11
149.575
 21
-110.004
  0
LINE
  8
0
 10
149.575
 20
-110.004
 11
149.769
 21
-110.145
  0
LINE
  8
0
 10
149.769
 20
-110.145
 11
149.93
 21
-110.324
  0
LINE
  8
0
 10
149.93
 20
-110.324
 11
150.051
 21
-110.532
  0
LINE
  8
0
 10
150.051
 20
-110.532
 11
150.125
 21
-110.761
  0
LINE
  8
0
 10
150.125
 20
-110.761
 11
150.15
 21
-111
  0
LINE
  8
0
 10
150.15
 20
-111
 11
150.125
 21
-111.239
  0
LINE
  8
0
 10
150.125
 20
-111.239
 11
150.051
 21
-111.468
  0
LINE
  8
0
 10
150.051
 20
-111.468
 11
149.93
 21
-111.676
  0
LINE
  8
0
 10
149.93
 20
-111.676
 11
149.769
 21
-111.855
  0
LINE
  8
0
 10
149.769
 20
-111.855
 11
149.575
 21
-111.996
  0
LINE
  8
0
 10
149.575
 20
-111.996
 11
149.355
 21
-112.094
  0
LINE
  8
0
 10
149.355
 20
-112.094
 11
149.12
 21
-112.144
  0
LINE
  8
0
 10
149.12
 20
-112.144
 11
148.88
 21
-112.144
  0
LINE
  8
0
 10
123.88
 20
-112.144
 11
123.645
 21
-112.094
  0
LINE
  8
0
 10
123.645
 20
-112.094
 11
123.425
 21
-111.996
  0
LINE
  8
0
 10
123.425
 20
-111.996
 11
123.23
 21
-111.855
  0
LINE
  8
0
 10
123.23
 20
-111.855
 11
123.07
 21
-111.676
  0
LINE
  8
0
 10
123.07
 20
-111.676
 11
122.949
 21
-111.468
  0
LINE
  8
0
 10
122.949
 20
-111.468
 11
122.875
 21
-111.239
  0
LINE
  8
0
 10
122.875
 20
-111.239
 11
122.85
 21
-111
  0
LINE
  8
0
 10
122.85
 20
-111
 11
122.875
 21
-110.761
  0
LINE
  8
0
 10
122.875
 20
-110.761
 11
122.949
 21
-110.532
  0
LINE
  8
0
 10
122.949
 20
-110.532
 11
123.07
 21
-110.324
  0
LINE
  8
0
 10
123.07
 20
-110.324
 11
123.23
 21
-110.145
  0
LINE
  8
0
 10
123.23
 20
-110.145
 11
123.425
 21
-110.004
  0
LINE
  8
0
 10
123.425
 20
-110.004
 11
123.645
 21
-109.906
  0
LINE
  8
0
 10
123.645
 20
-109.906
 11
123.88
 21
-109.856
  0
LINE
  8
0
 10
123.88
 20
-109.856
 11
124.12
 21
-109.856
  0
LINE
  8
0
 10
124.12
 20
-109.856
 11
124.355
 21
-109.906
  0
LINE
  8
0
 10
124.355
 20
-109.906
 11
124.575
 21
-110.004
  0
LINE
  8
0
 10
124.575
 20
-110.004
 11
124.769
 21
-110.145
  0
LINE
  8
0
 10
124.769
 20
-110.145
 11
124.93
 21
-110.324
  0
LINE
  8
0
 10
124.93
 20
-110.324
 11
125.051
 21
-110.532
  0
LINE
  8
0
 10
125.051
 20
-110.532
 11
125.125
 21
-110.761
  0
LINE
  8
0
 10
125.125
 20
-110.761
 11
125.15
 21
-111
  0
LINE
  8
0
 10
125.15
 20
-111
 11
125.125
 21
-111.239
  0
LINE
  8
0
 10
125.125
 20
-111.239
 11
125.051
 21
-111.468
  0
LINE
  8
0
 10
125.051
 20
-111.468
 11
124.93
 21
-111.676
  0
LINE
  8
0
 10
124.93
 20
-111.676
 11
124.769
 21
-111.855
  0
LINE
  8
0
 10
124.769
 20
-111.855
 11
124.575
 21
-111.996
  0
LINE
  8
0
 10
124.575
 20
-111.996
 11
124.355
 21
-112.094
  0
LINE
  8
0
 10
124.355
 20
-112.094
 11
124.12
 21
-112.144
  0
LINE
  8
0
 10
124.12
 20
-112.144
 11
123.88
 21
-112.144
  0
ENDSEC
  0
SECTION
  2
OBJECTS
  0
DICTIONARY
  0
ENDSEC
  0
EOF
