  0
SECTION
  2
BLOCKS
  0
ENDSEC
  0
SECTION
  2
ENTITIES
  0
LINE
  8
0
 10
150.016
 20
-113.604
 11
233.445
 21
-98.8369
  0
LINE
  8
0
 10
233.445
 20
-98.8369
 11
288.544
 21
-98.8369
  0
LINE
  8
0
 10
288.544
 20
-98.8369
 11
290.492
 21
-98.5118
  0
LINE
  8
0
 10
290.492
 20
-98.5118
 11
292.229
 21
-97.5718
  0
LINE
  8
0
 10
292.229
 20
-97.5718
 11
293.567
 21
-96.1186
  0
LINE
  8
0
 10
293.567
 20
-96.1186
 11
294.459
 21
-93.8424
  0
LINE
  8
0
 10
294.459
 20
-93.8424
 11
297.697
 21
-74.7926
  0
LINE
  8
0
 10
297.697
 20
-74.7926
 11
297.782
 21
-73.7871
  0
LINE
  8
0
 10
297.782
 20
-73.7871
 11
297.782
 21
-54.7373
  0
LINE
  8
0
 10
297.782
 20
-54.7373
 11
297.693
 21
-53.7041
  0
LINE
  8
0
 10
297.693
 20
-53.7041
 11
290.899
 21
-14.8418
  0
LINE
  8
0
 10
290.899
 20
-14.8418
 11
290.243
 21
-12.9786
  0
LINE
  8
0
 10
290.243
 20
-12.9786
 11
289.018
 21
-11.4294
  0
LINE
  8
0
 10
289.018
 20
-11.4294
 11
287.356
 21
-10.3619
  0
LINE
  8
0
 10
287.356
 20
-10.3619
 11
284.988
 21
-9.875
  0
LINE
  8
0
 10
284.988
 20
-9.875
 11
231.076
 21
-9.875
  0
LINE
  8
0
 10
231.076
 20
-9.875
 11
230.032
 21
-9.96648
  0
LINE
  8
0
 10
230.032
 20
-9.96648
 11
149
 21
-24.2807
  0
LINE
  8
0
 10
149
 20
-24.2807
 11
149
 21
-64
  0
LINE
  8
0
 10
149
 20
-64
 11
129
 21
-64
  0
LINE
  8
0
 10
129
 20
-64
 11
129
 21
-24.2891
  0
LINE
  8
0
 10
129
 20
-24.2891
 11
124.095
 21
-24.2891
  0
LINE
  8
0
 10
124.095
 20
-24.2891
 11
49.2367
 21
-11.1085
  0
LINE
  8
0
 10
49.2367
 20
-11.1085
 11
48.1963
 21
-11.0176
  0
LINE
  8
0
 10
48.1963
 20
-11.0176
 11
7.1123
 21
-11.0176
  0
LINE
  8
0
 10
7.1123
 20
-11.0176
 11
5.16411
 21
-11.3427
  0
LINE
  8
0
 10
5.16411
 20
-11.3427
 11
3.42703
 21
-12.2827
  0
LINE
  8
0
 10
3.42703
 20
-12.2827
 11
2.08931
 21
-13.7359
  0
LINE
  8
0
 10
2.08931
 20
-13.7359
 11
1.20834
 21
-15.9484
  0
LINE
  8
0
 10
1.20834
 20
-15.9484
 11
-5.96744
 21
-55.5724
  0
LINE
  8
0
 10
-5.96744
 20
-55.5724
 11
-6.06348
 21
-56.6416
  0
LINE
  8
0
 10
-6.06348
 20
-56.6416
 11
-6.06348
 21
-75.6924
  0
LINE
  8
0
 10
-6.06348
 20
-75.6924
 11
-6.01836
 21
-76.4269
  0
LINE
  8
0
 10
-6.01836
 20
-76.4269
 11
-3.66875
 21
-95.4767
  0
LINE
  8
0
 10
-3.66875
 20
-95.4767
 11
-3.1076
 21
-97.3704
  0
LINE
  8
0
 10
-3.1076
 20
-97.3704
 11
-1.96198
 21
-98.9794
  0
LINE
  8
0
 10
-1.96198
 20
-98.9794
 11
-0.356003
 21
-100.129
  0
LINE
  8
0
 10
-0.356003
 20
-100.129
 11
2.28613
 21
-100.742
  0
LINE
  8
0
 10
2.28613
 20
-100.742
 11
49.6442
 21
-100.742
  0
LINE
  8
0
 10
49.6442
 20
-100.742
 11
123.172
 21
-113.607
  0
LINE
  8
0
 10
123.172
 20
-113.607
 11
124.206
 21
-113.696
  0
LINE
  8
0
 10
124.206
 20
-113.696
 11
148.971
 21
-113.696
  0
LINE
  8
0
 10
148.971
 20
-113.696
 11
150.016
 21
-113.604
  0
LINE
  8
0
 10
229.88
 20
-14.1437
 11
229.645
 21
-14.0937
  0
LINE
  8
0
 10
229.645
 20
-14.0937
 11
229.425
 21
-13.9959
  0
LINE
  8
0
 10
229.425
 20
-13.9959
 11
229.23
 21
-13.8546
  0
LINE
  8
0
 10
229.23
 20
-13.8546
 11
229.07
 21
-13.6759
  0
LINE
  8
0
 10
229.07
 20
-13.6759
 11
228.949
 21
-13.4677
  0
LINE
  8
0
 10
228.949
 20
-13.4677
 11
228.875
 21
-13.2391
  0
LINE
  8
0
 10
228.875
 20
-13.2391
 11
228.85
 21
-13
  0
LINE
  8
0
 10
228.85
 20
-13
 11
228.875
 21
-12.7609
  0
LINE
  8
0
 10
228.875
 20
-12.7609
 11
228.949
 21
-12.5322
  0
LINE
  8
0
 10
228.949
 20
-12.5322
 11
229.07
 21
-12.324
  0
LINE
  8
0
 10
229.07
 20
-12.324
 11
229.23
 21
-12.1454
  0
LINE
  8
0
 10
229.23
 20
-12.1454
 11
229.425
 21
-12.0041
  0
LINE
  8
0
 10
229.425
 20
-12.0041
 11
229.645
 21
-11.9063
  0
LINE
  8
0
 10
229.645
 20
-11.9063
 11
229.88
 21
-11.8563
  0
LINE
  8
0
 10
229.88
 20
-11.8563
 11
230.12
 21
-11.8563
  0
LINE
  8
0
 10
230.12
 20
-11.8563
 11
230.355
 21
-11.9063
  0
LINE
  8
0
 10
230.355
 20
-11.9063
 11
230.575
 21
-12.0041
  0
LINE
  8
0
 10
230.575
 20
-12.0041
 11
230.769
 21
-12.1454
  0
LINE
  8
0
 10
230.769
 20
-12.1454
 11
230.93
 21
-12.324
  0
LINE
  8
0
 10
230.93
 20
-12.324
 11
231.051
 21
-12.5322
  0
LINE
  8
0
 10
231.051
 20
-12.5322
 11
231.125
 21
-12.7609
  0
LINE
  8
0
 10
231.125
 20
-12.7609
 11
231.15
 21
-13
  0
LINE
  8
0
 10
231.15
 20
-13
 11
231.125
 21
-13.2391
  0
LINE
  8
0
 10
231.125
 20
-13.2391
 11
231.051
 21
-13.4677
  0
LINE
  8
0
 10
231.051
 20
-13.4677
 11
230.93
 21
-13.6759
  0
LINE
  8
0
 10
230.93
 20
-13.6759
 11
230.769
 21
-13.8546
  0
LINE
  8
0
 10
230.769
 20
-13.8546
 11
230.575
 21
-13.9959
  0
LINE
  8
0
 10
230.575
 20
-13.9959
 11
230.355
 21
-14.0937
  0
LINE
  8
0
 10
230.355
 20
-14.0937
 11
230.12
 21
-14.1437
  0
LINE
  8
0
 10
230.12
 20
-14.1437
 11
229.88
 21
-14.1437
  0
LINE
  8
0
 10
285.88
 20
-14.1437
 11
285.645
 21
-14.0937
  0
LINE
  8
0
 10
285.645
 20
-14.0937
 11
285.425
 21
-13.9959
  0
LINE
  8
0
 10
285.425
 20
-13.9959
 11
285.23
 21
-13.8546
  0
LINE
  8
0
 10
285.23
 20
-13.8546
 11
285.07
 21
-13.6759
  0
LINE
  8
0
 10
285.07
 20
-13.6759
 11
284.949
 21
-13.4677
  0
LINE
  8
0
 10
284.949
 20
-13.4677
 11
284.875
 21
-13.2391
  0
LINE
  8
0
 10
284.875
 20
-13.2391
 11
284.85
 21
-13
  0
LINE
  8
0
 10
284.85
 20
-13
 11
284.875
 21
-12.7609
  0
LINE
  8
0
 10
284.875
 20
-12.7609
 11
284.949
 21
-12.5322
  0
LINE
  8
0
 10
284.949
 20
-12.5322
 11
285.07
 21
-12.324
  0
LINE
  8
0
 10
285.07
 20
-12.324
 11
285.23
 21
-12.1454
  0
LINE
  8
0
 10
285.23
 20
-12.1454
 11
285.425
 21
-12.0041
  0
LINE
  8
0
 10
285.425
 20
-12.0041
 11
285.645
 21
-11.9063
  0
LINE
  8
0
 10
285.645
 20
-11.9063
 11
285.88
 21
-11.8563
  0
LINE
  8
0
 10
285.88
 20
-11.8563
 11
286.12
 21
-11.8563
  0
LINE
  8
0
 10
286.12
 20
-11.8563
 11
286.355
 21
-11.9063
  0
LINE
  8
0
 10
286.355
 20
-11.9063
 11
286.575
 21
-12.0041
  0
LINE
  8
0
 10
286.575
 20
-12.0041
 11
286.769
 21
-12.1454
  0
LINE
  8
0
 10
286.769
 20
-12.1454
 11
286.93
 21
-12.324
  0
LINE
  8
0
 10
286.93
 20
-12.324
 11
287.051
 21
-12.5322
  0
LINE
  8
0
 10
287.051
 20
-12.5322
 11
287.125
 21
-12.7609
  0
LINE
  8
0
 10
287.125
 20
-12.7609
 11
287.15
 21
-13
  0
LINE
  8
0
 10
287.15
 20
-13
 11
287.125
 21
-13.2391
  0
LINE
  8
0
 10
287.125
 20
-13.2391
 11
287.051
 21
-13.4677
  0
LINE
  8
0
 10
287.051
 20
-13.4677
 11
286.93
 21
-13.6759
  0
LINE
  8
0
 10
286.93
 20
-13.6759
 11
286.769
 21
-13.8546
  0
LINE
  8
0
 10
286.769
 20
-13.8546
 11
286.575
 21
-13.9959
  0
LINE
  8
0
 10
286.575
 20
-13.9959
 11
286.355
 21
-14.0937
  0
LINE
  8
0
 10
286.355
 20
-14.0937
 11
286.12
 21
-14.1437
  0
LINE
  8
0
 10
286.12
 20
-14.1437
 11
285.88
 21
-14.1437
  0
LINE
  8
0
 10
51.8798
 20
-16.1437
 11
51.6446
 21
-16.0937
  0
LINE
  8
0
 10
51.6446
 20
-16.0937
 11
51.425
 21
-15.9959
  0
LINE
  8
0
 10
51.425
 20
-15.9959
 11
51.2305
 21
-15.8546
  0
LINE
  8
0
 10
51.2305
 20
-15.8546
 11
51.0696
 21
-15.6759
  0
LINE
  8
0
 10
51.0696
 20
-15.6759
 11
50.9494
 21
-15.4677
  0
LINE
  8
0
 10
50.9494
 20
-15.4677
 11
50.8751
 21
-15.2391
  0
LINE
  8
0
 10
50.8751
 20
-15.2391
 11
50.85
 21
-15
  0
LINE
  8
0
 10
50.85
 20
-15
 11
50.8751
 21
-14.7609
  0
LINE
  8
0
 10
50.8751
 20
-14.7609
 11
50.9494
 21
-14.5322
  0
LINE
  8
0
 10
50.9494
 20
-14.5322
 11
51.0696
 21
-14.324
  0
LINE
  8
0
 10
51.0696
 20
-14.324
 11
51.2305
 21
-14.1454
  0
LINE
  8
0
 10
51.2305
 20
-14.1454
 11
51.425
 21
-14.0041
  0
LINE
  8
0
 10
51.425
 20
-14.0041
 11
51.6446
 21
-13.9063
  0
LINE
  8
0
 10
51.6446
 20
-13.9063
 11
51.8798
 21
-13.8563
  0
LINE
  8
0
 10
51.8798
 20
-13.8563
 11
52.1202
 21
-13.8563
  0
LINE
  8
0
 10
52.1202
 20
-13.8563
 11
52.3554
 21
-13.9063
  0
LINE
  8
0
 10
52.3554
 20
-13.9063
 11
52.575
 21
-14.0041
  0
LINE
  8
0
 10
52.575
 20
-14.0041
 11
52.7695
 21
-14.1454
  0
LINE
  8
0
 10
52.7695
 20
-14.1454
 11
52.9304
 21
-14.324
  0
LINE
  8
0
 10
52.9304
 20
-14.324
 11
53.0506
 21
-14.5322
  0
LINE
  8
0
 10
53.0506
 20
-14.5322
 11
53.1249
 21
-14.7609
  0
LINE
  8
0
 10
53.1249
 20
-14.7609
 11
53.15
 21
-15
  0
LINE
  8
0
 10
53.15
 20
-15
 11
53.1249
 21
-15.2391
  0
LINE
  8
0
 10
53.1249
 20
-15.2391
 11
53.0506
 21
-15.4677
  0
LINE
  8
0
 10
53.0506
 20
-15.4677
 11
52.9304
 21
-15.6759
  0
LINE
  8
0
 10
52.9304
 20
-15.6759
 11
52.7695
 21
-15.8546
  0
LINE
  8
0
 10
52.7695
 20
-15.8546
 11
52.575
 21
-15.9959
  0
LINE
  8
0
 10
52.575
 20
-15.9959
 11
52.3554
 21
-16.0937
  0
LINE
  8
0
 10
52.3554
 20
-16.0937
 11
52.1202
 21
-16.1437
  0
LINE
  8
0
 10
52.1202
 20
-16.1437
 11
51.8798
 21
-16.1437
  0
LINE
  8
0
 10
5.87979
 20
-16.1437
 11
5.64462
 21
-16.0937
  0
LINE
  8
0
 10
5.64462
 20
-16.0937
 11
5.42499
 21
-15.9959
  0
LINE
  8
0
 10
5.42499
 20
-15.9959
 11
5.2305
 21
-15.8546
  0
LINE
  8
0
 10
5.2305
 20
-15.8546
 11
5.06963
 21
-15.6759
  0
LINE
  8
0
 10
5.06963
 20
-15.6759
 11
4.94942
 21
-15.4677
  0
LINE
  8
0
 10
4.94942
 20
-15.4677
 11
4.87512
 21
-15.2391
  0
LINE
  8
0
 10
4.87512
 20
-15.2391
 11
4.84999
 21
-15
  0
LINE
  8
0
 10
4.84999
 20
-15
 11
4.87512
 21
-14.7609
  0
LINE
  8
0
 10
4.87512
 20
-14.7609
 11
4.94942
 21
-14.5322
  0
LINE
  8
0
 10
4.94942
 20
-14.5322
 11
5.06963
 21
-14.324
  0
LINE
  8
0
 10
5.06963
 20
-14.324
 11
5.2305
 21
-14.1454
  0
LINE
  8
0
 10
5.2305
 20
-14.1454
 11
5.42499
 21
-14.0041
  0
LINE
  8
0
 10
5.42499
 20
-14.0041
 11
5.64462
 21
-13.9063
  0
LINE
  8
0
 10
5.64462
 20
-13.9063
 11
5.87979
 21
-13.8563
  0
LINE
  8
0
 10
5.87979
 20
-13.8563
 11
6.12019
 21
-13.8563
  0
LINE
  8
0
 10
6.12019
 20
-13.8563
 11
6.35536
 21
-13.9063
  0
LINE
  8
0
 10
6.35536
 20
-13.9063
 11
6.575
 21
-14.0041
  0
LINE
  8
0
 10
6.575
 20
-14.0041
 11
6.76949
 21
-14.1454
  0
LINE
  8
0
 10
6.76949
 20
-14.1454
 11
6.93036
 21
-14.324
  0
LINE
  8
0
 10
6.93036
 20
-14.324
 11
7.05057
 21
-14.5322
  0
LINE
  8
0
 10
7.05057
 20
-14.5322
 11
7.12486
 21
-14.7609
  0
LINE
  8
0
 10
7.12486
 20
-14.7609
 11
7.14999
 21
-15
  0
LINE
  8
0
 10
7.14999
 20
-15
 11
7.12486
 21
-15.2391
  0
LINE
  8
0
 10
7.12486
 20
-15.2391
 11
7.05057
 21
-15.4677
  0
LINE
  8
0
 10
7.05057
 20
-15.4677
 11
6.93036
 21
-15.6759
  0
LINE
  8
0
 10
6.93036
 20
-15.6759
 11
6.76949
 21
-15.8546
  0
LINE
  8
0
 10
6.76949
 20
-15.8546
 11
6.575
 21
-15.9959
  0
LINE
  8
0
 10
6.575
 20
-15.9959
 11
6.35536
 21
-16.0937
  0
LINE
  8
0
 10
6.35536
 20
-16.0937
 11
6.12019
 21
-16.1437
  0
LINE
  8
0
 10
6.12019
 20
-16.1437
 11
5.87979
 21
-16.1437
  0
LINE
  8
0
 10
249.337
 20
-32.3877
 11
249.337
 21
-18.3877
  0
LINE
  8
0
 10
249.337
 20
-18.3877
 11
263.337
 21
-18.3877
  0
LINE
  8
0
 10
263.337
 20
-18.3877
 11
263.337
 21
-32.3877
  0
LINE
  8
0
 10
263.337
 20
-32.3877
 11
249.337
 21
-32.3877
  0
LINE
  8
0
 10
230.287
 20
-32.3945
 11
230.287
 21
-18.3945
  0
LINE
  8
0
 10
230.287
 20
-18.3945
 11
244.287
 21
-18.3945
  0
LINE
  8
0
 10
244.287
 20
-18.3945
 11
244.287
 21
-32.3945
  0
LINE
  8
0
 10
244.287
 20
-32.3945
 11
230.287
 21
-32.3945
  0
LINE
  8
0
 10
268.438
 20
-32.4131
 11
268.438
 21
-18.4131
  0
LINE
  8
0
 10
268.438
 20
-18.4131
 11
282.438
 21
-18.4131
  0
LINE
  8
0
 10
282.438
 20
-18.4131
 11
282.438
 21
-32.4131
  0
LINE
  8
0
 10
282.438
 20
-32.4131
 11
268.438
 21
-32.4131
  0
LINE
  8
0
 10
208.673
 20
-22.3223
 11
222.46
 21
-19.8906
  0
LINE
  8
0
 10
222.46
 20
-19.8906
 11
224.891
 21
-33.6777
  0
LINE
  8
0
 10
224.891
 20
-33.6777
 11
211.104
 21
-36.1094
  0
LINE
  8
0
 10
211.104
 20
-36.1094
 11
208.673
 21
-22.3223
  0
LINE
  8
0
 10
47.8906
 20
-33.6777
 11
50.3223
 21
-19.8906
  0
LINE
  8
0
 10
50.3223
 20
-19.8906
 11
64.1094
 21
-22.3223
  0
LINE
  8
0
 10
64.1094
 20
-22.3223
 11
61.6777
 21
-36.1094
  0
LINE
  8
0
 10
61.6777
 20
-36.1094
 11
47.8906
 21
-33.6777
  0
LINE
  8
0
 10
28.4326
 20
-35.0674
 11
28.4326
 21
-21.0674
  0
LINE
  8
0
 10
28.4326
 20
-21.0674
 11
42.4326
 21
-21.0674
  0
LINE
  8
0
 10
42.4326
 20
-21.0674
 11
42.4326
 21
-35.0674
  0
LINE
  8
0
 10
42.4326
 20
-35.0674
 11
28.4326
 21
-35.0674
  0
LINE
  8
0
 10
9.38281
 20
-35.0674
 11
9.38281
 21
-21.0674
  0
LINE
  8
0
 10
9.38281
 20
-21.0674
 11
23.3828
 21
-21.0674
  0
LINE
  8
0
 10
23.3828
 20
-21.0674
 11
23.3828
 21
-35.0674
  0
LINE
  8
0
 10
23.3828
 20
-35.0674
 11
9.38281
 21
-35.0674
  0
LINE
  8
0
 10
189.912
 20
-25.6299
 11
203.699
 21
-23.1992
  0
LINE
  8
0
 10
203.699
 20
-23.1992
 11
206.13
 21
-36.9863
  0
LINE
  8
0
 10
206.13
 20
-36.9863
 11
192.343
 21
-39.417
  0
LINE
  8
0
 10
192.343
 20
-39.417
 11
189.912
 21
-25.6299
  0
LINE
  8
0
 10
66.6514
 20
-36.9863
 11
69.082
 21
-23.1992
  0
LINE
  8
0
 10
69.082
 20
-23.1992
 11
82.8701
 21
-25.6299
  0
LINE
  8
0
 10
82.8701
 20
-25.6299
 11
80.4385
 21
-39.417
  0
LINE
  8
0
 10
80.4385
 20
-39.417
 11
66.6514
 21
-36.9863
  0
LINE
  8
0
 10
122.88
 20
-28.1437
 11
122.645
 21
-28.0937
  0
LINE
  8
0
 10
122.645
 20
-28.0937
 11
122.425
 21
-27.9959
  0
LINE
  8
0
 10
122.425
 20
-27.9959
 11
122.23
 21
-27.8546
  0
LINE
  8
0
 10
122.23
 20
-27.8546
 11
122.07
 21
-27.6759
  0
LINE
  8
0
 10
122.07
 20
-27.6759
 11
121.949
 21
-27.4677
  0
LINE
  8
0
 10
121.949
 20
-27.4677
 11
121.875
 21
-27.2391
  0
LINE
  8
0
 10
121.875
 20
-27.2391
 11
121.85
 21
-27
  0
LINE
  8
0
 10
121.85
 20
-27
 11
121.875
 21
-26.7609
  0
LINE
  8
0
 10
121.875
 20
-26.7609
 11
121.949
 21
-26.5322
  0
LINE
  8
0
 10
121.949
 20
-26.5322
 11
122.07
 21
-26.324
  0
LINE
  8
0
 10
122.07
 20
-26.324
 11
122.23
 21
-26.1454
  0
LINE
  8
0
 10
122.23
 20
-26.1454
 11
122.425
 21
-26.0041
  0
LINE
  8
0
 10
122.425
 20
-26.0041
 11
122.645
 21
-25.9063
  0
LINE
  8
0
 10
122.645
 20
-25.9063
 11
122.88
 21
-25.8563
  0
LINE
  8
0
 10
122.88
 20
-25.8563
 11
123.12
 21
-25.8563
  0
LINE
  8
0
 10
123.12
 20
-25.8563
 11
123.355
 21
-25.9063
  0
LINE
  8
0
 10
123.355
 20
-25.9063
 11
123.575
 21
-26.0041
  0
LINE
  8
0
 10
123.575
 20
-26.0041
 11
123.769
 21
-26.1454
  0
LINE
  8
0
 10
123.769
 20
-26.1454
 11
123.93
 21
-26.324
  0
LINE
  8
0
 10
123.93
 20
-26.324
 11
124.051
 21
-26.5322
  0
LINE
  8
0
 10
124.051
 20
-26.5322
 11
124.125
 21
-26.7609
  0
LINE
  8
0
 10
124.125
 20
-26.7609
 11
124.15
 21
-27
  0
LINE
  8
0
 10
124.15
 20
-27
 11
124.125
 21
-27.2391
  0
LINE
  8
0
 10
124.125
 20
-27.2391
 11
124.051
 21
-27.4677
  0
LINE
  8
0
 10
124.051
 20
-27.4677
 11
123.93
 21
-27.6759
  0
LINE
  8
0
 10
123.93
 20
-27.6759
 11
123.769
 21
-27.8546
  0
LINE
  8
0
 10
123.769
 20
-27.8546
 11
123.575
 21
-27.9959
  0
LINE
  8
0
 10
123.575
 20
-27.9959
 11
123.355
 21
-28.0937
  0
LINE
  8
0
 10
123.355
 20
-28.0937
 11
123.12
 21
-28.1437
  0
LINE
  8
0
 10
123.12
 20
-28.1437
 11
122.88
 21
-28.1437
  0
LINE
  8
0
 10
152.88
 20
-28.1437
 11
152.645
 21
-28.0937
  0
LINE
  8
0
 10
152.645
 20
-28.0937
 11
152.425
 21
-27.9959
  0
LINE
  8
0
 10
152.425
 20
-27.9959
 11
152.23
 21
-27.8546
  0
LINE
  8
0
 10
152.23
 20
-27.8546
 11
152.07
 21
-27.6759
  0
LINE
  8
0
 10
152.07
 20
-27.6759
 11
151.949
 21
-27.4677
  0
LINE
  8
0
 10
151.949
 20
-27.4677
 11
151.875
 21
-27.2391
  0
LINE
  8
0
 10
151.875
 20
-27.2391
 11
151.85
 21
-27
  0
LINE
  8
0
 10
151.85
 20
-27
 11
151.875
 21
-26.7609
  0
LINE
  8
0
 10
151.875
 20
-26.7609
 11
151.949
 21
-26.5322
  0
LINE
  8
0
 10
151.949
 20
-26.5322
 11
152.07
 21
-26.324
  0
LINE
  8
0
 10
152.07
 20
-26.324
 11
152.23
 21
-26.1454
  0
LINE
  8
0
 10
152.23
 20
-26.1454
 11
152.425
 21
-26.0041
  0
LINE
  8
0
 10
152.425
 20
-26.0041
 11
152.645
 21
-25.9063
  0
LINE
  8
0
 10
152.645
 20
-25.9063
 11
152.88
 21
-25.8563
  0
LINE
  8
0
 10
152.88
 20
-25.8563
 11
153.12
 21
-25.8563
  0
LINE
  8
0
 10
153.12
 20
-25.8563
 11
153.355
 21
-25.9063
  0
LINE
  8
0
 10
153.355
 20
-25.9063
 11
153.575
 21
-26.0041
  0
LINE
  8
0
 10
153.575
 20
-26.0041
 11
153.769
 21
-26.1454
  0
LINE
  8
0
 10
153.769
 20
-26.1454
 11
153.93
 21
-26.324
  0
LINE
  8
0
 10
153.93
 20
-26.324
 11
154.051
 21
-26.5322
  0
LINE
  8
0
 10
154.051
 20
-26.5322
 11
154.125
 21
-26.7609
  0
LINE
  8
0
 10
154.125
 20
-26.7609
 11
154.15
 21
-27
  0
LINE
  8
0
 10
154.15
 20
-27
 11
154.125
 21
-27.2391
  0
LINE
  8
0
 10
154.125
 20
-27.2391
 11
154.051
 21
-27.4677
  0
LINE
  8
0
 10
154.051
 20
-27.4677
 11
153.93
 21
-27.6759
  0
LINE
  8
0
 10
153.93
 20
-27.6759
 11
153.769
 21
-27.8546
  0
LINE
  8
0
 10
153.769
 20
-27.8546
 11
153.575
 21
-27.9959
  0
LINE
  8
0
 10
153.575
 20
-27.9959
 11
153.355
 21
-28.0937
  0
LINE
  8
0
 10
153.355
 20
-28.0937
 11
153.12
 21
-28.1437
  0
LINE
  8
0
 10
153.12
 20
-28.1437
 11
152.88
 21
-28.1437
  0
LINE
  8
0
 10
85.4121
 20
-40.2939
 11
87.8428
 21
-26.5068
  0
LINE
  8
0
 10
87.8428
 20
-26.5068
 11
101.63
 21
-28.9375
  0
LINE
  8
0
 10
101.63
 20
-28.9375
 11
99.1992
 21
-42.7256
  0
LINE
  8
0
 10
99.1992
 20
-42.7256
 11
85.4121
 21
-40.2939
  0
LINE
  8
0
 10
171.151
 20
-28.9375
 11
184.939
 21
-26.5068
  0
LINE
  8
0
 10
184.939
 20
-26.5068
 11
187.37
 21
-40.2939
  0
LINE
  8
0
 10
187.37
 20
-40.2939
 11
173.582
 21
-42.7256
  0
LINE
  8
0
 10
173.582
 20
-42.7256
 11
171.151
 21
-28.9375
  0
LINE
  8
0
 10
152.391
 20
-32.2461
 11
166.178
 21
-29.8145
  0
LINE
  8
0
 10
166.178
 20
-29.8145
 11
168.609
 21
-43.6025
  0
LINE
  8
0
 10
168.609
 20
-43.6025
 11
154.822
 21
-46.0332
  0
LINE
  8
0
 10
154.822
 20
-46.0332
 11
152.391
 21
-32.2461
  0
LINE
  8
0
 10
104.173
 20
-43.6025
 11
106.604
 21
-29.8145
  0
LINE
  8
0
 10
106.604
 20
-29.8145
 11
120.391
 21
-32.2461
  0
LINE
  8
0
 10
120.391
 20
-32.2461
 11
117.96
 21
-46.0332
  0
LINE
  8
0
 10
117.96
 20
-46.0332
 11
104.173
 21
-43.6025
  0
LINE
  8
0
 10
216.671
 20
-40.2559
 11
230.458
 21
-37.8242
  0
LINE
  8
0
 10
230.458
 20
-37.8242
 11
232.889
 21
-51.6113
  0
LINE
  8
0
 10
232.889
 20
-51.6113
 11
219.102
 21
-54.043
  0
LINE
  8
0
 10
219.102
 20
-54.043
 11
216.671
 21
-40.2559
  0
LINE
  8
0
 10
264.672
 20
-51.8691
 11
264.672
 21
-37.8691
  0
LINE
  8
0
 10
264.672
 20
-37.8691
 11
278.672
 21
-37.8691
  0
LINE
  8
0
 10
278.672
 20
-37.8691
 11
278.672
 21
-51.8691
  0
LINE
  8
0
 10
278.672
 20
-51.8691
 11
264.672
 21
-51.8691
  0
LINE
  8
0
 10
238.496
 20
-51.8838
 11
238.496
 21
-37.8838
  0
LINE
  8
0
 10
238.496
 20
-37.8838
 11
252.496
 21
-37.8838
  0
LINE
  8
0
 10
252.496
 20
-37.8838
 11
252.496
 21
-51.8838
  0
LINE
  8
0
 10
252.496
 20
-51.8838
 11
238.496
 21
-51.8838
  0
LINE
  8
0
 10
49.2725
 20
-53.2656
 11
51.7041
 21
-39.4785
  0
LINE
  8
0
 10
51.7041
 20
-39.4785
 11
65.4912
 21
-41.9092
  0
LINE
  8
0
 10
65.4912
 20
-41.9092
 11
63.0605
 21
-55.6963
  0
LINE
  8
0
 10
63.0605
 20
-55.6963
 11
49.2725
 21
-53.2656
  0
LINE
  8
0
 10
29.7031
 20
-54.1172
 11
29.7031
 21
-40.1172
  0
LINE
  8
0
 10
29.7031
 20
-40.1172
 11
43.7031
 21
-40.1172
  0
LINE
  8
0
 10
43.7031
 20
-40.1172
 11
43.7031
 21
-54.1172
  0
LINE
  8
0
 10
43.7031
 20
-54.1172
 11
29.7031
 21
-54.1172
  0
LINE
  8
0
 10
8.24023
 20
-54.1172
 11
8.24023
 21
-40.1172
  0
LINE
  8
0
 10
8.24023
 20
-40.1172
 11
22.2402
 21
-40.1172
  0
LINE
  8
0
 10
22.2402
 20
-40.1172
 11
22.2402
 21
-54.1172
  0
LINE
  8
0
 10
22.2402
 20
-54.1172
 11
8.24023
 21
-54.1172
  0
LINE
  8
0
 10
197.91
 20
-43.5635
 11
211.697
 21
-41.1318
  0
LINE
  8
0
 10
211.697
 20
-41.1318
 11
214.128
 21
-54.9199
  0
LINE
  8
0
 10
214.128
 20
-54.9199
 11
200.341
 21
-57.3506
  0
LINE
  8
0
 10
200.341
 20
-57.3506
 11
197.91
 21
-43.5635
  0
LINE
  8
0
 10
68.0332
 20
-56.5732
 11
70.4648
 21
-42.7861
  0
LINE
  8
0
 10
70.4648
 20
-42.7861
 11
84.252
 21
-45.2178
  0
LINE
  8
0
 10
84.252
 20
-45.2178
 11
81.8203
 21
-59.0049
  0
LINE
  8
0
 10
81.8203
 20
-59.0049
 11
68.0332
 21
-56.5732
  0
LINE
  8
0
 10
179.149
 20
-46.8711
 11
192.937
 21
-44.4404
  0
LINE
  8
0
 10
192.937
 20
-44.4404
 11
195.368
 21
-58.2275
  0
LINE
  8
0
 10
195.368
 20
-58.2275
 11
181.581
 21
-60.6592
  0
LINE
  8
0
 10
181.581
 20
-60.6592
 11
179.149
 21
-46.8711
  0
LINE
  8
0
 10
86.7939
 20
-59.8818
 11
89.2256
 21
-46.0947
  0
LINE
  8
0
 10
89.2256
 20
-46.0947
 11
103.012
 21
-48.5254
  0
LINE
  8
0
 10
103.012
 20
-48.5254
 11
100.581
 21
-62.3125
  0
LINE
  8
0
 10
100.581
 20
-62.3125
 11
86.7939
 21
-59.8818
  0
LINE
  8
0
 10
160.389
 20
-50.1797
 11
174.176
 21
-47.748
  0
LINE
  8
0
 10
174.176
 20
-47.748
 11
176.607
 21
-61.5352
  0
LINE
  8
0
 10
176.607
 20
-61.5352
 11
162.82
 21
-63.9668
  0
LINE
  8
0
 10
162.82
 20
-63.9668
 11
160.389
 21
-50.1797
  0
LINE
  8
0
 10
105.555
 20
-63.1895
 11
107.986
 21
-49.4023
  0
LINE
  8
0
 10
107.986
 20
-49.4023
 11
121.773
 21
-51.833
  0
LINE
  8
0
 10
121.773
 20
-51.833
 11
119.342
 21
-65.6211
  0
LINE
  8
0
 10
119.342
 20
-65.6211
 11
105.555
 21
-63.1895
  0
LINE
  8
0
 10
272.883
 20
-71.249
 11
272.883
 21
-57.249
  0
LINE
  8
0
 10
272.883
 20
-57.249
 11
286.883
 21
-57.249
  0
LINE
  8
0
 10
286.883
 20
-57.249
 11
286.883
 21
-71.249
  0
LINE
  8
0
 10
286.883
 20
-71.249
 11
272.883
 21
-71.249
  0
LINE
  8
0
 10
251.458
 20
-71.249
 11
251.458
 21
-57.249
  0
LINE
  8
0
 10
251.458
 20
-57.249
 11
265.458
 21
-57.249
  0
LINE
  8
0
 10
265.458
 20
-57.249
 11
265.458
 21
-71.249
  0
LINE
  8
0
 10
265.458
 20
-71.249
 11
251.458
 21
-71.249
  0
LINE
  8
0
 10
232.395
 20
-71.249
 11
232.395
 21
-57.249
  0
LINE
  8
0
 10
232.395
 20
-57.249
 11
246.395
 21
-57.249
  0
LINE
  8
0
 10
246.395
 20
-57.249
 11
246.395
 21
-71.249
  0
LINE
  8
0
 10
246.395
 20
-71.249
 11
232.395
 21
-71.249
  0
LINE
  8
0
 10
210.598
 20
-60.6699
 11
224.386
 21
-58.2393
  0
LINE
  8
0
 10
224.386
 20
-58.2393
 11
226.817
 21
-72.0264
  0
LINE
  8
0
 10
226.817
 20
-72.0264
 11
213.029
 21
-74.457
  0
LINE
  8
0
 10
213.029
 20
-74.457
 11
210.598
 21
-60.6699
  0
LINE
  8
0
 10
9.57324
 20
-73.167
 11
9.57324
 21
-59.167
  0
LINE
  8
0
 10
9.57324
 20
-59.167
 11
23.5732
 21
-59.167
  0
LINE
  8
0
 10
23.5732
 20
-59.167
 11
23.5732
 21
-73.167
  0
LINE
  8
0
 10
23.5732
 20
-73.167
 11
9.57324
 21
-73.167
  0
LINE
  8
0
 10
35.7988
 20
-73.167
 11
35.7988
 21
-59.167
  0
LINE
  8
0
 10
35.7988
 20
-59.167
 11
49.7988
 21
-59.167
  0
LINE
  8
0
 10
49.7988
 20
-59.167
 11
49.7988
 21
-73.167
  0
LINE
  8
0
 10
49.7988
 20
-73.167
 11
35.7988
 21
-73.167
  0
LINE
  8
0
 10
55.3447
 20
-73.6797
 11
57.7764
 21
-59.8926
  0
LINE
  8
0
 10
57.7764
 20
-59.8926
 11
71.5635
 21
-62.3242
  0
LINE
  8
0
 10
71.5635
 20
-62.3242
 11
69.1328
 21
-76.1113
  0
LINE
  8
0
 10
69.1328
 20
-76.1113
 11
55.3447
 21
-73.6797
  0
LINE
  8
0
 10
191.838
 20
-63.9775
 11
205.625
 21
-61.5469
  0
LINE
  8
0
 10
205.625
 20
-61.5469
 11
208.056
 21
-75.334
  0
LINE
  8
0
 10
208.056
 20
-75.334
 11
194.269
 21
-77.7656
  0
LINE
  8
0
 10
194.269
 20
-77.7656
 11
191.838
 21
-63.9775
  0
LINE
  8
0
 10
74.1055
 20
-76.9883
 11
76.5371
 21
-63.2012
  0
LINE
  8
0
 10
76.5371
 20
-63.2012
 11
90.3242
 21
-65.6318
  0
LINE
  8
0
 10
90.3242
 20
-65.6318
 11
87.8926
 21
-79.4189
  0
LINE
  8
0
 10
87.8926
 20
-79.4189
 11
74.1055
 21
-76.9883
  0
LINE
  8
0
 10
173.077
 20
-67.2861
 11
186.865
 21
-64.8545
  0
LINE
  8
0
 10
186.865
 20
-64.8545
 11
189.296
 21
-78.6426
  0
LINE
  8
0
 10
189.296
 20
-78.6426
 11
175.508
 21
-81.0732
  0
LINE
  8
0
 10
175.508
 20
-81.0732
 11
173.077
 21
-67.2861
  0
LINE
  8
0
 10
92.8662
 20
-80.2959
 11
95.2979
 21
-66.5088
  0
LINE
  8
0
 10
95.2979
 20
-66.5088
 11
109.085
 21
-68.9395
  0
LINE
  8
0
 10
109.085
 20
-68.9395
 11
106.654
 21
-82.7275
  0
LINE
  8
0
 10
106.654
 20
-82.7275
 11
92.8662
 21
-80.2959
  0
LINE
  8
0
 10
154.317
 20
-70.5938
 11
168.104
 21
-68.1631
  0
LINE
  8
0
 10
168.104
 20
-68.1631
 11
170.535
 21
-81.9502
  0
LINE
  8
0
 10
170.535
 20
-81.9502
 11
156.748
 21
-84.3809
  0
LINE
  8
0
 10
156.748
 20
-84.3809
 11
154.317
 21
-70.5938
  0
LINE
  8
0
 10
111.627
 20
-83.6045
 11
114.058
 21
-69.8164
  0
LINE
  8
0
 10
114.058
 20
-69.8164
 11
127.845
 21
-72.248
  0
LINE
  8
0
 10
127.845
 20
-72.248
 11
125.414
 21
-86.0352
  0
LINE
  8
0
 10
125.414
 20
-86.0352
 11
111.627
 21
-83.6045
  0
LINE
  8
0
 10
245.785
 20
-90.3213
 11
245.785
 21
-76.3213
  0
LINE
  8
0
 10
245.785
 20
-76.3213
 11
259.785
 21
-76.3213
  0
LINE
  8
0
 10
259.785
 20
-76.3213
 11
259.785
 21
-90.3213
  0
LINE
  8
0
 10
259.785
 20
-90.3213
 11
245.785
 21
-90.3213
  0
LINE
  8
0
 10
269.63
 20
-90.3213
 11
269.63
 21
-76.3213
  0
LINE
  8
0
 10
269.63
 20
-76.3213
 11
283.63
 21
-76.3213
  0
LINE
  8
0
 10
283.63
 20
-76.3213
 11
283.63
 21
-90.3213
  0
LINE
  8
0
 10
283.63
 20
-90.3213
 11
269.63
 21
-90.3213
  0
LINE
  8
0
 10
7.19238
 20
-92.2168
 11
7.19238
 21
-78.2168
  0
LINE
  8
0
 10
7.19238
 20
-78.2168
 11
21.1924
 21
-78.2168
  0
LINE
  8
0
 10
21.1924
 20
-78.2168
 11
21.1924
 21
-92.2168
  0
LINE
  8
0
 10
21.1924
 20
-92.2168
 11
7.19238
 21
-92.2168
  0
LINE
  8
0
 10
31.0049
 20
-92.2168
 11
31.0049
 21
-78.2168
  0
LINE
  8
0
 10
31.0049
 20
-78.2168
 11
45.0049
 21
-78.2168
  0
LINE
  8
0
 10
45.0049
 20
-78.2168
 11
45.0049
 21
-92.2168
  0
LINE
  8
0
 10
45.0049
 20
-92.2168
 11
31.0049
 21
-92.2168
  0
LINE
  8
0
 10
199.836
 20
-81.9111
 11
213.623
 21
-79.4805
  0
LINE
  8
0
 10
213.623
 20
-79.4805
 11
216.054
 21
-93.2676
  0
LINE
  8
0
 10
216.054
 20
-93.2676
 11
202.267
 21
-95.6982
  0
LINE
  8
0
 10
202.267
 20
-95.6982
 11
199.836
 21
-81.9111
  0
LINE
  8
0
 10
68.4521
 20
-95.335
 11
70.8838
 21
-81.5479
  0
LINE
  8
0
 10
70.8838
 20
-81.5479
 11
84.6709
 21
-83.9785
  0
LINE
  8
0
 10
84.6709
 20
-83.9785
 11
82.2402
 21
-97.7656
  0
LINE
  8
0
 10
82.2402
 20
-97.7656
 11
68.4521
 21
-95.335
  0
LINE
  8
0
 10
163.644
 20
-102.509
 11
162.401
 21
-102.728
  0
LINE
  8
0
 10
162.401
 20
-102.728
 11
159.97
 21
-88.9404
  0
LINE
  8
0
 10
159.97
 20
-88.9404
 11
161.114
 21
-88.7388
  0
LINE
  8
0
 10
161.114
 20
-88.7388
 11
160.936
 21
-87.7293
  0
LINE
  8
0
 10
160.936
 20
-87.7293
 11
167.583
 21
-86.5572
  0
LINE
  8
0
 10
167.583
 20
-86.5572
 11
167.761
 21
-87.5668
  0
LINE
  8
0
 10
167.761
 20
-87.5668
 11
169.301
 21
-87.2954
  0
LINE
  8
0
 10
169.301
 20
-87.2954
 11
169.296
 21
-87.2705
  0
LINE
  8
0
 10
169.296
 20
-87.2705
 11
183.084
 21
-84.8394
  0
LINE
  8
0
 10
183.084
 20
-84.8394
 11
183.088
 21
-84.8647
  0
LINE
  8
0
 10
183.088
 20
-84.8647
 11
184.627
 21
-84.5933
  0
LINE
  8
0
 10
184.627
 20
-84.5933
 11
184.449
 21
-83.5833
  0
LINE
  8
0
 10
184.449
 20
-83.5833
 11
191.096
 21
-82.4112
  0
LINE
  8
0
 10
191.096
 20
-82.4112
 11
191.274
 21
-83.421
  0
LINE
  8
0
 10
191.274
 20
-83.421
 11
194.863
 21
-82.7881
  0
LINE
  8
0
 10
194.863
 20
-82.7881
 11
197.294
 21
-96.5752
  0
LINE
  8
0
 10
197.294
 20
-96.5752
 11
193.804
 21
-97.1906
  0
LINE
  8
0
 10
193.804
 20
-97.1906
 11
193.983
 21
-98.2007
  0
LINE
  8
0
 10
193.983
 20
-98.2007
 11
187.335
 21
-99.3728
  0
LINE
  8
0
 10
187.335
 20
-99.3728
 11
187.157
 21
-98.3629
  0
LINE
  8
0
 10
187.157
 20
-98.3629
 11
185.617
 21
-98.6345
  0
LINE
  8
0
 10
185.617
 20
-98.6345
 11
185.622
 21
-98.6595
  0
LINE
  8
0
 10
185.622
 20
-98.6595
 11
171.834
 21
-101.091
  0
LINE
  8
0
 10
171.834
 20
-101.091
 11
171.83
 21
-101.065
  0
LINE
  8
0
 10
171.83
 20
-101.065
 11
170.291
 21
-101.337
  0
LINE
  8
0
 10
170.291
 20
-101.337
 11
170.469
 21
-102.347
  0
LINE
  8
0
 10
170.469
 20
-102.347
 11
163.822
 21
-103.519
  0
LINE
  8
0
 10
163.822
 20
-103.519
 11
163.644
 21
-102.509
  0
LINE
  8
0
 10
114.163
 20
-104.429
 11
114.34
 21
-103.427
  0
LINE
  8
0
 10
114.34
 20
-103.427
 11
112.8
 21
-103.155
  0
LINE
  8
0
 10
112.8
 20
-103.155
 11
112.797
 21
-103.173
  0
LINE
  8
0
 10
112.797
 20
-103.173
 11
99.01
 21
-100.742
  0
LINE
  8
0
 10
99.01
 20
-100.742
 11
99.0132
 21
-100.724
  0
LINE
  8
0
 10
99.0132
 20
-100.724
 11
97.4744
 21
-100.453
  0
LINE
  8
0
 10
97.4744
 20
-100.453
 11
97.2976
 21
-101.455
  0
LINE
  8
0
 10
97.2976
 20
-101.455
 11
90.6502
 21
-100.283
  0
LINE
  8
0
 10
90.6502
 20
-100.283
 11
90.827
 21
-99.2803
  0
LINE
  8
0
 10
90.827
 20
-99.2803
 11
89.5586
 21
-99.0566
  0
LINE
  8
0
 10
89.5586
 20
-99.0566
 11
91.9893
 21
-85.2695
  0
LINE
  8
0
 10
91.9893
 20
-85.2695
 11
93.159
 21
-85.4757
  0
LINE
  8
0
 10
93.159
 20
-85.4757
 11
93.3383
 21
-84.4587
  0
LINE
  8
0
 10
93.3383
 20
-84.4587
 11
99.9858
 21
-85.6308
  0
LINE
  8
0
 10
99.9858
 20
-85.6308
 11
99.8065
 21
-86.6476
  0
LINE
  8
0
 10
99.8065
 20
-86.6476
 11
101.346
 21
-86.919
  0
LINE
  8
0
 10
101.346
 20
-86.919
 11
101.352
 21
-86.8871
  0
LINE
  8
0
 10
101.352
 20
-86.8871
 11
115.139
 21
-89.3182
  0
LINE
  8
0
 10
115.139
 20
-89.3182
 11
115.133
 21
-89.3503
  0
LINE
  8
0
 10
115.133
 20
-89.3503
 11
116.672
 21
-89.6217
  0
LINE
  8
0
 10
116.672
 20
-89.6217
 11
116.852
 21
-88.6047
  0
LINE
  8
0
 10
116.852
 20
-88.6047
 11
123.499
 21
-89.7769
  0
LINE
  8
0
 10
123.499
 20
-89.7769
 11
123.32
 21
-90.7941
  0
LINE
  8
0
 10
123.32
 20
-90.7941
 11
124.537
 21
-91.0088
  0
LINE
  8
0
 10
124.537
 20
-91.0088
 11
122.106
 21
-104.796
  0
LINE
  8
0
 10
122.106
 20
-104.796
 11
120.988
 21
-104.599
  0
LINE
  8
0
 10
120.988
 20
-104.599
 11
120.811
 21
-105.601
  0
LINE
  8
0
 10
120.811
 20
-105.601
 11
114.163
 21
-104.429
  0
LINE
  8
0
 10
144.5
 20
-106
 11
144.5
 21
-85
  0
LINE
  8
0
 10
144.5
 20
-85
 11
154.5
 21
-85
  0
LINE
  8
0
 10
154.5
 20
-85
 11
154.5
 21
-106
  0
LINE
  8
0
 10
154.5
 20
-106
 11
144.5
 21
-106
  0
LINE
  8
0
 10
128
 20
-106
 11
128
 21
-85
  0
LINE
  8
0
 10
128
 20
-85
 11
138
 21
-85
  0
LINE
  8
0
 10
138
 20
-85
 11
138
 21
-106
  0
LINE
  8
0
 10
138
 20
-106
 11
128
 21
-106
  0
LINE
  8
0
 10
232.88
 20
-97.1437
 11
232.645
 21
-97.0937
  0
LINE
  8
0
 10
232.645
 20
-97.0937
 11
232.425
 21
-96.9959
  0
LINE
  8
0
 10
232.425
 20
-96.9959
 11
232.23
 21
-96.8546
  0
LINE
  8
0
 10
232.23
 20
-96.8546
 11
232.07
 21
-96.6759
  0
LINE
  8
0
 10
232.07
 20
-96.6759
 11
231.949
 21
-96.4677
  0
LINE
  8
0
 10
231.949
 20
-96.4677
 11
231.875
 21
-96.2391
  0
LINE
  8
0
 10
231.875
 20
-96.2391
 11
231.85
 21
-96
  0
LINE
  8
0
 10
231.85
 20
-96
 11
231.875
 21
-95.7609
  0
LINE
  8
0
 10
231.875
 20
-95.7609
 11
231.949
 21
-95.5322
  0
LINE
  8
0
 10
231.949
 20
-95.5322
 11
232.07
 21
-95.324
  0
LINE
  8
0
 10
232.07
 20
-95.324
 11
232.23
 21
-95.1454
  0
LINE
  8
0
 10
232.23
 20
-95.1454
 11
232.425
 21
-95.0041
  0
LINE
  8
0
 10
232.425
 20
-95.0041
 11
232.645
 21
-94.9063
  0
LINE
  8
0
 10
232.645
 20
-94.9063
 11
232.88
 21
-94.8563
  0
LINE
  8
0
 10
232.88
 20
-94.8563
 11
233.12
 21
-94.8563
  0
LINE
  8
0
 10
233.12
 20
-94.8563
 11
233.355
 21
-94.9063
  0
LINE
  8
0
 10
233.355
 20
-94.9063
 11
233.575
 21
-95.0041
  0
LINE
  8
0
 10
233.575
 20
-95.0041
 11
233.769
 21
-95.1454
  0
LINE
  8
0
 10
233.769
 20
-95.1454
 11
233.93
 21
-95.324
  0
LINE
  8
0
 10
233.93
 20
-95.324
 11
234.051
 21
-95.5322
  0
LINE
  8
0
 10
234.051
 20
-95.5322
 11
234.125
 21
-95.7609
  0
LINE
  8
0
 10
234.125
 20
-95.7609
 11
234.15
 21
-96
  0
LINE
  8
0
 10
234.15
 20
-96
 11
234.125
 21
-96.2391
  0
LINE
  8
0
 10
234.125
 20
-96.2391
 11
234.051
 21
-96.4677
  0
LINE
  8
0
 10
234.051
 20
-96.4677
 11
233.93
 21
-96.6759
  0
LINE
  8
0
 10
233.93
 20
-96.6759
 11
233.769
 21
-96.8546
  0
LINE
  8
0
 10
233.769
 20
-96.8546
 11
233.575
 21
-96.9959
  0
LINE
  8
0
 10
233.575
 20
-96.9959
 11
233.355
 21
-97.0937
  0
LINE
  8
0
 10
233.355
 20
-97.0937
 11
233.12
 21
-97.1437
  0
LINE
  8
0
 10
233.12
 20
-97.1437
 11
232.88
 21
-97.1437
  0
LINE
  8
0
 10
288.88
 20
-97.1437
 11
288.645
 21
-97.0937
  0
LINE
  8
0
 10
288.645
 20
-97.0937
 11
288.425
 21
-96.9959
  0
LINE
  8
0
 10
288.425
 20
-96.9959
 11
288.23
 21
-96.8546
  0
LINE
  8
0
 10
288.23
 20
-96.8546
 11
288.07
 21
-96.6759
  0
LINE
  8
0
 10
288.07
 20
-96.6759
 11
287.949
 21
-96.4677
  0
LINE
  8
0
 10
287.949
 20
-96.4677
 11
287.875
 21
-96.2391
  0
LINE
  8
0
 10
287.875
 20
-96.2391
 11
287.85
 21
-96
  0
LINE
  8
0
 10
287.85
 20
-96
 11
287.875
 21
-95.7609
  0
LINE
  8
0
 10
287.875
 20
-95.7609
 11
287.949
 21
-95.5322
  0
LINE
  8
0
 10
287.949
 20
-95.5322
 11
288.07
 21
-95.324
  0
LINE
  8
0
 10
288.07
 20
-95.324
 11
288.23
 21
-95.1454
  0
LINE
  8
0
 10
288.23
 20
-95.1454
 11
288.425
 21
-95.0041
  0
LINE
  8
0
 10
288.425
 20
-95.0041
 11
288.645
 21
-94.9063
  0
LINE
  8
0
 10
288.645
 20
-94.9063
 11
288.88
 21
-94.8563
  0
LINE
  8
0
 10
288.88
 20
-94.8563
 11
289.12
 21
-94.8563
  0
LINE
  8
0
 10
289.12
 20
-94.8563
 11
289.355
 21
-94.9063
  0
LINE
  8
0
 10
289.355
 20
-94.9063
 11
289.575
 21
-95.0041
  0
LINE
  8
0
 10
289.575
 20
-95.0041
 11
289.769
 21
-95.1454
  0
LINE
  8
0
 10
289.769
 20
-95.1454
 11
289.93
 21
-95.324
  0
LINE
  8
0
 10
289.93
 20
-95.324
 11
290.051
 21
-95.5322
  0
LINE
  8
0
 10
290.051
 20
-95.5322
 11
290.125
 21
-95.7609
  0
LINE
  8
0
 10
290.125
 20
-95.7609
 11
290.15
 21
-96
  0
LINE
  8
0
 10
290.15
 20
-96
 11
290.125
 21
-96.2391
  0
LINE
  8
0
 10
290.125
 20
-96.2391
 11
290.051
 21
-96.4677
  0
LINE
  8
0
 10
290.051
 20
-96.4677
 11
289.93
 21
-96.6759
  0
LINE
  8
0
 10
289.93
 20
-96.6759
 11
289.769
 21
-96.8546
  0
LINE
  8
0
 10
289.769
 20
-96.8546
 11
289.575
 21
-96.9959
  0
LINE
  8
0
 10
289.575
 20
-96.9959
 11
289.355
 21
-97.0937
  0
LINE
  8
0
 10
289.355
 20
-97.0937
 11
289.12
 21
-97.1437
  0
LINE
  8
0
 10
289.12
 20
-97.1437
 11
288.88
 21
-97.1437
  0
LINE
  8
0
 10
1.87979
 20
-99.1437
 11
1.64462
 21
-99.0937
  0
LINE
  8
0
 10
1.64462
 20
-99.0937
 11
1.42499
 21
-98.9959
  0
LINE
  8
0
 10
1.42499
 20
-98.9959
 11
1.2305
 21
-98.8546
  0
LINE
  8
0
 10
1.2305
 20
-98.8546
 11
1.06963
 21
-98.6759
  0
LINE
  8
0
 10
1.06963
 20
-98.6759
 11
0.949417
 21
-98.4677
  0
LINE
  8
0
 10
0.949417
 20
-98.4677
 11
0.875122
 21
-98.2391
  0
LINE
  8
0
 10
0.875122
 20
-98.2391
 11
0.849991
 21
-98
  0
LINE
  8
0
 10
0.849991
 20
-98
 11
0.875122
 21
-97.7609
  0
LINE
  8
0
 10
0.875122
 20
-97.7609
 11
0.949417
 21
-97.5322
  0
LINE
  8
0
 10
0.949417
 20
-97.5322
 11
1.06963
 21
-97.324
  0
LINE
  8
0
 10
1.06963
 20
-97.324
 11
1.2305
 21
-97.1454
  0
LINE
  8
0
 10
1.2305
 20
-97.1454
 11
1.42499
 21
-97.0041
  0
LINE
  8
0
 10
1.42499
 20
-97.0041
 11
1.64462
 21
-96.9063
  0
LINE
  8
0
 10
1.64462
 20
-96.9063
 11
1.87979
 21
-96.8563
  0
LINE
  8
0
 10
1.87979
 20
-96.8563
 11
2.12019
 21
-96.8563
  0
LINE
  8
0
 10
2.12019
 20
-96.8563
 11
2.35536
 21
-96.9063
  0
LINE
  8
0
 10
2.35536
 20
-96.9063
 11
2.575
 21
-97.0041
  0
LINE
  8
0
 10
2.575
 20
-97.0041
 11
2.76949
 21
-97.1454
  0
LINE
  8
0
 10
2.76949
 20
-97.1454
 11
2.93036
 21
-97.324
  0
LINE
  8
0
 10
2.93036
 20
-97.324
 11
3.05057
 21
-97.5322
  0
LINE
  8
0
 10
3.05057
 20
-97.5322
 11
3.12486
 21
-97.7609
  0
LINE
  8
0
 10
3.12486
 20
-97.7609
 11
3.14999
 21
-98
  0
LINE
  8
0
 10
3.14999
 20
-98
 11
3.12486
 21
-98.2391
  0
LINE
  8
0
 10
3.12486
 20
-98.2391
 11
3.05057
 21
-98.4677
  0
LINE
  8
0
 10
3.05057
 20
-98.4677
 11
2.93036
 21
-98.6759
  0
LINE
  8
0
 10
2.93036
 20
-98.6759
 11
2.76949
 21
-98.8546
  0
LINE
  8
0
 10
2.76949
 20
-98.8546
 11
2.575
 21
-98.9959
  0
LINE
  8
0
 10
2.575
 20
-98.9959
 11
2.35536
 21
-99.0937
  0
LINE
  8
0
 10
2.35536
 20
-99.0937
 11
2.12019
 21
-99.1437
  0
LINE
  8
0
 10
2.12019
 20
-99.1437
 11
1.87979
 21
-99.1437
  0
LINE
  8
0
 10
48.8798
 20
-99.1437
 11
48.6446
 21
-99.0937
  0
LINE
  8
0
 10
48.6446
 20
-99.0937
 11
48.425
 21
-98.9959
  0
LINE
  8
0
 10
48.425
 20
-98.9959
 11
48.2305
 21
-98.8546
  0
LINE
  8
0
 10
48.2305
 20
-98.8546
 11
48.0696
 21
-98.6759
  0
LINE
  8
0
 10
48.0696
 20
-98.6759
 11
47.9494
 21
-98.4677
  0
LINE
  8
0
 10
47.9494
 20
-98.4677
 11
47.8751
 21
-98.2391
  0
LINE
  8
0
 10
47.8751
 20
-98.2391
 11
47.85
 21
-98
  0
LINE
  8
0
 10
47.85
 20
-98
 11
47.8751
 21
-97.7609
  0
LINE
  8
0
 10
47.8751
 20
-97.7609
 11
47.9494
 21
-97.5322
  0
LINE
  8
0
 10
47.9494
 20
-97.5322
 11
48.0696
 21
-97.324
  0
LINE
  8
0
 10
48.0696
 20
-97.324
 11
48.2305
 21
-97.1454
  0
LINE
  8
0
 10
48.2305
 20
-97.1454
 11
48.425
 21
-97.0041
  0
LINE
  8
0
 10
48.425
 20
-97.0041
 11
48.6446
 21
-96.9063
  0
LINE
  8
0
 10
48.6446
 20
-96.9063
 11
48.8798
 21
-96.8563
  0
LINE
  8
0
 10
48.8798
 20
-96.8563
 11
49.1202
 21
-96.8563
  0
LINE
  8
0
 10
49.1202
 20
-96.8563
 11
49.3554
 21
-96.9063
  0
LINE
  8
0
 10
49.3554
 20
-96.9063
 11
49.575
 21
-97.0041
  0
LINE
  8
0
 10
49.575
 20
-97.0041
 11
49.7695
 21
-97.1454
  0
LINE
  8
0
 10
49.7695
 20
-97.1454
 11
49.9304
 21
-97.324
  0
LINE
  8
0
 10
49.9304
 20
-97.324
 11
50.0506
 21
-97.5322
  0
LINE
  8
0
 10
50.0506
 20
-97.5322
 11
50.1249
 21
-97.7609
  0
LINE
  8
0
 10
50.1249
 20
-97.7609
 11
50.15
 21
-98
  0
LINE
  8
0
 10
50.15
 20
-98
 11
50.1249
 21
-98.2391
  0
LINE
  8
0
 10
50.1249
 20
-98.2391
 11
50.0506
 21
-98.4677
  0
LINE
  8
0
 10
50.0506
 20
-98.4677
 11
49.9304
 21
-98.6759
  0
LINE
  8
0
 10
49.9304
 20
-98.6759
 11
49.7695
 21
-98.8546
  0
LINE
  8
0
 10
49.7695
 20
-98.8546
 11
49.575
 21
-98.9959
  0
LINE
  8
0
 10
49.575
 20
-98.9959
 11
49.3554
 21
-99.0937
  0
LINE
  8
0
 10
49.3554
 20
-99.0937
 11
49.1202
 21
-99.1437
  0
LINE
  8
0
 10
49.1202
 20
-99.1437
 11
48.8798
 21
-99.1437
  0
LINE
  8
0
 10
123.88
 20
-112.144
 11
123.645
 21
-112.094
  0
LINE
  8
0
 10
123.645
 20
-112.094
 11
123.425
 21
-111.996
  0
LINE
  8
0
 10
123.425
 20
-111.996
 11
123.23
 21
-111.855
  0
LINE
  8
0
 10
123.23
 20
-111.855
 11
123.07
 21
-111.676
  0
LINE
  8
0
 10
123.07
 20
-111.676
 11
122.949
 21
-111.468
  0
LINE
  8
0
 10
122.949
 20
-111.468
 11
122.875
 21
-111.239
  0
LINE
  8
0
 10
122.875
 20
-111.239
 11
122.85
 21
-111
  0
LINE
  8
0
 10
122.85
 20
-111
 11
122.875
 21
-110.761
  0
LINE
  8
0
 10
122.875
 20
-110.761
 11
122.949
 21
-110.532
  0
LINE
  8
0
 10
122.949
 20
-110.532
 11
123.07
 21
-110.324
  0
LINE
  8
0
 10
123.07
 20
-110.324
 11
123.23
 21
-110.145
  0
LINE
  8
0
 10
123.23
 20
-110.145
 11
123.425
 21
-110.004
  0
LINE
  8
0
 10
123.425
 20
-110.004
 11
123.645
 21
-109.906
  0
LINE
  8
0
 10
123.645
 20
-109.906
 11
123.88
 21
-109.856
  0
LINE
  8
0
 10
123.88
 20
-109.856
 11
124.12
 21
-109.856
  0
LINE
  8
0
 10
124.12
 20
-109.856
 11
124.355
 21
-109.906
  0
LINE
  8
0
 10
124.355
 20
-109.906
 11
124.575
 21
-110.004
  0
LINE
  8
0
 10
124.575
 20
-110.004
 11
124.769
 21
-110.145
  0
LINE
  8
0
 10
124.769
 20
-110.145
 11
124.93
 21
-110.324
  0
LINE
  8
0
 10
124.93
 20
-110.324
 11
125.051
 21
-110.532
  0
LINE
  8
0
 10
125.051
 20
-110.532
 11
125.125
 21
-110.761
  0
LINE
  8
0
 10
125.125
 20
-110.761
 11
125.15
 21
-111
  0
LINE
  8
0
 10
125.15
 20
-111
 11
125.125
 21
-111.239
  0
LINE
  8
0
 10
125.125
 20
-111.239
 11
125.051
 21
-111.468
  0
LINE
  8
0
 10
125.051
 20
-111.468
 11
124.93
 21
-111.676
  0
LINE
  8
0
 10
124.93
 20
-111.676
 11
124.769
 21
-111.855
  0
LINE
  8
0
 10
124.769
 20
-111.855
 11
124.575
 21
-111.996
  0
LINE
  8
0
 10
124.575
 20
-111.996
 11
124.355
 21
-112.094
  0
LINE
  8
0
 10
124.355
 20
-112.094
 11
124.12
 21
-112.144
  0
LINE
  8
0
 10
124.12
 20
-112.144
 11
123.88
 21
-112.144
  0
LINE
  8
0
 10
148.88
 20
-112.144
 11
148.645
 21
-112.094
  0
LINE
  8
0
 10
148.645
 20
-112.094
 11
148.425
 21
-111.996
  0
LINE
  8
0
 10
148.425
 20
-111.996
 11
148.23
 21
-111.855
  0
LINE
  8
0
 10
148.23
 20
-111.855
 11
148.07
 21
-111.676
  0
LINE
  8
0
 10
148.07
 20
-111.676
 11
147.949
 21
-111.468
  0
LINE
  8
0
 10
147.949
 20
-111.468
 11
147.875
 21
-111.239
  0
LINE
  8
0
 10
147.875
 20
-111.239
 11
147.85
 21
-111
  0
LINE
  8
0
 10
147.85
 20
-111
 11
147.875
 21
-110.761
  0
LINE
  8
0
 10
147.875
 20
-110.761
 11
147.949
 21
-110.532
  0
LINE
  8
0
 10
147.949
 20
-110.532
 11
148.07
 21
-110.324
  0
LINE
  8
0
 10
148.07
 20
-110.324
 11
148.23
 21
-110.145
  0
LINE
  8
0
 10
148.23
 20
-110.145
 11
148.425
 21
-110.004
  0
LINE
  8
0
 10
148.425
 20
-110.004
 11
148.645
 21
-109.906
  0
LINE
  8
0
 10
148.645
 20
-109.906
 11
148.88
 21
-109.856
  0
LINE
  8
0
 10
148.88
 20
-109.856
 11
149.12
 21
-109.856
  0
LINE
  8
0
 10
149.12
 20
-109.856
 11
149.355
 21
-109.906
  0
LINE
  8
0
 10
149.355
 20
-109.906
 11
149.575
 21
-110.004
  0
LINE
  8
0
 10
149.575
 20
-110.004
 11
149.769
 21
-110.145
  0
LINE
  8
0
 10
149.769
 20
-110.145
 11
149.93
 21
-110.324
  0
LINE
  8
0
 10
149.93
 20
-110.324
 11
150.051
 21
-110.532
  0
LINE
  8
0
 10
150.051
 20
-110.532
 11
150.125
 21
-110.761
  0
LINE
  8
0
 10
150.125
 20
-110.761
 11
150.15
 21
-111
  0
LINE
  8
0
 10
150.15
 20
-111
 11
150.125
 21
-111.239
  0
LINE
  8
0
 10
150.125
 20
-111.239
 11
150.051
 21
-111.468
  0
LINE
  8
0
 10
150.051
 20
-111.468
 11
149.93
 21
-111.676
  0
LINE
  8
0
 10
149.93
 20
-111.676
 11
149.769
 21
-111.855
  0
LINE
  8
0
 10
149.769
 20
-111.855
 11
149.575
 21
-111.996
  0
LINE
  8
0
 10
149.575
 20
-111.996
 11
149.355
 21
-112.094
  0
LINE
  8
0
 10
149.355
 20
-112.094
 11
149.12
 21
-112.144
  0
LINE
  8
0
 10
149.12
 20
-112.144
 11
148.88
 21
-112.144
  0
ENDSEC
  0
SECTION
  2
OBJECTS
  0
DICTIONARY
  0
ENDSEC
  0
EOF
