  0
SECTION
  2
BLOCKS
  0
ENDSEC
  0
SECTION
  2
ENTITIES
  0
LINE
  8
0
 10
150.016
 20
-113.604
 11
233.445
 21
-98.8369
  0
LINE
  8
0
 10
233.445
 20
-98.8369
 11
288.544
 21
-98.8369
  0
LINE
  8
0
 10
288.544
 20
-98.8369
 11
290.492
 21
-98.5118
  0
LINE
  8
0
 10
290.492
 20
-98.5118
 11
292.229
 21
-97.5718
  0
LINE
  8
0
 10
292.229
 20
-97.5718
 11
293.567
 21
-96.1186
  0
LINE
  8
0
 10
293.567
 20
-96.1186
 11
294.459
 21
-93.8424
  0
LINE
  8
0
 10
294.459
 20
-93.8424
 11
295.112
 21
-90
  0
LINE
  8
0
 10
295.112
 20
-90
 11
289.533
 21
-90
  0
LINE
  8
0
 10
289.533
 20
-90
 11
289.037
 21
-92.9207
  0
LINE
  8
0
 10
289.037
 20
-92.9207
 11
288.544
 21
-93.3369
  0
LINE
  8
0
 10
288.544
 20
-93.3369
 11
232.962
 21
-93.3369
  0
LINE
  8
0
 10
232.962
 20
-93.3369
 11
149.058
 21
-108.189
  0
LINE
  8
0
 10
149.058
 20
-108.189
 11
148.971
 21
-108.196
  0
LINE
  8
0
 10
148.971
 20
-108.196
 11
124.206
 21
-108.196
  0
LINE
  8
0
 10
124.206
 20
-108.196
 11
124.12
 21
-108.189
  0
LINE
  8
0
 10
124.12
 20
-108.189
 11
50.1216
 21
-95.2422
  0
LINE
  8
0
 10
50.1216
 20
-95.2422
 11
2.28613
 21
-95.2422
  0
LINE
  8
0
 10
2.28613
 20
-95.2422
 11
1.78989
 21
-94.8034
  0
LINE
  8
0
 10
1.78989
 20
-94.8034
 11
1.19743
 21
-90
  0
LINE
  8
0
 10
1.19743
 20
-90
 11
-4.34424
 21
-90
  0
LINE
  8
0
 10
-4.34424
 20
-90
 11
-3.66875
 21
-95.4767
  0
LINE
  8
0
 10
-3.66875
 20
-95.4767
 11
-3.1076
 21
-97.3704
  0
LINE
  8
0
 10
-3.1076
 20
-97.3704
 11
-1.96198
 21
-98.9794
  0
LINE
  8
0
 10
-1.96198
 20
-98.9794
 11
-0.356003
 21
-100.129
  0
LINE
  8
0
 10
-0.356003
 20
-100.129
 11
2.28613
 21
-100.742
  0
LINE
  8
0
 10
2.28613
 20
-100.742
 11
49.6442
 21
-100.742
  0
LINE
  8
0
 10
49.6442
 20
-100.742
 11
123.172
 21
-113.607
  0
LINE
  8
0
 10
123.172
 20
-113.607
 11
124.206
 21
-113.696
  0
LINE
  8
0
 10
124.206
 20
-113.696
 11
148.971
 21
-113.696
  0
LINE
  8
0
 10
148.971
 20
-113.696
 11
150.016
 21
-113.604
  0
LINE
  8
0
 10
288.88
 20
-97.1437
 11
288.645
 21
-97.0937
  0
LINE
  8
0
 10
288.645
 20
-97.0937
 11
288.425
 21
-96.9959
  0
LINE
  8
0
 10
288.425
 20
-96.9959
 11
288.23
 21
-96.8546
  0
LINE
  8
0
 10
288.23
 20
-96.8546
 11
288.07
 21
-96.6759
  0
LINE
  8
0
 10
288.07
 20
-96.6759
 11
287.949
 21
-96.4677
  0
LINE
  8
0
 10
287.949
 20
-96.4677
 11
287.875
 21
-96.2391
  0
LINE
  8
0
 10
287.875
 20
-96.2391
 11
287.85
 21
-96
  0
LINE
  8
0
 10
287.85
 20
-96
 11
287.875
 21
-95.7609
  0
LINE
  8
0
 10
287.875
 20
-95.7609
 11
287.949
 21
-95.5322
  0
LINE
  8
0
 10
287.949
 20
-95.5322
 11
288.07
 21
-95.324
  0
LINE
  8
0
 10
288.07
 20
-95.324
 11
288.23
 21
-95.1454
  0
LINE
  8
0
 10
288.23
 20
-95.1454
 11
288.425
 21
-95.0041
  0
LINE
  8
0
 10
288.425
 20
-95.0041
 11
288.645
 21
-94.9063
  0
LINE
  8
0
 10
288.645
 20
-94.9063
 11
288.88
 21
-94.8563
  0
LINE
  8
0
 10
288.88
 20
-94.8563
 11
289.12
 21
-94.8563
  0
LINE
  8
0
 10
289.12
 20
-94.8563
 11
289.355
 21
-94.9063
  0
LINE
  8
0
 10
289.355
 20
-94.9063
 11
289.575
 21
-95.0041
  0
LINE
  8
0
 10
289.575
 20
-95.0041
 11
289.769
 21
-95.1454
  0
LINE
  8
0
 10
289.769
 20
-95.1454
 11
289.93
 21
-95.324
  0
LINE
  8
0
 10
289.93
 20
-95.324
 11
290.051
 21
-95.5322
  0
LINE
  8
0
 10
290.051
 20
-95.5322
 11
290.125
 21
-95.7609
  0
LINE
  8
0
 10
290.125
 20
-95.7609
 11
290.15
 21
-96
  0
LINE
  8
0
 10
290.15
 20
-96
 11
290.125
 21
-96.2391
  0
LINE
  8
0
 10
290.125
 20
-96.2391
 11
290.051
 21
-96.4677
  0
LINE
  8
0
 10
290.051
 20
-96.4677
 11
289.93
 21
-96.6759
  0
LINE
  8
0
 10
289.93
 20
-96.6759
 11
289.769
 21
-96.8546
  0
LINE
  8
0
 10
289.769
 20
-96.8546
 11
289.575
 21
-96.9959
  0
LINE
  8
0
 10
289.575
 20
-96.9959
 11
289.355
 21
-97.0937
  0
LINE
  8
0
 10
289.355
 20
-97.0937
 11
289.12
 21
-97.1437
  0
LINE
  8
0
 10
289.12
 20
-97.1437
 11
288.88
 21
-97.1437
  0
LINE
  8
0
 10
232.88
 20
-97.1437
 11
232.645
 21
-97.0937
  0
LINE
  8
0
 10
232.645
 20
-97.0937
 11
232.425
 21
-96.9959
  0
LINE
  8
0
 10
232.425
 20
-96.9959
 11
232.23
 21
-96.8546
  0
LINE
  8
0
 10
232.23
 20
-96.8546
 11
232.07
 21
-96.6759
  0
LINE
  8
0
 10
232.07
 20
-96.6759
 11
231.949
 21
-96.4677
  0
LINE
  8
0
 10
231.949
 20
-96.4677
 11
231.875
 21
-96.2391
  0
LINE
  8
0
 10
231.875
 20
-96.2391
 11
231.85
 21
-96
  0
LINE
  8
0
 10
231.85
 20
-96
 11
231.875
 21
-95.7609
  0
LINE
  8
0
 10
231.875
 20
-95.7609
 11
231.949
 21
-95.5322
  0
LINE
  8
0
 10
231.949
 20
-95.5322
 11
232.07
 21
-95.324
  0
LINE
  8
0
 10
232.07
 20
-95.324
 11
232.23
 21
-95.1454
  0
LINE
  8
0
 10
232.23
 20
-95.1454
 11
232.425
 21
-95.0041
  0
LINE
  8
0
 10
232.425
 20
-95.0041
 11
232.645
 21
-94.9063
  0
LINE
  8
0
 10
232.645
 20
-94.9063
 11
232.88
 21
-94.8563
  0
LINE
  8
0
 10
232.88
 20
-94.8563
 11
233.12
 21
-94.8563
  0
LINE
  8
0
 10
233.12
 20
-94.8563
 11
233.355
 21
-94.9063
  0
LINE
  8
0
 10
233.355
 20
-94.9063
 11
233.575
 21
-95.0041
  0
LINE
  8
0
 10
233.575
 20
-95.0041
 11
233.769
 21
-95.1454
  0
LINE
  8
0
 10
233.769
 20
-95.1454
 11
233.93
 21
-95.324
  0
LINE
  8
0
 10
233.93
 20
-95.324
 11
234.051
 21
-95.5322
  0
LINE
  8
0
 10
234.051
 20
-95.5322
 11
234.125
 21
-95.7609
  0
LINE
  8
0
 10
234.125
 20
-95.7609
 11
234.15
 21
-96
  0
LINE
  8
0
 10
234.15
 20
-96
 11
234.125
 21
-96.2391
  0
LINE
  8
0
 10
234.125
 20
-96.2391
 11
234.051
 21
-96.4677
  0
LINE
  8
0
 10
234.051
 20
-96.4677
 11
233.93
 21
-96.6759
  0
LINE
  8
0
 10
233.93
 20
-96.6759
 11
233.769
 21
-96.8546
  0
LINE
  8
0
 10
233.769
 20
-96.8546
 11
233.575
 21
-96.9959
  0
LINE
  8
0
 10
233.575
 20
-96.9959
 11
233.355
 21
-97.0937
  0
LINE
  8
0
 10
233.355
 20
-97.0937
 11
233.12
 21
-97.1437
  0
LINE
  8
0
 10
233.12
 20
-97.1437
 11
232.88
 21
-97.1437
  0
LINE
  8
0
 10
48.8798
 20
-99.1437
 11
48.6446
 21
-99.0937
  0
LINE
  8
0
 10
48.6446
 20
-99.0937
 11
48.425
 21
-98.9959
  0
LINE
  8
0
 10
48.425
 20
-98.9959
 11
48.2305
 21
-98.8546
  0
LINE
  8
0
 10
48.2305
 20
-98.8546
 11
48.0696
 21
-98.6759
  0
LINE
  8
0
 10
48.0696
 20
-98.6759
 11
47.9494
 21
-98.4677
  0
LINE
  8
0
 10
47.9494
 20
-98.4677
 11
47.8751
 21
-98.2391
  0
LINE
  8
0
 10
47.8751
 20
-98.2391
 11
47.85
 21
-98
  0
LINE
  8
0
 10
47.85
 20
-98
 11
47.8751
 21
-97.7609
  0
LINE
  8
0
 10
47.8751
 20
-97.7609
 11
47.9494
 21
-97.5322
  0
LINE
  8
0
 10
47.9494
 20
-97.5322
 11
48.0696
 21
-97.324
  0
LINE
  8
0
 10
48.0696
 20
-97.324
 11
48.2305
 21
-97.1454
  0
LINE
  8
0
 10
48.2305
 20
-97.1454
 11
48.425
 21
-97.0041
  0
LINE
  8
0
 10
48.425
 20
-97.0041
 11
48.6446
 21
-96.9063
  0
LINE
  8
0
 10
48.6446
 20
-96.9063
 11
48.8798
 21
-96.8563
  0
LINE
  8
0
 10
48.8798
 20
-96.8563
 11
49.1202
 21
-96.8563
  0
LINE
  8
0
 10
49.1202
 20
-96.8563
 11
49.3554
 21
-96.9063
  0
LINE
  8
0
 10
49.3554
 20
-96.9063
 11
49.575
 21
-97.0041
  0
LINE
  8
0
 10
49.575
 20
-97.0041
 11
49.7695
 21
-97.1454
  0
LINE
  8
0
 10
49.7695
 20
-97.1454
 11
49.9304
 21
-97.324
  0
LINE
  8
0
 10
49.9304
 20
-97.324
 11
50.0506
 21
-97.5322
  0
LINE
  8
0
 10
50.0506
 20
-97.5322
 11
50.1249
 21
-97.7609
  0
LINE
  8
0
 10
50.1249
 20
-97.7609
 11
50.15
 21
-98
  0
LINE
  8
0
 10
50.15
 20
-98
 11
50.1249
 21
-98.2391
  0
LINE
  8
0
 10
50.1249
 20
-98.2391
 11
50.0506
 21
-98.4677
  0
LINE
  8
0
 10
50.0506
 20
-98.4677
 11
49.9304
 21
-98.6759
  0
LINE
  8
0
 10
49.9304
 20
-98.6759
 11
49.7695
 21
-98.8546
  0
LINE
  8
0
 10
49.7695
 20
-98.8546
 11
49.575
 21
-98.9959
  0
LINE
  8
0
 10
49.575
 20
-98.9959
 11
49.3554
 21
-99.0937
  0
LINE
  8
0
 10
49.3554
 20
-99.0937
 11
49.1202
 21
-99.1437
  0
LINE
  8
0
 10
49.1202
 20
-99.1437
 11
48.8798
 21
-99.1437
  0
LINE
  8
0
 10
1.87979
 20
-99.1437
 11
1.64462
 21
-99.0937
  0
LINE
  8
0
 10
1.64462
 20
-99.0937
 11
1.42499
 21
-98.9959
  0
LINE
  8
0
 10
1.42499
 20
-98.9959
 11
1.2305
 21
-98.8546
  0
LINE
  8
0
 10
1.2305
 20
-98.8546
 11
1.06963
 21
-98.6759
  0
LINE
  8
0
 10
1.06963
 20
-98.6759
 11
0.949417
 21
-98.4677
  0
LINE
  8
0
 10
0.949417
 20
-98.4677
 11
0.875122
 21
-98.2391
  0
LINE
  8
0
 10
0.875122
 20
-98.2391
 11
0.849991
 21
-98
  0
LINE
  8
0
 10
0.849991
 20
-98
 11
0.875122
 21
-97.7609
  0
LINE
  8
0
 10
0.875122
 20
-97.7609
 11
0.949417
 21
-97.5322
  0
LINE
  8
0
 10
0.949417
 20
-97.5322
 11
1.06963
 21
-97.324
  0
LINE
  8
0
 10
1.06963
 20
-97.324
 11
1.2305
 21
-97.1454
  0
LINE
  8
0
 10
1.2305
 20
-97.1454
 11
1.42499
 21
-97.0041
  0
LINE
  8
0
 10
1.42499
 20
-97.0041
 11
1.64462
 21
-96.9063
  0
LINE
  8
0
 10
1.64462
 20
-96.9063
 11
1.87979
 21
-96.8563
  0
LINE
  8
0
 10
1.87979
 20
-96.8563
 11
2.12019
 21
-96.8563
  0
LINE
  8
0
 10
2.12019
 20
-96.8563
 11
2.35536
 21
-96.9063
  0
LINE
  8
0
 10
2.35536
 20
-96.9063
 11
2.575
 21
-97.0041
  0
LINE
  8
0
 10
2.575
 20
-97.0041
 11
2.76949
 21
-97.1454
  0
LINE
  8
0
 10
2.76949
 20
-97.1454
 11
2.93036
 21
-97.324
  0
LINE
  8
0
 10
2.93036
 20
-97.324
 11
3.05057
 21
-97.5322
  0
LINE
  8
0
 10
3.05057
 20
-97.5322
 11
3.12486
 21
-97.7609
  0
LINE
  8
0
 10
3.12486
 20
-97.7609
 11
3.14999
 21
-98
  0
LINE
  8
0
 10
3.14999
 20
-98
 11
3.12486
 21
-98.2391
  0
LINE
  8
0
 10
3.12486
 20
-98.2391
 11
3.05057
 21
-98.4677
  0
LINE
  8
0
 10
3.05057
 20
-98.4677
 11
2.93036
 21
-98.6759
  0
LINE
  8
0
 10
2.93036
 20
-98.6759
 11
2.76949
 21
-98.8546
  0
LINE
  8
0
 10
2.76949
 20
-98.8546
 11
2.575
 21
-98.9959
  0
LINE
  8
0
 10
2.575
 20
-98.9959
 11
2.35536
 21
-99.0937
  0
LINE
  8
0
 10
2.35536
 20
-99.0937
 11
2.12019
 21
-99.1437
  0
LINE
  8
0
 10
2.12019
 20
-99.1437
 11
1.87979
 21
-99.1437
  0
LINE
  8
0
 10
148.88
 20
-112.144
 11
148.645
 21
-112.094
  0
LINE
  8
0
 10
148.645
 20
-112.094
 11
148.425
 21
-111.996
  0
LINE
  8
0
 10
148.425
 20
-111.996
 11
148.23
 21
-111.855
  0
LINE
  8
0
 10
148.23
 20
-111.855
 11
148.07
 21
-111.676
  0
LINE
  8
0
 10
148.07
 20
-111.676
 11
147.949
 21
-111.468
  0
LINE
  8
0
 10
147.949
 20
-111.468
 11
147.875
 21
-111.239
  0
LINE
  8
0
 10
147.875
 20
-111.239
 11
147.85
 21
-111
  0
LINE
  8
0
 10
147.85
 20
-111
 11
147.875
 21
-110.761
  0
LINE
  8
0
 10
147.875
 20
-110.761
 11
147.949
 21
-110.532
  0
LINE
  8
0
 10
147.949
 20
-110.532
 11
148.07
 21
-110.324
  0
LINE
  8
0
 10
148.07
 20
-110.324
 11
148.23
 21
-110.145
  0
LINE
  8
0
 10
148.23
 20
-110.145
 11
148.425
 21
-110.004
  0
LINE
  8
0
 10
148.425
 20
-110.004
 11
148.645
 21
-109.906
  0
LINE
  8
0
 10
148.645
 20
-109.906
 11
148.88
 21
-109.856
  0
LINE
  8
0
 10
148.88
 20
-109.856
 11
149.12
 21
-109.856
  0
LINE
  8
0
 10
149.12
 20
-109.856
 11
149.355
 21
-109.906
  0
LINE
  8
0
 10
149.355
 20
-109.906
 11
149.575
 21
-110.004
  0
LINE
  8
0
 10
149.575
 20
-110.004
 11
149.769
 21
-110.145
  0
LINE
  8
0
 10
149.769
 20
-110.145
 11
149.93
 21
-110.324
  0
LINE
  8
0
 10
149.93
 20
-110.324
 11
150.051
 21
-110.532
  0
LINE
  8
0
 10
150.051
 20
-110.532
 11
150.125
 21
-110.761
  0
LINE
  8
0
 10
150.125
 20
-110.761
 11
150.15
 21
-111
  0
LINE
  8
0
 10
150.15
 20
-111
 11
150.125
 21
-111.239
  0
LINE
  8
0
 10
150.125
 20
-111.239
 11
150.051
 21
-111.468
  0
LINE
  8
0
 10
150.051
 20
-111.468
 11
149.93
 21
-111.676
  0
LINE
  8
0
 10
149.93
 20
-111.676
 11
149.769
 21
-111.855
  0
LINE
  8
0
 10
149.769
 20
-111.855
 11
149.575
 21
-111.996
  0
LINE
  8
0
 10
149.575
 20
-111.996
 11
149.355
 21
-112.094
  0
LINE
  8
0
 10
149.355
 20
-112.094
 11
149.12
 21
-112.144
  0
LINE
  8
0
 10
149.12
 20
-112.144
 11
148.88
 21
-112.144
  0
LINE
  8
0
 10
123.88
 20
-112.144
 11
123.645
 21
-112.094
  0
LINE
  8
0
 10
123.645
 20
-112.094
 11
123.425
 21
-111.996
  0
LINE
  8
0
 10
123.425
 20
-111.996
 11
123.23
 21
-111.855
  0
LINE
  8
0
 10
123.23
 20
-111.855
 11
123.07
 21
-111.676
  0
LINE
  8
0
 10
123.07
 20
-111.676
 11
122.949
 21
-111.468
  0
LINE
  8
0
 10
122.949
 20
-111.468
 11
122.875
 21
-111.239
  0
LINE
  8
0
 10
122.875
 20
-111.239
 11
122.85
 21
-111
  0
LINE
  8
0
 10
122.85
 20
-111
 11
122.875
 21
-110.761
  0
LINE
  8
0
 10
122.875
 20
-110.761
 11
122.949
 21
-110.532
  0
LINE
  8
0
 10
122.949
 20
-110.532
 11
123.07
 21
-110.324
  0
LINE
  8
0
 10
123.07
 20
-110.324
 11
123.23
 21
-110.145
  0
LINE
  8
0
 10
123.23
 20
-110.145
 11
123.425
 21
-110.004
  0
LINE
  8
0
 10
123.425
 20
-110.004
 11
123.645
 21
-109.906
  0
LINE
  8
0
 10
123.645
 20
-109.906
 11
123.88
 21
-109.856
  0
LINE
  8
0
 10
123.88
 20
-109.856
 11
124.12
 21
-109.856
  0
LINE
  8
0
 10
124.12
 20
-109.856
 11
124.355
 21
-109.906
  0
LINE
  8
0
 10
124.355
 20
-109.906
 11
124.575
 21
-110.004
  0
LINE
  8
0
 10
124.575
 20
-110.004
 11
124.769
 21
-110.145
  0
LINE
  8
0
 10
124.769
 20
-110.145
 11
124.93
 21
-110.324
  0
LINE
  8
0
 10
124.93
 20
-110.324
 11
125.051
 21
-110.532
  0
LINE
  8
0
 10
125.051
 20
-110.532
 11
125.125
 21
-110.761
  0
LINE
  8
0
 10
125.125
 20
-110.761
 11
125.15
 21
-111
  0
LINE
  8
0
 10
125.15
 20
-111
 11
125.125
 21
-111.239
  0
LINE
  8
0
 10
125.125
 20
-111.239
 11
125.051
 21
-111.468
  0
LINE
  8
0
 10
125.051
 20
-111.468
 11
124.93
 21
-111.676
  0
LINE
  8
0
 10
124.93
 20
-111.676
 11
124.769
 21
-111.855
  0
LINE
  8
0
 10
124.769
 20
-111.855
 11
124.575
 21
-111.996
  0
LINE
  8
0
 10
124.575
 20
-111.996
 11
124.355
 21
-112.094
  0
LINE
  8
0
 10
124.355
 20
-112.094
 11
124.12
 21
-112.144
  0
LINE
  8
0
 10
124.12
 20
-112.144
 11
123.88
 21
-112.144
  0
ENDSEC
  0
SECTION
  2
OBJECTS
  0
DICTIONARY
  0
ENDSEC
  0
EOF
