  0
SECTION
  2
HEADER
  9
$ANGBASE
  50
0.0
  9
$ANGDIR
  70
1
  9
$MEASUREMENT
  70
1
  0
ENDSEC
  0
SECTION
  2
TABLES
  0
TABLE
  2
LTYPE
  70
4
  0
LTYPE
  5
40F
  2
CONTINUOUS
  70
0
  3
Solid line
  72
65
  73
0
  40
0.0
  0
LTYPE
  5
410
  2
DASHDOT
 70
0
  3
Dash Dot ____ _ ____ _
 72
65
 73
4
 40
2.0
 49
1.25
 49
-0.25
 49
0.25
 49
-0.25
  0
LTYPE
  5
411
  2
DASHED
 70
0
  3
Dashed __ __ __ __ __
 72
65
 73
2
 40
0.75
 49
0.5
 49
-0.25
  0
LTYPE
  5
43B
  2
DOTTED
 70
0
  3
Dotted .  .  .  .
 72
65
 73
2
 40
0.2
 49
0.0
 49
-0.2
  0
ENDTAB
  0
TABLE
  2
STYLE
  70
4
  0
STYLE
  2
KICAD
  70
0
  40
0
  41
1
  42
1
  50
0
  71
0
  3
isocp.shx
  0
STYLE
  2
KICADB
  70
0
  40
0
  41
1
  42
1
  50
0
  71
0
  3
isocp.shx
  0
STYLE
  2
KICADI
  70
0
  40
0
  41
1
  42
1
  50
15
  71
0
  3
isocp.shx
  0
STYLE
  2
KICADBI
  70
0
  40
0
  41
1
  42
1
  50
15
  71
0
  3
isocp.shx
  0
ENDTAB
  0
TABLE
  2
LAYER
  70
1
  0
LAYER
  2
BLACK
  70
0
  62
7
  6
CONTINUOUS
  0
ENDTAB
  0
ENDSEC
  0
SECTION
  2
ENTITIES
0
LINE
8
BLACK
6
CONTINUOUS
10
122.106
20
-104.796
11
108.319
21
-102.365
0
LINE
8
BLACK
6
CONTINUOUS
10
108.319
20
-102.365
11
110.75
21
-88.5774
0
LINE
8
BLACK
6
CONTINUOUS
10
110.75
20
-88.5774
11
124.537
21
-91.0085
0
LINE
8
BLACK
6
CONTINUOUS
10
124.537
20
-91.0085
11
122.106
21
-104.796
0
LINE
8
BLACK
6
CONTINUOUS
10
264.672
20
-37.8688
11
278.672
21
-37.8688
0
LINE
8
BLACK
6
CONTINUOUS
10
278.672
20
-37.8688
11
278.672
21
-51.8688
0
LINE
8
BLACK
6
CONTINUOUS
10
278.672
20
-51.8688
11
264.672
21
-51.8688
0
LINE
8
BLACK
6
CONTINUOUS
10
264.672
20
-51.8688
11
264.672
21
-37.8688
0
LINE
8
BLACK
6
CONTINUOUS
10
9.5735
20
-59.167
11
23.5735
21
-59.167
0
LINE
8
BLACK
6
CONTINUOUS
10
23.5735
20
-59.167
11
23.5735
21
-73.167
0
LINE
8
BLACK
6
CONTINUOUS
10
23.5735
20
-73.167
11
9.5735
21
-73.167
0
LINE
8
BLACK
6
CONTINUOUS
10
9.5735
20
-73.167
11
9.5735
21
-59.167
0
LINE
8
BLACK
6
CONTINUOUS
10
269.63
20
-76.3209
11
283.63
21
-76.3209
0
LINE
8
BLACK
6
CONTINUOUS
10
283.63
20
-76.3209
11
283.63
21
-90.3209
0
LINE
8
BLACK
6
CONTINUOUS
10
283.63
20
-90.3209
11
269.63
21
-90.3209
0
LINE
8
BLACK
6
CONTINUOUS
10
269.63
20
-90.3209
11
269.63
21
-76.3209
0
LINE
8
BLACK
6
CONTINUOUS
10
245.785
20
-76.3209
11
259.785
21
-76.3209
0
LINE
8
BLACK
6
CONTINUOUS
10
259.785
20
-76.3209
11
259.785
21
-90.3209
0
LINE
8
BLACK
6
CONTINUOUS
10
259.785
20
-90.3209
11
245.785
21
-90.3209
0
LINE
8
BLACK
6
CONTINUOUS
10
245.785
20
-90.3209
11
245.785
21
-76.3209
0
LINE
8
BLACK
6
CONTINUOUS
10
159.97
20
-88.9409
11
173.757
21
-86.5098
0
LINE
8
BLACK
6
CONTINUOUS
10
173.757
20
-86.5098
11
176.188
21
-100.297
0
LINE
8
BLACK
6
CONTINUOUS
10
176.188
20
-100.297
11
162.401
21
-102.728
0
LINE
8
BLACK
6
CONTINUOUS
10
162.401
20
-102.728
11
159.97
21
-88.9409
0
LINE
8
BLACK
6
CONTINUOUS
10
272.883
20
-57.2493
11
286.883
21
-57.2493
0
LINE
8
BLACK
6
CONTINUOUS
10
286.883
20
-57.2493
11
286.883
21
-71.2493
0
LINE
8
BLACK
6
CONTINUOUS
10
286.883
20
-71.2493
11
272.883
21
-71.2493
0
LINE
8
BLACK
6
CONTINUOUS
10
272.883
20
-71.2493
11
272.883
21
-57.2493
0
LINE
8
BLACK
6
CONTINUOUS
10
70.8836
20
-81.5477
11
84.6709
21
-83.9788
0
LINE
8
BLACK
6
CONTINUOUS
10
84.6709
20
-83.9788
11
82.2398
21
-97.7661
0
LINE
8
BLACK
6
CONTINUOUS
10
82.2398
20
-97.7661
11
68.4525
21
-95.335
0
LINE
8
BLACK
6
CONTINUOUS
10
68.4525
20
-95.335
11
70.8836
21
-81.5477
0
LINE
8
BLACK
6
CONTINUOUS
10
31.0047
20
-78.217
11
45.0048
21
-78.217
0
LINE
8
BLACK
6
CONTINUOUS
10
45.0048
20
-78.217
11
45.0048
21
-92.217
0
LINE
8
BLACK
6
CONTINUOUS
10
45.0048
20
-92.217
11
31.0047
21
-92.217
0
LINE
8
BLACK
6
CONTINUOUS
10
31.0047
20
-92.217
11
31.0047
21
-78.217
0
LINE
8
BLACK
6
CONTINUOUS
10
7.19225
20
-78.217
11
21.1922
21
-78.217
0
LINE
8
BLACK
6
CONTINUOUS
10
21.1922
20
-78.217
11
21.1922
21
-92.217
0
LINE
8
BLACK
6
CONTINUOUS
10
21.1922
20
-92.217
11
7.19225
21
-92.217
0
LINE
8
BLACK
6
CONTINUOUS
10
7.19225
20
-92.217
11
7.19225
21
-78.217
0
LINE
8
BLACK
6
CONTINUOUS
10
8.24
20
-40.117
11
22.24
21
-40.117
0
LINE
8
BLACK
6
CONTINUOUS
10
22.24
20
-40.117
11
22.24
21
-54.117
0
LINE
8
BLACK
6
CONTINUOUS
10
22.24
20
-54.117
11
8.24
21
-54.117
0
LINE
8
BLACK
6
CONTINUOUS
10
8.24
20
-54.117
11
8.24
21
-40.117
0
LINE
8
BLACK
6
CONTINUOUS
10
89.2252
20
-46.0943
11
103.012
21
-48.5254
0
LINE
8
BLACK
6
CONTINUOUS
10
103.012
20
-48.5254
11
100.581
21
-62.3127
0
LINE
8
BLACK
6
CONTINUOUS
10
100.581
20
-62.3127
11
86.7941
21
-59.8816
0
LINE
8
BLACK
6
CONTINUOUS
10
86.7941
20
-59.8816
11
89.2252
21
-46.0943
0
LINE
8
BLACK
6
CONTINUOUS
10
199.836
20
-81.9114
11
213.623
21
-79.4803
0
LINE
8
BLACK
6
CONTINUOUS
10
213.623
20
-79.4803
11
216.054
21
-93.2676
0
LINE
8
BLACK
6
CONTINUOUS
10
216.054
20
-93.2676
11
202.267
21
-95.6987
0
LINE
8
BLACK
6
CONTINUOUS
10
202.267
20
-95.6987
11
199.836
21
-81.9114
0
LINE
8
BLACK
6
CONTINUOUS
10
181.075
20
-85.2194
11
194.863
21
-82.7883
0
LINE
8
BLACK
6
CONTINUOUS
10
194.863
20
-82.7883
11
197.294
21
-96.5756
0
LINE
8
BLACK
6
CONTINUOUS
10
197.294
20
-96.5756
11
183.506
21
-99.0067
0
LINE
8
BLACK
6
CONTINUOUS
10
183.506
20
-99.0067
11
181.075
21
-85.2194
0
LINE
8
BLACK
6
CONTINUOUS
10
29.703
20
-40.117
11
43.703
21
-40.117
0
LINE
8
BLACK
6
CONTINUOUS
10
43.703
20
-40.117
11
43.703
21
-54.117
0
LINE
8
BLACK
6
CONTINUOUS
10
43.703
20
-54.117
11
29.703
21
-54.117
0
LINE
8
BLACK
6
CONTINUOUS
10
29.703
20
-54.117
11
29.703
21
-40.117
0
LINE
8
BLACK
6
CONTINUOUS
10
268.438
20
-18.4127
11
282.438
21
-18.4127
0
LINE
8
BLACK
6
CONTINUOUS
10
282.438
20
-18.4127
11
282.438
21
-32.4127
0
LINE
8
BLACK
6
CONTINUOUS
10
282.438
20
-32.4127
11
268.438
21
-32.4127
0
LINE
8
BLACK
6
CONTINUOUS
10
268.438
20
-32.4127
11
268.438
21
-18.4127
0
LINE
8
BLACK
6
CONTINUOUS
10
251.458
20
-57.2493
11
265.458
21
-57.2493
0
LINE
8
BLACK
6
CONTINUOUS
10
265.458
20
-57.2493
11
265.458
21
-71.2493
0
LINE
8
BLACK
6
CONTINUOUS
10
265.458
20
-71.2493
11
251.458
21
-71.2493
0
LINE
8
BLACK
6
CONTINUOUS
10
251.458
20
-71.2493
11
251.458
21
-57.2493
0
LINE
8
BLACK
6
CONTINUOUS
10
249.337
20
-18.3873
11
263.337
21
-18.3873
0
LINE
8
BLACK
6
CONTINUOUS
10
263.337
20
-18.3873
11
263.337
21
-32.3873
0
LINE
8
BLACK
6
CONTINUOUS
10
263.337
20
-32.3873
11
249.337
21
-32.3873
0
LINE
8
BLACK
6
CONTINUOUS
10
249.337
20
-32.3873
11
249.337
21
-18.3873
0
LINE
8
BLACK
6
CONTINUOUS
10
114.058
20
-69.8168
11
127.845
21
-72.2479
0
LINE
8
BLACK
6
CONTINUOUS
10
127.845
20
-72.2479
11
125.414
21
-86.0352
0
LINE
8
BLACK
6
CONTINUOUS
10
125.414
20
-86.0352
11
111.627
21
-83.6041
0
LINE
8
BLACK
6
CONTINUOUS
10
111.627
20
-83.6041
11
114.058
21
-69.8168
0
LINE
8
BLACK
6
CONTINUOUS
10
107.986
20
-49.4023
11
121.773
21
-51.8334
0
LINE
8
BLACK
6
CONTINUOUS
10
121.773
20
-51.8334
11
119.342
21
-65.6207
0
LINE
8
BLACK
6
CONTINUOUS
10
119.342
20
-65.6207
11
105.555
21
-63.1896
0
LINE
8
BLACK
6
CONTINUOUS
10
105.555
20
-63.1896
11
107.986
21
-49.4023
0
LINE
8
BLACK
6
CONTINUOUS
10
106.604
20
-29.8148
11
120.391
21
-32.2459
0
LINE
8
BLACK
6
CONTINUOUS
10
120.391
20
-32.2459
11
117.96
21
-46.0332
0
LINE
8
BLACK
6
CONTINUOUS
10
117.96
20
-46.0332
11
104.173
21
-43.6021
0
LINE
8
BLACK
6
CONTINUOUS
10
104.173
20
-43.6021
11
106.604
21
-29.8148
0
LINE
8
BLACK
6
CONTINUOUS
10
91.9894
20
-85.2694
11
105.777
21
-87.7005
0
LINE
8
BLACK
6
CONTINUOUS
10
105.777
20
-87.7005
11
103.346
21
-101.488
0
LINE
8
BLACK
6
CONTINUOUS
10
103.346
20
-101.488
11
89.5583
21
-99.0567
0
LINE
8
BLACK
6
CONTINUOUS
10
89.5583
20
-99.0567
11
91.9894
21
-85.2694
0
LINE
8
BLACK
6
CONTINUOUS
10
232.395
20
-57.2493
11
246.395
21
-57.2493
0
LINE
8
BLACK
6
CONTINUOUS
10
246.395
20
-57.2493
11
246.395
21
-71.2493
0
LINE
8
BLACK
6
CONTINUOUS
10
246.395
20
-71.2493
11
232.395
21
-71.2493
0
LINE
8
BLACK
6
CONTINUOUS
10
232.395
20
-71.2493
11
232.395
21
-57.2493
0
LINE
8
BLACK
6
CONTINUOUS
10
238.496
20
-37.8841
11
252.496
21
-37.8841
0
LINE
8
BLACK
6
CONTINUOUS
10
252.496
20
-37.8841
11
252.496
21
-51.8841
0
LINE
8
BLACK
6
CONTINUOUS
10
252.496
20
-51.8841
11
238.496
21
-51.8841
0
LINE
8
BLACK
6
CONTINUOUS
10
238.496
20
-51.8841
11
238.496
21
-37.8841
0
LINE
8
BLACK
6
CONTINUOUS
10
230.287
20
-18.3949
11
244.287
21
-18.3949
0
LINE
8
BLACK
6
CONTINUOUS
10
244.287
20
-18.3949
11
244.287
21
-32.3949
0
LINE
8
BLACK
6
CONTINUOUS
10
244.287
20
-32.3949
11
230.287
21
-32.3949
0
LINE
8
BLACK
6
CONTINUOUS
10
230.287
20
-32.3949
11
230.287
21
-18.3949
0
LINE
8
BLACK
6
CONTINUOUS
10
210.598
20
-60.6699
11
224.386
21
-58.2388
0
LINE
8
BLACK
6
CONTINUOUS
10
224.386
20
-58.2388
11
226.817
21
-72.0261
0
LINE
8
BLACK
6
CONTINUOUS
10
226.817
20
-72.0261
11
213.029
21
-74.4572
0
LINE
8
BLACK
6
CONTINUOUS
10
213.029
20
-74.4572
11
210.598
21
-60.6699
0
LINE
8
BLACK
6
CONTINUOUS
10
216.671
20
-40.2554
11
230.458
21
-37.8243
0
LINE
8
BLACK
6
CONTINUOUS
10
230.458
20
-37.8243
11
232.889
21
-51.6116
0
LINE
8
BLACK
6
CONTINUOUS
10
232.889
20
-51.6116
11
219.102
21
-54.0427
0
LINE
8
BLACK
6
CONTINUOUS
10
219.102
20
-54.0427
11
216.671
21
-40.2554
0
LINE
8
BLACK
6
CONTINUOUS
10
208.673
20
-22.3219
11
222.46
21
-19.8908
0
LINE
8
BLACK
6
CONTINUOUS
10
222.46
20
-19.8908
11
224.891
21
-33.6781
0
LINE
8
BLACK
6
CONTINUOUS
10
224.891
20
-33.6781
11
211.104
21
-36.1092
0
LINE
8
BLACK
6
CONTINUOUS
10
211.104
20
-36.1092
11
208.673
21
-22.3219
0
LINE
8
BLACK
6
CONTINUOUS
10
191.838
20
-63.9779
11
205.625
21
-61.5468
0
LINE
8
BLACK
6
CONTINUOUS
10
205.625
20
-61.5468
11
208.056
21
-75.3341
0
LINE
8
BLACK
6
CONTINUOUS
10
208.056
20
-75.3341
11
194.269
21
-77.7652
0
LINE
8
BLACK
6
CONTINUOUS
10
194.269
20
-77.7652
11
191.838
21
-63.9779
0
LINE
8
BLACK
6
CONTINUOUS
10
197.91
20
-43.5634
11
211.697
21
-41.1323
0
LINE
8
BLACK
6
CONTINUOUS
10
211.697
20
-41.1323
11
214.128
21
-54.9196
0
LINE
8
BLACK
6
CONTINUOUS
10
214.128
20
-54.9196
11
200.341
21
-57.3507
0
LINE
8
BLACK
6
CONTINUOUS
10
200.341
20
-57.3507
11
197.91
21
-43.5634
0
LINE
8
BLACK
6
CONTINUOUS
10
189.912
20
-25.6299
11
203.699
21
-23.1988
0
LINE
8
BLACK
6
CONTINUOUS
10
203.699
20
-23.1988
11
206.13
21
-36.9861
0
LINE
8
BLACK
6
CONTINUOUS
10
206.13
20
-36.9861
11
192.343
21
-39.4172
0
LINE
8
BLACK
6
CONTINUOUS
10
192.343
20
-39.4172
11
189.912
21
-25.6299
0
LINE
8
BLACK
6
CONTINUOUS
10
173.077
20
-67.2859
11
186.865
21
-64.8548
0
LINE
8
BLACK
6
CONTINUOUS
10
186.865
20
-64.8548
11
189.296
21
-78.6421
0
LINE
8
BLACK
6
CONTINUOUS
10
189.296
20
-78.6421
11
175.508
21
-81.0732
0
LINE
8
BLACK
6
CONTINUOUS
10
175.508
20
-81.0732
11
173.077
21
-67.2859
0
LINE
8
BLACK
6
CONTINUOUS
10
179.149
20
-46.8714
11
192.937
21
-44.4403
0
LINE
8
BLACK
6
CONTINUOUS
10
192.937
20
-44.4403
11
195.368
21
-58.2276
0
LINE
8
BLACK
6
CONTINUOUS
10
195.368
20
-58.2276
11
181.581
21
-60.6587
0
LINE
8
BLACK
6
CONTINUOUS
10
181.581
20
-60.6587
11
179.149
21
-46.8714
0
LINE
8
BLACK
6
CONTINUOUS
10
171.151
20
-28.9379
11
184.939
21
-26.5068
0
LINE
8
BLACK
6
CONTINUOUS
10
184.939
20
-26.5068
11
187.37
21
-40.2941
0
LINE
8
BLACK
6
CONTINUOUS
10
187.37
20
-40.2941
11
173.582
21
-42.7252
0
LINE
8
BLACK
6
CONTINUOUS
10
173.582
20
-42.7252
11
171.151
21
-28.9379
0
LINE
8
BLACK
6
CONTINUOUS
10
154.317
20
-70.5939
11
168.104
21
-68.1628
0
LINE
8
BLACK
6
CONTINUOUS
10
168.104
20
-68.1628
11
170.535
21
-81.9501
0
LINE
8
BLACK
6
CONTINUOUS
10
170.535
20
-81.9501
11
156.748
21
-84.3812
0
LINE
8
BLACK
6
CONTINUOUS
10
156.748
20
-84.3812
11
154.317
21
-70.5939
0
LINE
8
BLACK
6
CONTINUOUS
10
160.389
20
-50.1794
11
174.176
21
-47.7483
0
LINE
8
BLACK
6
CONTINUOUS
10
174.176
20
-47.7483
11
176.607
21
-61.5356
0
LINE
8
BLACK
6
CONTINUOUS
10
176.607
20
-61.5356
11
162.82
21
-63.9667
0
LINE
8
BLACK
6
CONTINUOUS
10
162.82
20
-63.9667
11
160.389
21
-50.1794
0
LINE
8
BLACK
6
CONTINUOUS
10
152.391
20
-32.2459
11
166.178
21
-29.8148
0
LINE
8
BLACK
6
CONTINUOUS
10
166.178
20
-29.8148
11
168.609
21
-43.6021
0
LINE
8
BLACK
6
CONTINUOUS
10
168.609
20
-43.6021
11
154.822
21
-46.0332
0
LINE
8
BLACK
6
CONTINUOUS
10
154.822
20
-46.0332
11
152.391
21
-32.2459
0
LINE
8
BLACK
6
CONTINUOUS
10
95.2974
20
-66.5088
11
109.085
21
-68.9399
0
LINE
8
BLACK
6
CONTINUOUS
10
109.085
20
-68.9399
11
106.654
21
-82.7272
0
LINE
8
BLACK
6
CONTINUOUS
10
106.654
20
-82.7272
11
92.8663
21
-80.2961
0
LINE
8
BLACK
6
CONTINUOUS
10
92.8663
20
-80.2961
11
95.2974
21
-66.5088
0
LINE
8
BLACK
6
CONTINUOUS
10
87.8431
20
-26.5068
11
101.63
21
-28.9379
0
LINE
8
BLACK
6
CONTINUOUS
10
101.63
20
-28.9379
11
99.1993
21
-42.7252
0
LINE
8
BLACK
6
CONTINUOUS
10
99.1993
20
-42.7252
11
85.412
21
-40.2941
0
LINE
8
BLACK
6
CONTINUOUS
10
85.412
20
-40.2941
11
87.8431
21
-26.5068
0
LINE
8
BLACK
6
CONTINUOUS
10
76.5368
20
-63.2008
11
90.3241
21
-65.6319
0
LINE
8
BLACK
6
CONTINUOUS
10
90.3241
20
-65.6319
11
87.893
21
-79.4192
0
LINE
8
BLACK
6
CONTINUOUS
10
87.893
20
-79.4192
11
74.1057
21
-76.9881
0
LINE
8
BLACK
6
CONTINUOUS
10
74.1057
20
-76.9881
11
76.5368
21
-63.2008
0
LINE
8
BLACK
6
CONTINUOUS
10
70.4646
20
-42.7863
11
84.2519
21
-45.2174
0
LINE
8
BLACK
6
CONTINUOUS
10
84.2519
20
-45.2174
11
81.8208
21
-59.0047
0
LINE
8
BLACK
6
CONTINUOUS
10
81.8208
20
-59.0047
11
68.0335
21
-56.5736
0
LINE
8
BLACK
6
CONTINUOUS
10
68.0335
20
-56.5736
11
70.4646
21
-42.7863
0
LINE
8
BLACK
6
CONTINUOUS
10
69.0825
20
-23.1988
11
82.8698
21
-25.6299
0
LINE
8
BLACK
6
CONTINUOUS
10
82.8698
20
-25.6299
11
80.4387
21
-39.4172
0
LINE
8
BLACK
6
CONTINUOUS
10
80.4387
20
-39.4172
11
66.6514
21
-36.9861
0
LINE
8
BLACK
6
CONTINUOUS
10
66.6514
20
-36.9861
11
69.0825
21
-23.1988
0
LINE
8
BLACK
6
CONTINUOUS
10
57.7762
20
-59.8928
11
71.5635
21
-62.3239
0
LINE
8
BLACK
6
CONTINUOUS
10
71.5635
20
-62.3239
11
69.1324
21
-76.1112
0
LINE
8
BLACK
6
CONTINUOUS
10
69.1324
20
-76.1112
11
55.3451
21
-73.6801
0
LINE
8
BLACK
6
CONTINUOUS
10
55.3451
20
-73.6801
11
57.7762
21
-59.8928
0
LINE
8
BLACK
6
CONTINUOUS
10
51.704
20
-39.4783
11
65.4913
21
-41.9094
0
LINE
8
BLACK
6
CONTINUOUS
10
65.4913
20
-41.9094
11
63.0602
21
-55.6967
0
LINE
8
BLACK
6
CONTINUOUS
10
63.0602
20
-55.6967
11
49.2729
21
-53.2656
0
LINE
8
BLACK
6
CONTINUOUS
10
49.2729
20
-53.2656
11
51.704
21
-39.4783
0
LINE
8
BLACK
6
CONTINUOUS
10
50.3219
20
-19.8908
11
64.1092
21
-22.3219
0
LINE
8
BLACK
6
CONTINUOUS
10
64.1092
20
-22.3219
11
61.6781
21
-36.1092
0
LINE
8
BLACK
6
CONTINUOUS
10
61.6781
20
-36.1092
11
47.8908
21
-33.6781
0
LINE
8
BLACK
6
CONTINUOUS
10
47.8908
20
-33.6781
11
50.3219
21
-19.8908
0
LINE
8
BLACK
6
CONTINUOUS
10
35.799
20
-59.167
11
49.799
21
-59.167
0
LINE
8
BLACK
6
CONTINUOUS
10
49.799
20
-59.167
11
49.799
21
-73.167
0
LINE
8
BLACK
6
CONTINUOUS
10
49.799
20
-73.167
11
35.799
21
-73.167
0
LINE
8
BLACK
6
CONTINUOUS
10
35.799
20
-73.167
11
35.799
21
-59.167
0
LINE
8
BLACK
6
CONTINUOUS
10
28.433
20
-21.067
11
42.433
21
-21.067
0
LINE
8
BLACK
6
CONTINUOUS
10
42.433
20
-21.067
11
42.433
21
-35.067
0
LINE
8
BLACK
6
CONTINUOUS
10
42.433
20
-35.067
11
28.433
21
-35.067
0
LINE
8
BLACK
6
CONTINUOUS
10
28.433
20
-35.067
11
28.433
21
-21.067
0
LINE
8
BLACK
6
CONTINUOUS
10
9.383
20
-21.067
11
23.383
21
-21.067
0
LINE
8
BLACK
6
CONTINUOUS
10
23.383
20
-21.067
11
23.383
21
-35.067
0
LINE
8
BLACK
6
CONTINUOUS
10
23.383
20
-35.067
11
9.383
21
-35.067
0
LINE
8
BLACK
6
CONTINUOUS
10
9.383
20
-35.067
11
9.383
21
-21.067
  0
ENDSEC
  0
EOF
