  0
SECTION
  2
BLOCKS
  0
ENDSEC
  0
SECTION
  2
ENTITIES
  0
LINE
  8
0
 10
13
 20
-95.2422
 11
2.28613
 21
-95.2422
  0
LINE
  8
0
 10
2.28613
 20
-95.2422
 11
1.78989
 21
-94.8034
  0
LINE
  8
0
 10
1.78989
 20
-94.8034
 11
-0.559723
 21
-75.7536
  0
LINE
  8
0
 10
-0.559723
 20
-75.7536
 11
-0.563477
 21
-75.6924
  0
LINE
  8
0
 10
-0.563477
 20
-75.6924
 11
-0.563477
 21
-56.6416
  0
LINE
  8
0
 10
-0.563477
 20
-56.6416
 11
-0.555481
 21
-56.5525
  0
LINE
  8
0
 10
-0.555481
 20
-56.5525
 11
6.6203
 21
-16.9285
  0
LINE
  8
0
 10
6.6203
 20
-16.9285
 11
7.1123
 21
-16.5176
  0
LINE
  8
0
 10
7.1123
 20
-16.5176
 11
13
 21
-16.5176
  0
LINE
  8
0
 10
13
 20
-16.5176
 11
13
 21
-11.0176
  0
LINE
  8
0
 10
13
 20
-11.0176
 11
7.1123
 21
-11.0176
  0
LINE
  8
0
 10
7.1123
 20
-11.0176
 11
5.16411
 21
-11.3427
  0
LINE
  8
0
 10
5.16411
 20
-11.3427
 11
3.42703
 21
-12.2827
  0
LINE
  8
0
 10
3.42703
 20
-12.2827
 11
2.08931
 21
-13.7359
  0
LINE
  8
0
 10
2.08931
 20
-13.7359
 11
1.20834
 21
-15.9484
  0
LINE
  8
0
 10
1.20834
 20
-15.9484
 11
-5.96744
 21
-55.5724
  0
LINE
  8
0
 10
-5.96744
 20
-55.5724
 11
-6.06348
 21
-56.6416
  0
LINE
  8
0
 10
-6.06348
 20
-56.6416
 11
-6.06348
 21
-75.6924
  0
LINE
  8
0
 10
-6.06348
 20
-75.6924
 11
-6.01836
 21
-76.4269
  0
LINE
  8
0
 10
-6.01836
 20
-76.4269
 11
-3.66875
 21
-95.4767
  0
LINE
  8
0
 10
-3.66875
 20
-95.4767
 11
-3.1076
 21
-97.3704
  0
LINE
  8
0
 10
-3.1076
 20
-97.3704
 11
-1.96198
 21
-98.9794
  0
LINE
  8
0
 10
-1.96198
 20
-98.9794
 11
-0.356003
 21
-100.129
  0
LINE
  8
0
 10
-0.356003
 20
-100.129
 11
2.28613
 21
-100.742
  0
LINE
  8
0
 10
2.28613
 20
-100.742
 11
13
 21
-100.742
  0
LINE
  8
0
 10
13
 20
-100.742
 11
13
 21
-95.2422
  0
LINE
  8
0
 10
5.87979
 20
-16.1437
 11
5.64462
 21
-16.0937
  0
LINE
  8
0
 10
5.64462
 20
-16.0937
 11
5.42499
 21
-15.9959
  0
LINE
  8
0
 10
5.42499
 20
-15.9959
 11
5.2305
 21
-15.8546
  0
LINE
  8
0
 10
5.2305
 20
-15.8546
 11
5.06963
 21
-15.6759
  0
LINE
  8
0
 10
5.06963
 20
-15.6759
 11
4.94942
 21
-15.4677
  0
LINE
  8
0
 10
4.94942
 20
-15.4677
 11
4.87512
 21
-15.2391
  0
LINE
  8
0
 10
4.87512
 20
-15.2391
 11
4.84999
 21
-15
  0
LINE
  8
0
 10
4.84999
 20
-15
 11
4.87512
 21
-14.7609
  0
LINE
  8
0
 10
4.87512
 20
-14.7609
 11
4.94942
 21
-14.5322
  0
LINE
  8
0
 10
4.94942
 20
-14.5322
 11
5.06963
 21
-14.324
  0
LINE
  8
0
 10
5.06963
 20
-14.324
 11
5.2305
 21
-14.1454
  0
LINE
  8
0
 10
5.2305
 20
-14.1454
 11
5.42499
 21
-14.0041
  0
LINE
  8
0
 10
5.42499
 20
-14.0041
 11
5.64462
 21
-13.9063
  0
LINE
  8
0
 10
5.64462
 20
-13.9063
 11
5.87979
 21
-13.8563
  0
LINE
  8
0
 10
5.87979
 20
-13.8563
 11
6.12019
 21
-13.8563
  0
LINE
  8
0
 10
6.12019
 20
-13.8563
 11
6.35536
 21
-13.9063
  0
LINE
  8
0
 10
6.35536
 20
-13.9063
 11
6.575
 21
-14.0041
  0
LINE
  8
0
 10
6.575
 20
-14.0041
 11
6.76949
 21
-14.1454
  0
LINE
  8
0
 10
6.76949
 20
-14.1454
 11
6.93036
 21
-14.324
  0
LINE
  8
0
 10
6.93036
 20
-14.324
 11
7.05057
 21
-14.5322
  0
LINE
  8
0
 10
7.05057
 20
-14.5322
 11
7.12486
 21
-14.7609
  0
LINE
  8
0
 10
7.12486
 20
-14.7609
 11
7.14999
 21
-15
  0
LINE
  8
0
 10
7.14999
 20
-15
 11
7.12486
 21
-15.2391
  0
LINE
  8
0
 10
7.12486
 20
-15.2391
 11
7.05057
 21
-15.4677
  0
LINE
  8
0
 10
7.05057
 20
-15.4677
 11
6.93036
 21
-15.6759
  0
LINE
  8
0
 10
6.93036
 20
-15.6759
 11
6.76949
 21
-15.8546
  0
LINE
  8
0
 10
6.76949
 20
-15.8546
 11
6.575
 21
-15.9959
  0
LINE
  8
0
 10
6.575
 20
-15.9959
 11
6.35536
 21
-16.0937
  0
LINE
  8
0
 10
6.35536
 20
-16.0937
 11
6.12019
 21
-16.1437
  0
LINE
  8
0
 10
6.12019
 20
-16.1437
 11
5.87979
 21
-16.1437
  0
LINE
  8
0
 10
1.87979
 20
-99.1437
 11
1.64462
 21
-99.0937
  0
LINE
  8
0
 10
1.64462
 20
-99.0937
 11
1.42499
 21
-98.9959
  0
LINE
  8
0
 10
1.42499
 20
-98.9959
 11
1.2305
 21
-98.8546
  0
LINE
  8
0
 10
1.2305
 20
-98.8546
 11
1.06963
 21
-98.6759
  0
LINE
  8
0
 10
1.06963
 20
-98.6759
 11
0.949417
 21
-98.4677
  0
LINE
  8
0
 10
0.949417
 20
-98.4677
 11
0.875122
 21
-98.2391
  0
LINE
  8
0
 10
0.875122
 20
-98.2391
 11
0.849991
 21
-98
  0
LINE
  8
0
 10
0.849991
 20
-98
 11
0.875122
 21
-97.7609
  0
LINE
  8
0
 10
0.875122
 20
-97.7609
 11
0.949417
 21
-97.5322
  0
LINE
  8
0
 10
0.949417
 20
-97.5322
 11
1.06963
 21
-97.324
  0
LINE
  8
0
 10
1.06963
 20
-97.324
 11
1.2305
 21
-97.1454
  0
LINE
  8
0
 10
1.2305
 20
-97.1454
 11
1.42499
 21
-97.0041
  0
LINE
  8
0
 10
1.42499
 20
-97.0041
 11
1.64462
 21
-96.9063
  0
LINE
  8
0
 10
1.64462
 20
-96.9063
 11
1.87979
 21
-96.8563
  0
LINE
  8
0
 10
1.87979
 20
-96.8563
 11
2.12019
 21
-96.8563
  0
LINE
  8
0
 10
2.12019
 20
-96.8563
 11
2.35536
 21
-96.9063
  0
LINE
  8
0
 10
2.35536
 20
-96.9063
 11
2.575
 21
-97.0041
  0
LINE
  8
0
 10
2.575
 20
-97.0041
 11
2.76949
 21
-97.1454
  0
LINE
  8
0
 10
2.76949
 20
-97.1454
 11
2.93036
 21
-97.324
  0
LINE
  8
0
 10
2.93036
 20
-97.324
 11
3.05057
 21
-97.5322
  0
LINE
  8
0
 10
3.05057
 20
-97.5322
 11
3.12486
 21
-97.7609
  0
LINE
  8
0
 10
3.12486
 20
-97.7609
 11
3.14999
 21
-98
  0
LINE
  8
0
 10
3.14999
 20
-98
 11
3.12486
 21
-98.2391
  0
LINE
  8
0
 10
3.12486
 20
-98.2391
 11
3.05057
 21
-98.4677
  0
LINE
  8
0
 10
3.05057
 20
-98.4677
 11
2.93036
 21
-98.6759
  0
LINE
  8
0
 10
2.93036
 20
-98.6759
 11
2.76949
 21
-98.8546
  0
LINE
  8
0
 10
2.76949
 20
-98.8546
 11
2.575
 21
-98.9959
  0
LINE
  8
0
 10
2.575
 20
-98.9959
 11
2.35536
 21
-99.0937
  0
LINE
  8
0
 10
2.35536
 20
-99.0937
 11
2.12019
 21
-99.1437
  0
LINE
  8
0
 10
2.12019
 20
-99.1437
 11
1.87979
 21
-99.1437
  0
ENDSEC
  0
SECTION
  2
OBJECTS
  0
DICTIONARY
  0
ENDSEC
  0
EOF
